<?xml version="1.0"?>
<svg height="610mm" width="1220mm" >
 <g style="fill-opacity:1.0; stroke:black;
  stroke-width:0.1mm;">
	<line x1="12mm" y1="10mm" x2="122mm" y2="10mm" />
	<line x1="122mm" y1="10mm" x2="127mm" y2="35mm" />
	<line x1="127mm" y1="35mm" x2="167mm" y2="35mm" />
	<line x1="167mm" y1="35mm" x2="172mm" y2="10mm" />
	<line x1="172mm" y1="10mm" x2="226mm" y2="10mm" />
	<line x1="226mm" y1="10mm" x2="226mm" y2="15mm" />
	<line x1="226mm" y1="15mm" x2="228mm" y2="15mm" />
	<line x1="228mm" y1="15mm" x2="228mm" y2="20mm" />
	<line x1="228mm" y1="20mm" x2="226mm" y2="20mm" />
	<line x1="226mm" y1="20mm" x2="226mm" y2="25mm" />
	<line x1="226mm" y1="25mm" x2="228mm" y2="25mm" />
	<line x1="228mm" y1="25mm" x2="228mm" y2="30mm" />
	<line x1="228mm" y1="30mm" x2="226mm" y2="30mm" />
	<line x1="226mm" y1="30mm" x2="226mm" y2="35mm" />
	<line x1="226mm" y1="35mm" x2="228mm" y2="35mm" />
	<line x1="228mm" y1="35mm" x2="228mm" y2="40mm" />
	<line x1="228mm" y1="40mm" x2="226mm" y2="40mm" />
	<line x1="226mm" y1="40mm" x2="226mm" y2="45mm" />
	<line x1="226mm" y1="45mm" x2="228mm" y2="45mm" />
	<line x1="228mm" y1="45mm" x2="228mm" y2="50mm" />
	<line x1="228mm" y1="50mm" x2="226mm" y2="50mm" />
	<line x1="226mm" y1="50mm" x2="226mm" y2="55mm" />
	<line x1="226mm" y1="55mm" x2="228mm" y2="55mm" />
	<line x1="228mm" y1="55mm" x2="228mm" y2="60mm" />
	<line x1="228mm" y1="60mm" x2="226mm" y2="60mm" />
	<line x1="226mm" y1="60mm" x2="178mm" y2="60mm" />
	<line x1="178mm" y1="60mm" x2="178mm" y2="28mm" />
	<line x1="178mm" y1="28mm" x2="172mm" y2="28mm" />
	<line x1="172mm" y1="28mm" x2="172mm" y2="60mm" />
	<line x1="172mm" y1="60mm" x2="122mm" y2="60mm" />
	<line x1="122mm" y1="60mm" x2="122mm" y2="28mm" />
	<line x1="122mm" y1="28mm" x2="116mm" y2="28mm" />
	<line x1="116mm" y1="28mm" x2="116mm" y2="60mm" />
	<line x1="116mm" y1="60mm" x2="66mm" y2="60mm" />
	<line x1="66mm" y1="60mm" x2="66mm" y2="28mm" />
	<line x1="66mm" y1="28mm" x2="60mm" y2="28mm" />
	<line x1="60mm" y1="28mm" x2="60mm" y2="60mm" />
	<line x1="60mm" y1="60mm" x2="10mm" y2="60mm" />
	<line x1="10mm" y1="60mm" x2="10mm" y2="55mm" />
	<line x1="10mm" y1="55mm" x2="12mm" y2="55mm" />
	<line x1="12mm" y1="55mm" x2="12mm" y2="50mm" />
	<line x1="12mm" y1="50mm" x2="10mm" y2="50mm" />
	<line x1="10mm" y1="50mm" x2="10mm" y2="45mm" />
	<line x1="10mm" y1="45mm" x2="12mm" y2="45mm" />
	<line x1="12mm" y1="45mm" x2="12mm" y2="40mm" />
	<line x1="12mm" y1="40mm" x2="10mm" y2="40mm" />
	<line x1="10mm" y1="40mm" x2="10mm" y2="35mm" />
	<line x1="10mm" y1="35mm" x2="12mm" y2="35mm" />
	<line x1="12mm" y1="35mm" x2="12mm" y2="30mm" />
	<line x1="12mm" y1="30mm" x2="10mm" y2="30mm" />
	<line x1="10mm" y1="30mm" x2="10mm" y2="25mm" />
	<line x1="10mm" y1="25mm" x2="12mm" y2="25mm" />
	<line x1="12mm" y1="25mm" x2="12mm" y2="20mm" />
	<line x1="12mm" y1="20mm" x2="10mm" y2="20mm" />
	<line x1="10mm" y1="20mm" x2="10mm" y2="15mm" />
	<line x1="10mm" y1="15mm" x2="12mm" y2="15mm" />
	<line x1="12mm" y1="15mm" x2="12mm" y2="10mm" />
	<line x1="229mm" y1="10mm" x2="279mm" y2="10mm" />
	<line x1="279mm" y1="10mm" x2="279mm" y2="15mm" />
	<line x1="279mm" y1="15mm" x2="277mm" y2="15mm" />
	<line x1="277mm" y1="15mm" x2="277mm" y2="20mm" />
	<line x1="277mm" y1="20mm" x2="279mm" y2="20mm" />
	<line x1="279mm" y1="20mm" x2="279mm" y2="25mm" />
	<line x1="279mm" y1="25mm" x2="277mm" y2="25mm" />
	<line x1="277mm" y1="25mm" x2="277mm" y2="30mm" />
	<line x1="277mm" y1="30mm" x2="279mm" y2="30mm" />
	<line x1="279mm" y1="30mm" x2="279mm" y2="35mm" />
	<line x1="279mm" y1="35mm" x2="277mm" y2="35mm" />
	<line x1="277mm" y1="35mm" x2="277mm" y2="40mm" />
	<line x1="277mm" y1="40mm" x2="279mm" y2="40mm" />
	<line x1="279mm" y1="40mm" x2="279mm" y2="45mm" />
	<line x1="279mm" y1="45mm" x2="277mm" y2="45mm" />
	<line x1="277mm" y1="45mm" x2="277mm" y2="50mm" />
	<line x1="277mm" y1="50mm" x2="279mm" y2="50mm" />
	<line x1="279mm" y1="50mm" x2="279mm" y2="55mm" />
	<line x1="279mm" y1="55mm" x2="277mm" y2="55mm" />
	<line x1="277mm" y1="55mm" x2="277mm" y2="60mm" />
	<line x1="277mm" y1="60mm" x2="231mm" y2="60mm" />
	<line x1="231mm" y1="60mm" x2="231mm" y2="55mm" />
	<line x1="231mm" y1="55mm" x2="229mm" y2="55mm" />
	<line x1="229mm" y1="55mm" x2="229mm" y2="50mm" />
	<line x1="229mm" y1="50mm" x2="231mm" y2="50mm" />
	<line x1="231mm" y1="50mm" x2="231mm" y2="45mm" />
	<line x1="231mm" y1="45mm" x2="229mm" y2="45mm" />
	<line x1="229mm" y1="45mm" x2="229mm" y2="40mm" />
	<line x1="229mm" y1="40mm" x2="231mm" y2="40mm" />
	<line x1="231mm" y1="40mm" x2="231mm" y2="35mm" />
	<line x1="231mm" y1="35mm" x2="229mm" y2="35mm" />
	<line x1="229mm" y1="35mm" x2="229mm" y2="30mm" />
	<line x1="229mm" y1="30mm" x2="231mm" y2="30mm" />
	<line x1="231mm" y1="30mm" x2="231mm" y2="25mm" />
	<line x1="231mm" y1="25mm" x2="229mm" y2="25mm" />
	<line x1="229mm" y1="25mm" x2="229mm" y2="20mm" />
	<line x1="229mm" y1="20mm" x2="231mm" y2="20mm" />
	<line x1="231mm" y1="20mm" x2="231mm" y2="15mm" />
	<line x1="231mm" y1="15mm" x2="229mm" y2="15mm" />
	<line x1="229mm" y1="15mm" x2="229mm" y2="10mm" />
	<line x1="10mm" y1="61mm" x2="66mm" y2="61mm" />
	<line x1="66mm" y1="61mm" x2="71mm" y2="86mm" />
	<line x1="71mm" y1="86mm" x2="111mm" y2="86mm" />
	<line x1="111mm" y1="86mm" x2="116mm" y2="61mm" />
	<line x1="116mm" y1="61mm" x2="234mm" y2="61mm" />
	<line x1="234mm" y1="61mm" x2="239mm" y2="86mm" />
	<line x1="239mm" y1="86mm" x2="284mm" y2="86mm" />
	<line x1="284mm" y1="86mm" x2="284mm" y2="111mm" />
	<line x1="284mm" y1="111mm" x2="234mm" y2="111mm" />
	<line x1="234mm" y1="111mm" x2="234mm" y2="79mm" />
	<line x1="234mm" y1="79mm" x2="228mm" y2="79mm" />
	<line x1="228mm" y1="79mm" x2="228mm" y2="111mm" />
	<line x1="228mm" y1="111mm" x2="178mm" y2="111mm" />
	<line x1="178mm" y1="111mm" x2="178mm" y2="79mm" />
	<line x1="178mm" y1="79mm" x2="172mm" y2="79mm" />
	<line x1="172mm" y1="79mm" x2="172mm" y2="111mm" />
	<line x1="172mm" y1="111mm" x2="122mm" y2="111mm" />
	<line x1="122mm" y1="111mm" x2="122mm" y2="79mm" />
	<line x1="122mm" y1="79mm" x2="116mm" y2="79mm" />
	<line x1="116mm" y1="79mm" x2="116mm" y2="111mm" />
	<line x1="116mm" y1="111mm" x2="66mm" y2="111mm" />
	<line x1="66mm" y1="111mm" x2="66mm" y2="79mm" />
	<line x1="66mm" y1="79mm" x2="60mm" y2="79mm" />
	<line x1="60mm" y1="79mm" x2="60mm" y2="111mm" />
	<line x1="60mm" y1="111mm" x2="10mm" y2="111mm" />
	<line x1="10mm" y1="111mm" x2="10mm" y2="61mm" />
	<line x1="10mm" y1="112mm" x2="122mm" y2="112mm" />
	<line x1="122mm" y1="112mm" x2="127mm" y2="137mm" />
	<line x1="127mm" y1="137mm" x2="167mm" y2="137mm" />
	<line x1="167mm" y1="137mm" x2="172mm" y2="112mm" />
	<line x1="172mm" y1="112mm" x2="228mm" y2="112mm" />
	<line x1="228mm" y1="112mm" x2="228mm" y2="162mm" />
	<line x1="228mm" y1="162mm" x2="178mm" y2="162mm" />
	<line x1="178mm" y1="162mm" x2="178mm" y2="130mm" />
	<line x1="178mm" y1="130mm" x2="172mm" y2="130mm" />
	<line x1="172mm" y1="130mm" x2="172mm" y2="162mm" />
	<line x1="172mm" y1="162mm" x2="122mm" y2="162mm" />
	<line x1="122mm" y1="162mm" x2="122mm" y2="130mm" />
	<line x1="122mm" y1="130mm" x2="116mm" y2="130mm" />
	<line x1="116mm" y1="130mm" x2="116mm" y2="162mm" />
	<line x1="116mm" y1="162mm" x2="66mm" y2="162mm" />
	<line x1="66mm" y1="162mm" x2="66mm" y2="130mm" />
	<line x1="66mm" y1="130mm" x2="60mm" y2="130mm" />
	<line x1="60mm" y1="130mm" x2="60mm" y2="162mm" />
	<line x1="60mm" y1="162mm" x2="10mm" y2="162mm" />
	<line x1="10mm" y1="162mm" x2="10mm" y2="112mm" />
	<line x1="231mm" y1="112mm" x2="281mm" y2="112mm" />
	<line x1="281mm" y1="112mm" x2="281mm" y2="117mm" />
	<line x1="281mm" y1="117mm" x2="279mm" y2="117mm" />
	<line x1="279mm" y1="117mm" x2="279mm" y2="122mm" />
	<line x1="279mm" y1="122mm" x2="281mm" y2="122mm" />
	<line x1="281mm" y1="122mm" x2="281mm" y2="127mm" />
	<line x1="281mm" y1="127mm" x2="279mm" y2="127mm" />
	<line x1="279mm" y1="127mm" x2="279mm" y2="132mm" />
	<line x1="279mm" y1="132mm" x2="281mm" y2="132mm" />
	<line x1="281mm" y1="132mm" x2="281mm" y2="137mm" />
	<line x1="281mm" y1="137mm" x2="279mm" y2="137mm" />
	<line x1="279mm" y1="137mm" x2="279mm" y2="142mm" />
	<line x1="279mm" y1="142mm" x2="281mm" y2="142mm" />
	<line x1="281mm" y1="142mm" x2="281mm" y2="147mm" />
	<line x1="281mm" y1="147mm" x2="279mm" y2="147mm" />
	<line x1="279mm" y1="147mm" x2="279mm" y2="152mm" />
	<line x1="279mm" y1="152mm" x2="281mm" y2="152mm" />
	<line x1="281mm" y1="152mm" x2="281mm" y2="157mm" />
	<line x1="281mm" y1="157mm" x2="279mm" y2="157mm" />
	<line x1="279mm" y1="157mm" x2="279mm" y2="162mm" />
	<line x1="279mm" y1="162mm" x2="233mm" y2="162mm" />
	<line x1="233mm" y1="162mm" x2="233mm" y2="157mm" />
	<line x1="233mm" y1="157mm" x2="231mm" y2="157mm" />
	<line x1="231mm" y1="157mm" x2="231mm" y2="152mm" />
	<line x1="231mm" y1="152mm" x2="233mm" y2="152mm" />
	<line x1="233mm" y1="152mm" x2="233mm" y2="147mm" />
	<line x1="233mm" y1="147mm" x2="231mm" y2="147mm" />
	<line x1="231mm" y1="147mm" x2="231mm" y2="142mm" />
	<line x1="231mm" y1="142mm" x2="233mm" y2="142mm" />
	<line x1="233mm" y1="142mm" x2="233mm" y2="137mm" />
	<line x1="233mm" y1="137mm" x2="231mm" y2="137mm" />
	<line x1="231mm" y1="137mm" x2="231mm" y2="132mm" />
	<line x1="231mm" y1="132mm" x2="233mm" y2="132mm" />
	<line x1="233mm" y1="132mm" x2="233mm" y2="127mm" />
	<line x1="233mm" y1="127mm" x2="231mm" y2="127mm" />
	<line x1="231mm" y1="127mm" x2="231mm" y2="122mm" />
	<line x1="231mm" y1="122mm" x2="233mm" y2="122mm" />
	<line x1="233mm" y1="122mm" x2="233mm" y2="117mm" />
	<line x1="233mm" y1="117mm" x2="231mm" y2="117mm" />
	<line x1="231mm" y1="117mm" x2="231mm" y2="112mm" />
	<line x1="10mm" y1="163mm" x2="66mm" y2="163mm" />
	<line x1="66mm" y1="163mm" x2="71mm" y2="188mm" />
	<line x1="71mm" y1="188mm" x2="111mm" y2="188mm" />
	<line x1="111mm" y1="188mm" x2="116mm" y2="163mm" />
	<line x1="116mm" y1="163mm" x2="234mm" y2="163mm" />
	<line x1="234mm" y1="163mm" x2="239mm" y2="188mm" />
	<line x1="239mm" y1="188mm" x2="284mm" y2="188mm" />
	<line x1="284mm" y1="188mm" x2="284mm" y2="213mm" />
	<line x1="284mm" y1="213mm" x2="234mm" y2="213mm" />
	<line x1="234mm" y1="213mm" x2="234mm" y2="181mm" />
	<line x1="234mm" y1="181mm" x2="228mm" y2="181mm" />
	<line x1="228mm" y1="181mm" x2="228mm" y2="213mm" />
	<line x1="228mm" y1="213mm" x2="178mm" y2="213mm" />
	<line x1="178mm" y1="213mm" x2="178mm" y2="181mm" />
	<line x1="178mm" y1="181mm" x2="172mm" y2="181mm" />
	<line x1="172mm" y1="181mm" x2="172mm" y2="213mm" />
	<line x1="172mm" y1="213mm" x2="122mm" y2="213mm" />
	<line x1="122mm" y1="213mm" x2="122mm" y2="181mm" />
	<line x1="122mm" y1="181mm" x2="116mm" y2="181mm" />
	<line x1="116mm" y1="181mm" x2="116mm" y2="213mm" />
	<line x1="116mm" y1="213mm" x2="66mm" y2="213mm" />
	<line x1="66mm" y1="213mm" x2="66mm" y2="181mm" />
	<line x1="66mm" y1="181mm" x2="60mm" y2="181mm" />
	<line x1="60mm" y1="181mm" x2="60mm" y2="213mm" />
	<line x1="60mm" y1="213mm" x2="10mm" y2="213mm" />
	<line x1="10mm" y1="213mm" x2="10mm" y2="163mm" />
	<line x1="12mm" y1="214mm" x2="122mm" y2="214mm" />
	<line x1="122mm" y1="214mm" x2="127mm" y2="239mm" />
	<line x1="127mm" y1="239mm" x2="167mm" y2="239mm" />
	<line x1="167mm" y1="239mm" x2="172mm" y2="214mm" />
	<line x1="172mm" y1="214mm" x2="226mm" y2="214mm" />
	<line x1="226mm" y1="214mm" x2="226mm" y2="219mm" />
	<line x1="226mm" y1="219mm" x2="228mm" y2="219mm" />
	<line x1="228mm" y1="219mm" x2="228mm" y2="224mm" />
	<line x1="228mm" y1="224mm" x2="226mm" y2="224mm" />
	<line x1="226mm" y1="224mm" x2="226mm" y2="229mm" />
	<line x1="226mm" y1="229mm" x2="228mm" y2="229mm" />
	<line x1="228mm" y1="229mm" x2="228mm" y2="234mm" />
	<line x1="228mm" y1="234mm" x2="226mm" y2="234mm" />
	<line x1="226mm" y1="234mm" x2="226mm" y2="239mm" />
	<line x1="226mm" y1="239mm" x2="228mm" y2="239mm" />
	<line x1="228mm" y1="239mm" x2="228mm" y2="244mm" />
	<line x1="228mm" y1="244mm" x2="226mm" y2="244mm" />
	<line x1="226mm" y1="244mm" x2="226mm" y2="249mm" />
	<line x1="226mm" y1="249mm" x2="228mm" y2="249mm" />
	<line x1="228mm" y1="249mm" x2="228mm" y2="254mm" />
	<line x1="228mm" y1="254mm" x2="226mm" y2="254mm" />
	<line x1="226mm" y1="254mm" x2="226mm" y2="259mm" />
	<line x1="226mm" y1="259mm" x2="228mm" y2="259mm" />
	<line x1="228mm" y1="259mm" x2="228mm" y2="264mm" />
	<line x1="228mm" y1="264mm" x2="226mm" y2="264mm" />
	<line x1="226mm" y1="264mm" x2="178mm" y2="264mm" />
	<line x1="178mm" y1="264mm" x2="178mm" y2="232mm" />
	<line x1="178mm" y1="232mm" x2="172mm" y2="232mm" />
	<line x1="172mm" y1="232mm" x2="172mm" y2="264mm" />
	<line x1="172mm" y1="264mm" x2="122mm" y2="264mm" />
	<line x1="122mm" y1="264mm" x2="122mm" y2="232mm" />
	<line x1="122mm" y1="232mm" x2="116mm" y2="232mm" />
	<line x1="116mm" y1="232mm" x2="116mm" y2="264mm" />
	<line x1="116mm" y1="264mm" x2="66mm" y2="264mm" />
	<line x1="66mm" y1="264mm" x2="66mm" y2="232mm" />
	<line x1="66mm" y1="232mm" x2="60mm" y2="232mm" />
	<line x1="60mm" y1="232mm" x2="60mm" y2="264mm" />
	<line x1="60mm" y1="264mm" x2="10mm" y2="264mm" />
	<line x1="10mm" y1="264mm" x2="10mm" y2="259mm" />
	<line x1="10mm" y1="259mm" x2="12mm" y2="259mm" />
	<line x1="12mm" y1="259mm" x2="12mm" y2="254mm" />
	<line x1="12mm" y1="254mm" x2="10mm" y2="254mm" />
	<line x1="10mm" y1="254mm" x2="10mm" y2="249mm" />
	<line x1="10mm" y1="249mm" x2="12mm" y2="249mm" />
	<line x1="12mm" y1="249mm" x2="12mm" y2="244mm" />
	<line x1="12mm" y1="244mm" x2="10mm" y2="244mm" />
	<line x1="10mm" y1="244mm" x2="10mm" y2="239mm" />
	<line x1="10mm" y1="239mm" x2="12mm" y2="239mm" />
	<line x1="12mm" y1="239mm" x2="12mm" y2="234mm" />
	<line x1="12mm" y1="234mm" x2="10mm" y2="234mm" />
	<line x1="10mm" y1="234mm" x2="10mm" y2="229mm" />
	<line x1="10mm" y1="229mm" x2="12mm" y2="229mm" />
	<line x1="12mm" y1="229mm" x2="12mm" y2="224mm" />
	<line x1="12mm" y1="224mm" x2="10mm" y2="224mm" />
	<line x1="10mm" y1="224mm" x2="10mm" y2="219mm" />
	<line x1="10mm" y1="219mm" x2="12mm" y2="219mm" />
	<line x1="12mm" y1="219mm" x2="12mm" y2="214mm" />
	<line x1="229mm" y1="214mm" x2="279mm" y2="214mm" />
	<line x1="279mm" y1="214mm" x2="279mm" y2="219mm" />
	<line x1="279mm" y1="219mm" x2="277mm" y2="219mm" />
	<line x1="277mm" y1="219mm" x2="277mm" y2="224mm" />
	<line x1="277mm" y1="224mm" x2="279mm" y2="224mm" />
	<line x1="279mm" y1="224mm" x2="279mm" y2="229mm" />
	<line x1="279mm" y1="229mm" x2="277mm" y2="229mm" />
	<line x1="277mm" y1="229mm" x2="277mm" y2="234mm" />
	<line x1="277mm" y1="234mm" x2="279mm" y2="234mm" />
	<line x1="279mm" y1="234mm" x2="279mm" y2="239mm" />
	<line x1="279mm" y1="239mm" x2="277mm" y2="239mm" />
	<line x1="277mm" y1="239mm" x2="277mm" y2="244mm" />
	<line x1="277mm" y1="244mm" x2="279mm" y2="244mm" />
	<line x1="279mm" y1="244mm" x2="279mm" y2="249mm" />
	<line x1="279mm" y1="249mm" x2="277mm" y2="249mm" />
	<line x1="277mm" y1="249mm" x2="277mm" y2="254mm" />
	<line x1="277mm" y1="254mm" x2="279mm" y2="254mm" />
	<line x1="279mm" y1="254mm" x2="279mm" y2="259mm" />
	<line x1="279mm" y1="259mm" x2="277mm" y2="259mm" />
	<line x1="277mm" y1="259mm" x2="277mm" y2="264mm" />
	<line x1="277mm" y1="264mm" x2="231mm" y2="264mm" />
	<line x1="231mm" y1="264mm" x2="231mm" y2="259mm" />
	<line x1="231mm" y1="259mm" x2="229mm" y2="259mm" />
	<line x1="229mm" y1="259mm" x2="229mm" y2="254mm" />
	<line x1="229mm" y1="254mm" x2="231mm" y2="254mm" />
	<line x1="231mm" y1="254mm" x2="231mm" y2="249mm" />
	<line x1="231mm" y1="249mm" x2="229mm" y2="249mm" />
	<line x1="229mm" y1="249mm" x2="229mm" y2="244mm" />
	<line x1="229mm" y1="244mm" x2="231mm" y2="244mm" />
	<line x1="231mm" y1="244mm" x2="231mm" y2="239mm" />
	<line x1="231mm" y1="239mm" x2="229mm" y2="239mm" />
	<line x1="229mm" y1="239mm" x2="229mm" y2="234mm" />
	<line x1="229mm" y1="234mm" x2="231mm" y2="234mm" />
	<line x1="231mm" y1="234mm" x2="231mm" y2="229mm" />
	<line x1="231mm" y1="229mm" x2="229mm" y2="229mm" />
	<line x1="229mm" y1="229mm" x2="229mm" y2="224mm" />
	<line x1="229mm" y1="224mm" x2="231mm" y2="224mm" />
	<line x1="231mm" y1="224mm" x2="231mm" y2="219mm" />
	<line x1="231mm" y1="219mm" x2="229mm" y2="219mm" />
	<line x1="229mm" y1="219mm" x2="229mm" y2="214mm" />
	<line x1="12mm" y1="265mm" x2="60mm" y2="265mm" />
	<line x1="60mm" y1="265mm" x2="60mm" y2="283mm" />
	<line x1="60mm" y1="283mm" x2="66mm" y2="283mm" />
	<line x1="66mm" y1="283mm" x2="66mm" y2="290mm" />
	<line x1="66mm" y1="290mm" x2="116mm" y2="290mm" />
	<line x1="116mm" y1="290mm" x2="116mm" y2="283mm" />
	<line x1="116mm" y1="283mm" x2="122mm" y2="283mm" />
	<line x1="122mm" y1="283mm" x2="122mm" y2="265mm" />
	<line x1="122mm" y1="265mm" x2="172mm" y2="265mm" />
	<line x1="172mm" y1="265mm" x2="172mm" y2="283mm" />
	<line x1="172mm" y1="283mm" x2="178mm" y2="283mm" />
	<line x1="178mm" y1="283mm" x2="178mm" y2="265mm" />
	<line x1="178mm" y1="265mm" x2="226mm" y2="265mm" />
	<line x1="226mm" y1="265mm" x2="226mm" y2="270mm" />
	<line x1="226mm" y1="270mm" x2="228mm" y2="270mm" />
	<line x1="228mm" y1="270mm" x2="228mm" y2="275mm" />
	<line x1="228mm" y1="275mm" x2="226mm" y2="275mm" />
	<line x1="226mm" y1="275mm" x2="226mm" y2="280mm" />
	<line x1="226mm" y1="280mm" x2="228mm" y2="280mm" />
	<line x1="228mm" y1="280mm" x2="228mm" y2="285mm" />
	<line x1="228mm" y1="285mm" x2="226mm" y2="285mm" />
	<line x1="226mm" y1="285mm" x2="226mm" y2="290mm" />
	<line x1="226mm" y1="290mm" x2="228mm" y2="290mm" />
	<line x1="228mm" y1="290mm" x2="228mm" y2="295mm" />
	<line x1="228mm" y1="295mm" x2="226mm" y2="295mm" />
	<line x1="226mm" y1="295mm" x2="226mm" y2="300mm" />
	<line x1="226mm" y1="300mm" x2="228mm" y2="300mm" />
	<line x1="228mm" y1="300mm" x2="228mm" y2="305mm" />
	<line x1="228mm" y1="305mm" x2="226mm" y2="305mm" />
	<line x1="226mm" y1="305mm" x2="226mm" y2="310mm" />
	<line x1="226mm" y1="310mm" x2="228mm" y2="310mm" />
	<line x1="228mm" y1="310mm" x2="228mm" y2="315mm" />
	<line x1="228mm" y1="315mm" x2="226mm" y2="315mm" />
	<line x1="226mm" y1="315mm" x2="178mm" y2="315mm" />
	<line x1="178mm" y1="315mm" x2="178mm" y2="297mm" />
	<line x1="178mm" y1="297mm" x2="172mm" y2="297mm" />
	<line x1="172mm" y1="297mm" x2="172mm" y2="315mm" />
	<line x1="172mm" y1="315mm" x2="122mm" y2="315mm" />
	<line x1="122mm" y1="315mm" x2="122mm" y2="297mm" />
	<line x1="122mm" y1="297mm" x2="116mm" y2="297mm" />
	<line x1="116mm" y1="297mm" x2="116mm" y2="315mm" />
	<line x1="116mm" y1="315mm" x2="66mm" y2="315mm" />
	<line x1="66mm" y1="315mm" x2="66mm" y2="297mm" />
	<line x1="66mm" y1="297mm" x2="60mm" y2="297mm" />
	<line x1="60mm" y1="297mm" x2="60mm" y2="315mm" />
	<line x1="60mm" y1="315mm" x2="10mm" y2="315mm" />
	<line x1="10mm" y1="315mm" x2="10mm" y2="310mm" />
	<line x1="10mm" y1="310mm" x2="12mm" y2="310mm" />
	<line x1="12mm" y1="310mm" x2="12mm" y2="305mm" />
	<line x1="12mm" y1="305mm" x2="10mm" y2="305mm" />
	<line x1="10mm" y1="305mm" x2="10mm" y2="300mm" />
	<line x1="10mm" y1="300mm" x2="12mm" y2="300mm" />
	<line x1="12mm" y1="300mm" x2="12mm" y2="295mm" />
	<line x1="12mm" y1="295mm" x2="10mm" y2="295mm" />
	<line x1="10mm" y1="295mm" x2="10mm" y2="290mm" />
	<line x1="10mm" y1="290mm" x2="12mm" y2="290mm" />
	<line x1="12mm" y1="290mm" x2="12mm" y2="285mm" />
	<line x1="12mm" y1="285mm" x2="10mm" y2="285mm" />
	<line x1="10mm" y1="285mm" x2="10mm" y2="280mm" />
	<line x1="10mm" y1="280mm" x2="12mm" y2="280mm" />
	<line x1="12mm" y1="280mm" x2="12mm" y2="275mm" />
	<line x1="12mm" y1="275mm" x2="10mm" y2="275mm" />
	<line x1="10mm" y1="275mm" x2="10mm" y2="270mm" />
	<line x1="10mm" y1="270mm" x2="12mm" y2="270mm" />
	<line x1="12mm" y1="270mm" x2="12mm" y2="265mm" />
	<line x1="229mm" y1="265mm" x2="279mm" y2="265mm" />
	<line x1="279mm" y1="265mm" x2="279mm" y2="270mm" />
	<line x1="279mm" y1="270mm" x2="277mm" y2="270mm" />
	<line x1="277mm" y1="270mm" x2="277mm" y2="275mm" />
	<line x1="277mm" y1="275mm" x2="279mm" y2="275mm" />
	<line x1="279mm" y1="275mm" x2="279mm" y2="280mm" />
	<line x1="279mm" y1="280mm" x2="277mm" y2="280mm" />
	<line x1="277mm" y1="280mm" x2="277mm" y2="285mm" />
	<line x1="277mm" y1="285mm" x2="279mm" y2="285mm" />
	<line x1="279mm" y1="285mm" x2="279mm" y2="290mm" />
	<line x1="279mm" y1="290mm" x2="277mm" y2="290mm" />
	<line x1="277mm" y1="290mm" x2="277mm" y2="295mm" />
	<line x1="277mm" y1="295mm" x2="279mm" y2="295mm" />
	<line x1="279mm" y1="295mm" x2="279mm" y2="300mm" />
	<line x1="279mm" y1="300mm" x2="277mm" y2="300mm" />
	<line x1="277mm" y1="300mm" x2="277mm" y2="305mm" />
	<line x1="277mm" y1="305mm" x2="279mm" y2="305mm" />
	<line x1="279mm" y1="305mm" x2="279mm" y2="310mm" />
	<line x1="279mm" y1="310mm" x2="277mm" y2="310mm" />
	<line x1="277mm" y1="310mm" x2="277mm" y2="315mm" />
	<line x1="277mm" y1="315mm" x2="231mm" y2="315mm" />
	<line x1="231mm" y1="315mm" x2="231mm" y2="310mm" />
	<line x1="231mm" y1="310mm" x2="229mm" y2="310mm" />
	<line x1="229mm" y1="310mm" x2="229mm" y2="305mm" />
	<line x1="229mm" y1="305mm" x2="231mm" y2="305mm" />
	<line x1="231mm" y1="305mm" x2="231mm" y2="300mm" />
	<line x1="231mm" y1="300mm" x2="229mm" y2="300mm" />
	<line x1="229mm" y1="300mm" x2="229mm" y2="295mm" />
	<line x1="229mm" y1="295mm" x2="231mm" y2="295mm" />
	<line x1="231mm" y1="295mm" x2="231mm" y2="290mm" />
	<line x1="231mm" y1="290mm" x2="229mm" y2="290mm" />
	<line x1="229mm" y1="290mm" x2="229mm" y2="285mm" />
	<line x1="229mm" y1="285mm" x2="231mm" y2="285mm" />
	<line x1="231mm" y1="285mm" x2="231mm" y2="280mm" />
	<line x1="231mm" y1="280mm" x2="229mm" y2="280mm" />
	<line x1="229mm" y1="280mm" x2="229mm" y2="275mm" />
	<line x1="229mm" y1="275mm" x2="231mm" y2="275mm" />
	<line x1="231mm" y1="275mm" x2="231mm" y2="270mm" />
	<line x1="231mm" y1="270mm" x2="229mm" y2="270mm" />
	<line x1="229mm" y1="270mm" x2="229mm" y2="265mm" />
	<line x1="10mm" y1="316mm" x2="60mm" y2="316mm" />
	<line x1="60mm" y1="316mm" x2="60mm" y2="334mm" />
	<line x1="60mm" y1="334mm" x2="66mm" y2="334mm" />
	<line x1="66mm" y1="334mm" x2="66mm" y2="341mm" />
	<line x1="66mm" y1="341mm" x2="116mm" y2="341mm" />
	<line x1="116mm" y1="341mm" x2="116mm" y2="334mm" />
	<line x1="116mm" y1="334mm" x2="122mm" y2="334mm" />
	<line x1="122mm" y1="334mm" x2="122mm" y2="316mm" />
	<line x1="122mm" y1="316mm" x2="172mm" y2="316mm" />
	<line x1="172mm" y1="316mm" x2="172mm" y2="334mm" />
	<line x1="172mm" y1="334mm" x2="178mm" y2="334mm" />
	<line x1="178mm" y1="334mm" x2="178mm" y2="316mm" />
	<line x1="178mm" y1="316mm" x2="228mm" y2="316mm" />
	<line x1="228mm" y1="316mm" x2="228mm" y2="334mm" />
	<line x1="228mm" y1="334mm" x2="234mm" y2="334mm" />
	<line x1="234mm" y1="334mm" x2="234mm" y2="341mm" />
	<line x1="234mm" y1="341mm" x2="284mm" y2="341mm" />
	<line x1="284mm" y1="341mm" x2="284mm" y2="366mm" />
	<line x1="284mm" y1="366mm" x2="234mm" y2="366mm" />
	<line x1="234mm" y1="366mm" x2="234mm" y2="348mm" />
	<line x1="234mm" y1="348mm" x2="228mm" y2="348mm" />
	<line x1="228mm" y1="348mm" x2="228mm" y2="366mm" />
	<line x1="228mm" y1="366mm" x2="178mm" y2="366mm" />
	<line x1="178mm" y1="366mm" x2="178mm" y2="348mm" />
	<line x1="178mm" y1="348mm" x2="172mm" y2="348mm" />
	<line x1="172mm" y1="348mm" x2="172mm" y2="366mm" />
	<line x1="172mm" y1="366mm" x2="122mm" y2="366mm" />
	<line x1="122mm" y1="366mm" x2="122mm" y2="348mm" />
	<line x1="122mm" y1="348mm" x2="116mm" y2="348mm" />
	<line x1="116mm" y1="348mm" x2="116mm" y2="366mm" />
	<line x1="116mm" y1="366mm" x2="66mm" y2="366mm" />
	<line x1="66mm" y1="366mm" x2="66mm" y2="348mm" />
	<line x1="66mm" y1="348mm" x2="60mm" y2="348mm" />
	<line x1="60mm" y1="348mm" x2="60mm" y2="366mm" />
	<line x1="60mm" y1="366mm" x2="10mm" y2="366mm" />
	<line x1="10mm" y1="366mm" x2="10mm" y2="316mm" />
	<line x1="10mm" y1="367mm" x2="60mm" y2="367mm" />
	<line x1="60mm" y1="367mm" x2="60mm" y2="385mm" />
	<line x1="60mm" y1="385mm" x2="66mm" y2="385mm" />
	<line x1="66mm" y1="385mm" x2="66mm" y2="392mm" />
	<line x1="66mm" y1="392mm" x2="116mm" y2="392mm" />
	<line x1="116mm" y1="392mm" x2="116mm" y2="385mm" />
	<line x1="116mm" y1="385mm" x2="122mm" y2="385mm" />
	<line x1="122mm" y1="385mm" x2="122mm" y2="367mm" />
	<line x1="122mm" y1="367mm" x2="172mm" y2="367mm" />
	<line x1="172mm" y1="367mm" x2="172mm" y2="385mm" />
	<line x1="172mm" y1="385mm" x2="178mm" y2="385mm" />
	<line x1="178mm" y1="385mm" x2="178mm" y2="367mm" />
	<line x1="178mm" y1="367mm" x2="228mm" y2="367mm" />
	<line x1="228mm" y1="367mm" x2="228mm" y2="417mm" />
	<line x1="228mm" y1="417mm" x2="178mm" y2="417mm" />
	<line x1="178mm" y1="417mm" x2="178mm" y2="399mm" />
	<line x1="178mm" y1="399mm" x2="172mm" y2="399mm" />
	<line x1="172mm" y1="399mm" x2="172mm" y2="417mm" />
	<line x1="172mm" y1="417mm" x2="122mm" y2="417mm" />
	<line x1="122mm" y1="417mm" x2="122mm" y2="399mm" />
	<line x1="122mm" y1="399mm" x2="116mm" y2="399mm" />
	<line x1="116mm" y1="399mm" x2="116mm" y2="417mm" />
	<line x1="116mm" y1="417mm" x2="66mm" y2="417mm" />
	<line x1="66mm" y1="417mm" x2="66mm" y2="399mm" />
	<line x1="66mm" y1="399mm" x2="60mm" y2="399mm" />
	<line x1="60mm" y1="399mm" x2="60mm" y2="417mm" />
	<line x1="60mm" y1="417mm" x2="10mm" y2="417mm" />
	<line x1="10mm" y1="417mm" x2="10mm" y2="367mm" />
	<line x1="231mm" y1="367mm" x2="281mm" y2="367mm" />
	<line x1="281mm" y1="367mm" x2="281mm" y2="372mm" />
	<line x1="281mm" y1="372mm" x2="279mm" y2="372mm" />
	<line x1="279mm" y1="372mm" x2="279mm" y2="377mm" />
	<line x1="279mm" y1="377mm" x2="281mm" y2="377mm" />
	<line x1="281mm" y1="377mm" x2="281mm" y2="382mm" />
	<line x1="281mm" y1="382mm" x2="279mm" y2="382mm" />
	<line x1="279mm" y1="382mm" x2="279mm" y2="387mm" />
	<line x1="279mm" y1="387mm" x2="281mm" y2="387mm" />
	<line x1="281mm" y1="387mm" x2="281mm" y2="392mm" />
	<line x1="281mm" y1="392mm" x2="279mm" y2="392mm" />
	<line x1="279mm" y1="392mm" x2="279mm" y2="397mm" />
	<line x1="279mm" y1="397mm" x2="281mm" y2="397mm" />
	<line x1="281mm" y1="397mm" x2="281mm" y2="402mm" />
	<line x1="281mm" y1="402mm" x2="279mm" y2="402mm" />
	<line x1="279mm" y1="402mm" x2="279mm" y2="407mm" />
	<line x1="279mm" y1="407mm" x2="281mm" y2="407mm" />
	<line x1="281mm" y1="407mm" x2="281mm" y2="412mm" />
	<line x1="281mm" y1="412mm" x2="279mm" y2="412mm" />
	<line x1="279mm" y1="412mm" x2="279mm" y2="417mm" />
	<line x1="279mm" y1="417mm" x2="233mm" y2="417mm" />
	<line x1="233mm" y1="417mm" x2="233mm" y2="412mm" />
	<line x1="233mm" y1="412mm" x2="231mm" y2="412mm" />
	<line x1="231mm" y1="412mm" x2="231mm" y2="407mm" />
	<line x1="231mm" y1="407mm" x2="233mm" y2="407mm" />
	<line x1="233mm" y1="407mm" x2="233mm" y2="402mm" />
	<line x1="233mm" y1="402mm" x2="231mm" y2="402mm" />
	<line x1="231mm" y1="402mm" x2="231mm" y2="397mm" />
	<line x1="231mm" y1="397mm" x2="233mm" y2="397mm" />
	<line x1="233mm" y1="397mm" x2="233mm" y2="392mm" />
	<line x1="233mm" y1="392mm" x2="231mm" y2="392mm" />
	<line x1="231mm" y1="392mm" x2="231mm" y2="387mm" />
	<line x1="231mm" y1="387mm" x2="233mm" y2="387mm" />
	<line x1="233mm" y1="387mm" x2="233mm" y2="382mm" />
	<line x1="233mm" y1="382mm" x2="231mm" y2="382mm" />
	<line x1="231mm" y1="382mm" x2="231mm" y2="377mm" />
	<line x1="231mm" y1="377mm" x2="233mm" y2="377mm" />
	<line x1="233mm" y1="377mm" x2="233mm" y2="372mm" />
	<line x1="233mm" y1="372mm" x2="231mm" y2="372mm" />
	<line x1="231mm" y1="372mm" x2="231mm" y2="367mm" />
	<line x1="10mm" y1="418mm" x2="60mm" y2="418mm" />
	<line x1="60mm" y1="418mm" x2="60mm" y2="436mm" />
	<line x1="60mm" y1="436mm" x2="66mm" y2="436mm" />
	<line x1="66mm" y1="436mm" x2="66mm" y2="443mm" />
	<line x1="66mm" y1="443mm" x2="116mm" y2="443mm" />
	<line x1="116mm" y1="443mm" x2="116mm" y2="436mm" />
	<line x1="116mm" y1="436mm" x2="122mm" y2="436mm" />
	<line x1="122mm" y1="436mm" x2="122mm" y2="418mm" />
	<line x1="122mm" y1="418mm" x2="172mm" y2="418mm" />
	<line x1="172mm" y1="418mm" x2="172mm" y2="436mm" />
	<line x1="172mm" y1="436mm" x2="178mm" y2="436mm" />
	<line x1="178mm" y1="436mm" x2="178mm" y2="418mm" />
	<line x1="178mm" y1="418mm" x2="228mm" y2="418mm" />
	<line x1="228mm" y1="418mm" x2="228mm" y2="436mm" />
	<line x1="228mm" y1="436mm" x2="234mm" y2="436mm" />
	<line x1="234mm" y1="436mm" x2="234mm" y2="443mm" />
	<line x1="234mm" y1="443mm" x2="284mm" y2="443mm" />
	<line x1="284mm" y1="443mm" x2="284mm" y2="468mm" />
	<line x1="284mm" y1="468mm" x2="234mm" y2="468mm" />
	<line x1="234mm" y1="468mm" x2="234mm" y2="450mm" />
	<line x1="234mm" y1="450mm" x2="228mm" y2="450mm" />
	<line x1="228mm" y1="450mm" x2="228mm" y2="468mm" />
	<line x1="228mm" y1="468mm" x2="178mm" y2="468mm" />
	<line x1="178mm" y1="468mm" x2="178mm" y2="450mm" />
	<line x1="178mm" y1="450mm" x2="172mm" y2="450mm" />
	<line x1="172mm" y1="450mm" x2="172mm" y2="468mm" />
	<line x1="172mm" y1="468mm" x2="122mm" y2="468mm" />
	<line x1="122mm" y1="468mm" x2="122mm" y2="450mm" />
	<line x1="122mm" y1="450mm" x2="116mm" y2="450mm" />
	<line x1="116mm" y1="450mm" x2="116mm" y2="468mm" />
	<line x1="116mm" y1="468mm" x2="66mm" y2="468mm" />
	<line x1="66mm" y1="468mm" x2="66mm" y2="450mm" />
	<line x1="66mm" y1="450mm" x2="60mm" y2="450mm" />
	<line x1="60mm" y1="450mm" x2="60mm" y2="468mm" />
	<line x1="60mm" y1="468mm" x2="10mm" y2="468mm" />
	<line x1="10mm" y1="468mm" x2="10mm" y2="418mm" />
	<line x1="12mm" y1="469mm" x2="60mm" y2="469mm" />
	<line x1="60mm" y1="469mm" x2="60mm" y2="487mm" />
	<line x1="60mm" y1="487mm" x2="66mm" y2="487mm" />
	<line x1="66mm" y1="487mm" x2="66mm" y2="494mm" />
	<line x1="66mm" y1="494mm" x2="116mm" y2="494mm" />
	<line x1="116mm" y1="494mm" x2="116mm" y2="487mm" />
	<line x1="116mm" y1="487mm" x2="122mm" y2="487mm" />
	<line x1="122mm" y1="487mm" x2="122mm" y2="469mm" />
	<line x1="122mm" y1="469mm" x2="172mm" y2="469mm" />
	<line x1="172mm" y1="469mm" x2="172mm" y2="487mm" />
	<line x1="172mm" y1="487mm" x2="178mm" y2="487mm" />
	<line x1="178mm" y1="487mm" x2="178mm" y2="469mm" />
	<line x1="178mm" y1="469mm" x2="226mm" y2="469mm" />
	<line x1="226mm" y1="469mm" x2="226mm" y2="474mm" />
	<line x1="226mm" y1="474mm" x2="228mm" y2="474mm" />
	<line x1="228mm" y1="474mm" x2="228mm" y2="479mm" />
	<line x1="228mm" y1="479mm" x2="226mm" y2="479mm" />
	<line x1="226mm" y1="479mm" x2="226mm" y2="484mm" />
	<line x1="226mm" y1="484mm" x2="228mm" y2="484mm" />
	<line x1="228mm" y1="484mm" x2="228mm" y2="489mm" />
	<line x1="228mm" y1="489mm" x2="226mm" y2="489mm" />
	<line x1="226mm" y1="489mm" x2="226mm" y2="494mm" />
	<line x1="226mm" y1="494mm" x2="228mm" y2="494mm" />
	<line x1="228mm" y1="494mm" x2="228mm" y2="499mm" />
	<line x1="228mm" y1="499mm" x2="226mm" y2="499mm" />
	<line x1="226mm" y1="499mm" x2="226mm" y2="504mm" />
	<line x1="226mm" y1="504mm" x2="228mm" y2="504mm" />
	<line x1="228mm" y1="504mm" x2="228mm" y2="509mm" />
	<line x1="228mm" y1="509mm" x2="226mm" y2="509mm" />
	<line x1="226mm" y1="509mm" x2="226mm" y2="514mm" />
	<line x1="226mm" y1="514mm" x2="228mm" y2="514mm" />
	<line x1="228mm" y1="514mm" x2="228mm" y2="519mm" />
	<line x1="228mm" y1="519mm" x2="226mm" y2="519mm" />
	<line x1="226mm" y1="519mm" x2="178mm" y2="519mm" />
	<line x1="178mm" y1="519mm" x2="178mm" y2="501mm" />
	<line x1="178mm" y1="501mm" x2="172mm" y2="501mm" />
	<line x1="172mm" y1="501mm" x2="172mm" y2="519mm" />
	<line x1="172mm" y1="519mm" x2="122mm" y2="519mm" />
	<line x1="122mm" y1="519mm" x2="122mm" y2="501mm" />
	<line x1="122mm" y1="501mm" x2="116mm" y2="501mm" />
	<line x1="116mm" y1="501mm" x2="116mm" y2="519mm" />
	<line x1="116mm" y1="519mm" x2="66mm" y2="519mm" />
	<line x1="66mm" y1="519mm" x2="66mm" y2="501mm" />
	<line x1="66mm" y1="501mm" x2="60mm" y2="501mm" />
	<line x1="60mm" y1="501mm" x2="60mm" y2="519mm" />
	<line x1="60mm" y1="519mm" x2="10mm" y2="519mm" />
	<line x1="10mm" y1="519mm" x2="10mm" y2="514mm" />
	<line x1="10mm" y1="514mm" x2="12mm" y2="514mm" />
	<line x1="12mm" y1="514mm" x2="12mm" y2="509mm" />
	<line x1="12mm" y1="509mm" x2="10mm" y2="509mm" />
	<line x1="10mm" y1="509mm" x2="10mm" y2="504mm" />
	<line x1="10mm" y1="504mm" x2="12mm" y2="504mm" />
	<line x1="12mm" y1="504mm" x2="12mm" y2="499mm" />
	<line x1="12mm" y1="499mm" x2="10mm" y2="499mm" />
	<line x1="10mm" y1="499mm" x2="10mm" y2="494mm" />
	<line x1="10mm" y1="494mm" x2="12mm" y2="494mm" />
	<line x1="12mm" y1="494mm" x2="12mm" y2="489mm" />
	<line x1="12mm" y1="489mm" x2="10mm" y2="489mm" />
	<line x1="10mm" y1="489mm" x2="10mm" y2="484mm" />
	<line x1="10mm" y1="484mm" x2="12mm" y2="484mm" />
	<line x1="12mm" y1="484mm" x2="12mm" y2="479mm" />
	<line x1="12mm" y1="479mm" x2="10mm" y2="479mm" />
	<line x1="10mm" y1="479mm" x2="10mm" y2="474mm" />
	<line x1="10mm" y1="474mm" x2="12mm" y2="474mm" />
	<line x1="12mm" y1="474mm" x2="12mm" y2="469mm" />
	<line x1="229mm" y1="469mm" x2="279mm" y2="469mm" />
	<line x1="279mm" y1="469mm" x2="279mm" y2="474mm" />
	<line x1="279mm" y1="474mm" x2="277mm" y2="474mm" />
	<line x1="277mm" y1="474mm" x2="277mm" y2="479mm" />
	<line x1="277mm" y1="479mm" x2="279mm" y2="479mm" />
	<line x1="279mm" y1="479mm" x2="279mm" y2="484mm" />
	<line x1="279mm" y1="484mm" x2="277mm" y2="484mm" />
	<line x1="277mm" y1="484mm" x2="277mm" y2="489mm" />
	<line x1="277mm" y1="489mm" x2="279mm" y2="489mm" />
	<line x1="279mm" y1="489mm" x2="279mm" y2="494mm" />
	<line x1="279mm" y1="494mm" x2="277mm" y2="494mm" />
	<line x1="277mm" y1="494mm" x2="277mm" y2="499mm" />
	<line x1="277mm" y1="499mm" x2="279mm" y2="499mm" />
	<line x1="279mm" y1="499mm" x2="279mm" y2="504mm" />
	<line x1="279mm" y1="504mm" x2="277mm" y2="504mm" />
	<line x1="277mm" y1="504mm" x2="277mm" y2="509mm" />
	<line x1="277mm" y1="509mm" x2="279mm" y2="509mm" />
	<line x1="279mm" y1="509mm" x2="279mm" y2="514mm" />
	<line x1="279mm" y1="514mm" x2="277mm" y2="514mm" />
	<line x1="277mm" y1="514mm" x2="277mm" y2="519mm" />
	<line x1="277mm" y1="519mm" x2="231mm" y2="519mm" />
	<line x1="231mm" y1="519mm" x2="231mm" y2="514mm" />
	<line x1="231mm" y1="514mm" x2="229mm" y2="514mm" />
	<line x1="229mm" y1="514mm" x2="229mm" y2="509mm" />
	<line x1="229mm" y1="509mm" x2="231mm" y2="509mm" />
	<line x1="231mm" y1="509mm" x2="231mm" y2="504mm" />
	<line x1="231mm" y1="504mm" x2="229mm" y2="504mm" />
	<line x1="229mm" y1="504mm" x2="229mm" y2="499mm" />
	<line x1="229mm" y1="499mm" x2="231mm" y2="499mm" />
	<line x1="231mm" y1="499mm" x2="231mm" y2="494mm" />
	<line x1="231mm" y1="494mm" x2="229mm" y2="494mm" />
	<line x1="229mm" y1="494mm" x2="229mm" y2="489mm" />
	<line x1="229mm" y1="489mm" x2="231mm" y2="489mm" />
	<line x1="231mm" y1="489mm" x2="231mm" y2="484mm" />
	<line x1="231mm" y1="484mm" x2="229mm" y2="484mm" />
	<line x1="229mm" y1="484mm" x2="229mm" y2="479mm" />
	<line x1="229mm" y1="479mm" x2="231mm" y2="479mm" />
	<line x1="231mm" y1="479mm" x2="231mm" y2="474mm" />
	<line x1="231mm" y1="474mm" x2="229mm" y2="474mm" />
	<line x1="229mm" y1="474mm" x2="229mm" y2="469mm" />
	<line x1="12mm" y1="520mm" x2="60mm" y2="520mm" />
	<line x1="60mm" y1="520mm" x2="60mm" y2="552mm" />
	<line x1="60mm" y1="552mm" x2="66mm" y2="552mm" />
	<line x1="66mm" y1="552mm" x2="66mm" y2="520mm" />
	<line x1="66mm" y1="520mm" x2="116mm" y2="520mm" />
	<line x1="116mm" y1="520mm" x2="116mm" y2="552mm" />
	<line x1="116mm" y1="552mm" x2="122mm" y2="552mm" />
	<line x1="122mm" y1="552mm" x2="122mm" y2="545mm" />
	<line x1="122mm" y1="545mm" x2="172mm" y2="545mm" />
	<line x1="172mm" y1="545mm" x2="172mm" y2="552mm" />
	<line x1="172mm" y1="552mm" x2="178mm" y2="552mm" />
	<line x1="178mm" y1="552mm" x2="178mm" y2="520mm" />
	<line x1="178mm" y1="520mm" x2="226mm" y2="520mm" />
	<line x1="226mm" y1="520mm" x2="226mm" y2="525mm" />
	<line x1="226mm" y1="525mm" x2="228mm" y2="525mm" />
	<line x1="228mm" y1="525mm" x2="228mm" y2="530mm" />
	<line x1="228mm" y1="530mm" x2="226mm" y2="530mm" />
	<line x1="226mm" y1="530mm" x2="226mm" y2="535mm" />
	<line x1="226mm" y1="535mm" x2="228mm" y2="535mm" />
	<line x1="228mm" y1="535mm" x2="228mm" y2="540mm" />
	<line x1="228mm" y1="540mm" x2="226mm" y2="540mm" />
	<line x1="226mm" y1="540mm" x2="226mm" y2="545mm" />
	<line x1="226mm" y1="545mm" x2="228mm" y2="545mm" />
	<line x1="228mm" y1="545mm" x2="228mm" y2="550mm" />
	<line x1="228mm" y1="550mm" x2="226mm" y2="550mm" />
	<line x1="226mm" y1="550mm" x2="226mm" y2="555mm" />
	<line x1="226mm" y1="555mm" x2="228mm" y2="555mm" />
	<line x1="228mm" y1="555mm" x2="228mm" y2="560mm" />
	<line x1="228mm" y1="560mm" x2="226mm" y2="560mm" />
	<line x1="226mm" y1="560mm" x2="226mm" y2="565mm" />
	<line x1="226mm" y1="565mm" x2="228mm" y2="565mm" />
	<line x1="228mm" y1="565mm" x2="228mm" y2="570mm" />
	<line x1="228mm" y1="570mm" x2="226mm" y2="570mm" />
	<line x1="226mm" y1="570mm" x2="10mm" y2="570mm" />
	<line x1="10mm" y1="570mm" x2="10mm" y2="565mm" />
	<line x1="10mm" y1="565mm" x2="12mm" y2="565mm" />
	<line x1="12mm" y1="565mm" x2="12mm" y2="560mm" />
	<line x1="12mm" y1="560mm" x2="10mm" y2="560mm" />
	<line x1="10mm" y1="560mm" x2="10mm" y2="555mm" />
	<line x1="10mm" y1="555mm" x2="12mm" y2="555mm" />
	<line x1="12mm" y1="555mm" x2="12mm" y2="550mm" />
	<line x1="12mm" y1="550mm" x2="10mm" y2="550mm" />
	<line x1="10mm" y1="550mm" x2="10mm" y2="545mm" />
	<line x1="10mm" y1="545mm" x2="12mm" y2="545mm" />
	<line x1="12mm" y1="545mm" x2="12mm" y2="540mm" />
	<line x1="12mm" y1="540mm" x2="10mm" y2="540mm" />
	<line x1="10mm" y1="540mm" x2="10mm" y2="535mm" />
	<line x1="10mm" y1="535mm" x2="12mm" y2="535mm" />
	<line x1="12mm" y1="535mm" x2="12mm" y2="530mm" />
	<line x1="12mm" y1="530mm" x2="10mm" y2="530mm" />
	<line x1="10mm" y1="530mm" x2="10mm" y2="525mm" />
	<line x1="10mm" y1="525mm" x2="12mm" y2="525mm" />
	<line x1="12mm" y1="525mm" x2="12mm" y2="520mm" />
	<line x1="290mm" y1="10mm" x2="340mm" y2="10mm" />
	<line x1="340mm" y1="10mm" x2="340mm" y2="42mm" />
	<line x1="340mm" y1="42mm" x2="346mm" y2="42mm" />
	<line x1="346mm" y1="42mm" x2="346mm" y2="35mm" />
	<line x1="346mm" y1="35mm" x2="396mm" y2="35mm" />
	<line x1="396mm" y1="35mm" x2="396mm" y2="42mm" />
	<line x1="396mm" y1="42mm" x2="402mm" y2="42mm" />
	<line x1="402mm" y1="42mm" x2="402mm" y2="10mm" />
	<line x1="402mm" y1="10mm" x2="452mm" y2="10mm" />
	<line x1="452mm" y1="10mm" x2="452mm" y2="42mm" />
	<line x1="452mm" y1="42mm" x2="458mm" y2="42mm" />
	<line x1="458mm" y1="42mm" x2="458mm" y2="10mm" />
	<line x1="458mm" y1="10mm" x2="508mm" y2="10mm" />
	<line x1="508mm" y1="10mm" x2="508mm" y2="42mm" />
	<line x1="508mm" y1="42mm" x2="514mm" y2="42mm" />
	<line x1="514mm" y1="42mm" x2="514mm" y2="35mm" />
	<line x1="514mm" y1="35mm" x2="564mm" y2="35mm" />
	<line x1="564mm" y1="35mm" x2="564mm" y2="60mm" />
	<line x1="564mm" y1="60mm" x2="290mm" y2="60mm" />
	<line x1="290mm" y1="60mm" x2="290mm" y2="10mm" />
	<line x1="290mm" y1="61mm" x2="340mm" y2="61mm" />
	<line x1="340mm" y1="61mm" x2="340mm" y2="93mm" />
	<line x1="340mm" y1="93mm" x2="346mm" y2="93mm" />
	<line x1="346mm" y1="93mm" x2="346mm" y2="61mm" />
	<line x1="346mm" y1="61mm" x2="396mm" y2="61mm" />
	<line x1="396mm" y1="61mm" x2="396mm" y2="93mm" />
	<line x1="396mm" y1="93mm" x2="402mm" y2="93mm" />
	<line x1="402mm" y1="93mm" x2="402mm" y2="86mm" />
	<line x1="402mm" y1="86mm" x2="452mm" y2="86mm" />
	<line x1="452mm" y1="86mm" x2="452mm" y2="93mm" />
	<line x1="452mm" y1="93mm" x2="458mm" y2="93mm" />
	<line x1="458mm" y1="93mm" x2="458mm" y2="61mm" />
	<line x1="458mm" y1="61mm" x2="508mm" y2="61mm" />
	<line x1="508mm" y1="61mm" x2="508mm" y2="111mm" />
	<line x1="508mm" y1="111mm" x2="290mm" y2="111mm" />
	<line x1="290mm" y1="111mm" x2="290mm" y2="61mm" />
	<line x1="290mm" y1="112mm" x2="340mm" y2="112mm" />
	<line x1="340mm" y1="112mm" x2="340mm" y2="144mm" />
	<line x1="340mm" y1="144mm" x2="346mm" y2="144mm" />
	<line x1="346mm" y1="144mm" x2="346mm" y2="137mm" />
	<line x1="346mm" y1="137mm" x2="396mm" y2="137mm" />
	<line x1="396mm" y1="137mm" x2="396mm" y2="144mm" />
	<line x1="396mm" y1="144mm" x2="402mm" y2="144mm" />
	<line x1="402mm" y1="144mm" x2="402mm" y2="112mm" />
	<line x1="402mm" y1="112mm" x2="452mm" y2="112mm" />
	<line x1="452mm" y1="112mm" x2="452mm" y2="144mm" />
	<line x1="452mm" y1="144mm" x2="458mm" y2="144mm" />
	<line x1="458mm" y1="144mm" x2="458mm" y2="112mm" />
	<line x1="458mm" y1="112mm" x2="508mm" y2="112mm" />
	<line x1="508mm" y1="112mm" x2="508mm" y2="144mm" />
	<line x1="508mm" y1="144mm" x2="514mm" y2="144mm" />
	<line x1="514mm" y1="144mm" x2="514mm" y2="137mm" />
	<line x1="514mm" y1="137mm" x2="564mm" y2="137mm" />
	<line x1="564mm" y1="137mm" x2="564mm" y2="162mm" />
	<line x1="564mm" y1="162mm" x2="290mm" y2="162mm" />
	<line x1="290mm" y1="162mm" x2="290mm" y2="112mm" />
	<line x1="292mm" y1="163mm" x2="340mm" y2="163mm" />
	<line x1="340mm" y1="163mm" x2="340mm" y2="195mm" />
	<line x1="340mm" y1="195mm" x2="346mm" y2="195mm" />
	<line x1="346mm" y1="195mm" x2="346mm" y2="163mm" />
	<line x1="346mm" y1="163mm" x2="396mm" y2="163mm" />
	<line x1="396mm" y1="163mm" x2="396mm" y2="195mm" />
	<line x1="396mm" y1="195mm" x2="402mm" y2="195mm" />
	<line x1="402mm" y1="195mm" x2="402mm" y2="188mm" />
	<line x1="402mm" y1="188mm" x2="452mm" y2="188mm" />
	<line x1="452mm" y1="188mm" x2="452mm" y2="195mm" />
	<line x1="452mm" y1="195mm" x2="458mm" y2="195mm" />
	<line x1="458mm" y1="195mm" x2="458mm" y2="163mm" />
	<line x1="458mm" y1="163mm" x2="506mm" y2="163mm" />
	<line x1="506mm" y1="163mm" x2="506mm" y2="168mm" />
	<line x1="506mm" y1="168mm" x2="508mm" y2="168mm" />
	<line x1="508mm" y1="168mm" x2="508mm" y2="173mm" />
	<line x1="508mm" y1="173mm" x2="506mm" y2="173mm" />
	<line x1="506mm" y1="173mm" x2="506mm" y2="178mm" />
	<line x1="506mm" y1="178mm" x2="508mm" y2="178mm" />
	<line x1="508mm" y1="178mm" x2="508mm" y2="183mm" />
	<line x1="508mm" y1="183mm" x2="506mm" y2="183mm" />
	<line x1="506mm" y1="183mm" x2="506mm" y2="188mm" />
	<line x1="506mm" y1="188mm" x2="508mm" y2="188mm" />
	<line x1="508mm" y1="188mm" x2="508mm" y2="193mm" />
	<line x1="508mm" y1="193mm" x2="506mm" y2="193mm" />
	<line x1="506mm" y1="193mm" x2="506mm" y2="198mm" />
	<line x1="506mm" y1="198mm" x2="508mm" y2="198mm" />
	<line x1="508mm" y1="198mm" x2="508mm" y2="203mm" />
	<line x1="508mm" y1="203mm" x2="506mm" y2="203mm" />
	<line x1="506mm" y1="203mm" x2="506mm" y2="208mm" />
	<line x1="506mm" y1="208mm" x2="508mm" y2="208mm" />
	<line x1="508mm" y1="208mm" x2="508mm" y2="213mm" />
	<line x1="508mm" y1="213mm" x2="506mm" y2="213mm" />
	<line x1="506mm" y1="213mm" x2="290mm" y2="213mm" />
	<line x1="290mm" y1="213mm" x2="290mm" y2="208mm" />
	<line x1="290mm" y1="208mm" x2="292mm" y2="208mm" />
	<line x1="292mm" y1="208mm" x2="292mm" y2="203mm" />
	<line x1="292mm" y1="203mm" x2="290mm" y2="203mm" />
	<line x1="290mm" y1="203mm" x2="290mm" y2="198mm" />
	<line x1="290mm" y1="198mm" x2="292mm" y2="198mm" />
	<line x1="292mm" y1="198mm" x2="292mm" y2="193mm" />
	<line x1="292mm" y1="193mm" x2="290mm" y2="193mm" />
	<line x1="290mm" y1="193mm" x2="290mm" y2="188mm" />
	<line x1="290mm" y1="188mm" x2="292mm" y2="188mm" />
	<line x1="292mm" y1="188mm" x2="292mm" y2="183mm" />
	<line x1="292mm" y1="183mm" x2="290mm" y2="183mm" />
	<line x1="290mm" y1="183mm" x2="290mm" y2="178mm" />
	<line x1="290mm" y1="178mm" x2="292mm" y2="178mm" />
	<line x1="292mm" y1="178mm" x2="292mm" y2="173mm" />
	<line x1="292mm" y1="173mm" x2="290mm" y2="173mm" />
	<line x1="290mm" y1="173mm" x2="290mm" y2="168mm" />
	<line x1="290mm" y1="168mm" x2="292mm" y2="168mm" />
	<line x1="292mm" y1="168mm" x2="292mm" y2="163mm" />
</g>
</svg>
