<?xml version="1.0"?>
<svg height="610mm" width="1220mm" >
 <g style="fill-opacity:1.0; stroke:black;
  stroke-width:0.1mm;">
	<line x1="20.0mm" y1="20.0mm" x2="45.0mm" y2="20.0mm" transform="rotate(0 0 0)" />
	<line x1="45.0mm" y1="20.0mm" x2="45.0mm" y2="32.5mm" transform="rotate(0 0 0)" />
	<line x1="45.0mm" y1="32.5mm" x2="51.0mm" y2="32.5mm" transform="rotate(0 0 0)" />
	<line x1="51.0mm" y1="32.5mm" x2="71.0mm" y2="32.5mm" transform="rotate(0 0 0)" />
	<line x1="71.0mm" y1="32.5mm" x2="77.0mm" y2="20.0mm" transform="rotate(0 0 0)" />
	<line x1="77.0mm" y1="20.0mm" x2="114.0mm" y2="20.0mm" transform="rotate(0 0 0)" />
	<line x1="114.0mm" y1="20.0mm" x2="139.0mm" y2="20.0mm" transform="rotate(0 0 0)" />
	<line x1="139.0mm" y1="20.0mm" x2="139.0mm" y2="24.1541666667mm" transform="rotate(0 0 0)" />
	<line x1="139.0mm" y1="24.1541666667mm" x2="143.0mm" y2="24.1541666667mm" transform="rotate(0 0 0)" />
	<line x1="143.0mm" y1="24.1541666667mm" x2="143.0mm" y2="28.3333333333mm" transform="rotate(0 0 0)" />
	<line x1="143.0mm" y1="28.3333333333mm" x2="139.0mm" y2="28.3333333333mm" transform="rotate(0 0 0)" />
	<line x1="139.0mm" y1="28.3333333333mm" x2="139.0mm" y2="32.4875mm" transform="rotate(0 0 0)" />
	<line x1="139.0mm" y1="32.4875mm" x2="143.0mm" y2="32.4875mm" transform="rotate(0 0 0)" />
	<line x1="143.0mm" y1="32.4875mm" x2="143.0mm" y2="36.6666666667mm" transform="rotate(0 0 0)" />
	<line x1="143.0mm" y1="36.6666666667mm" x2="139.0mm" y2="36.6666666667mm" transform="rotate(0 0 0)" />
	<line x1="139.0mm" y1="36.6666666667mm" x2="139.0mm" y2="40.8208333333mm" transform="rotate(0 0 0)" />
	<line x1="139.0mm" y1="40.8208333333mm" x2="143.0mm" y2="40.8208333333mm" transform="rotate(0 0 0)" />
	<line x1="143.0mm" y1="40.8208333333mm" x2="143.0mm" y2="45.0mm" transform="rotate(0 0 0)" />
	<line x1="143.0mm" y1="45.0mm" x2="139.0mm" y2="45.0mm" transform="rotate(0 0 0)" />
	<line x1="139.0mm" y1="45.0mm" x2="114.0mm" y2="45.0mm" transform="rotate(0 0 0)" />
	<line x1="114.0mm" y1="45.0mm" x2="114.0mm" y2="32.5mm" transform="rotate(0 0 0)" />
	<line x1="114.0mm" y1="32.5mm" x2="108.0mm" y2="32.5mm" transform="rotate(0 0 0)" />
	<line x1="108.0mm" y1="32.5mm" x2="108.0mm" y2="45.0mm" transform="rotate(0 0 0)" />
	<line x1="108.0mm" y1="45.0mm" x2="83.0mm" y2="45.0mm" transform="rotate(0 0 0)" />
	<line x1="83.0mm" y1="45.0mm" x2="83.0mm" y2="36.6666666667mm" transform="rotate(0 0 0)" />
	<line x1="83.0mm" y1="36.6666666667mm" x2="77.0mm" y2="36.6666666667mm" transform="rotate(0 0 0)" />
	<line x1="77.0mm" y1="36.6666666667mm" x2="77.0mm" y2="45.0mm" transform="rotate(0 0 0)" />
	<line x1="77.0mm" y1="45.0mm" x2="52.0mm" y2="45.0mm" transform="rotate(0 0 0)" />
	<line x1="52.0mm" y1="45.0mm" x2="21.0mm" y2="45.0mm" transform="rotate(0 0 0)" />
	<line x1="21.0mm" y1="45.0mm" x2="17.0mm" y2="45.0mm" transform="rotate(0 0 0)" />
	<line x1="17.0mm" y1="45.0mm" x2="17.0mm" y2="40.8208333333mm" transform="rotate(0 0 0)" />
	<line x1="17.0mm" y1="40.8208333333mm" x2="21.0mm" y2="40.8208333333mm" transform="rotate(0 0 0)" />
	<line x1="21.0mm" y1="40.8208333333mm" x2="21.0mm" y2="36.6666666667mm" transform="rotate(0 0 0)" />
	<line x1="21.0mm" y1="36.6666666667mm" x2="17.0mm" y2="36.6666666667mm" transform="rotate(0 0 0)" />
	<line x1="17.0mm" y1="36.6666666667mm" x2="17.0mm" y2="32.4875mm" transform="rotate(0 0 0)" />
	<line x1="17.0mm" y1="32.4875mm" x2="21.0mm" y2="32.4875mm" transform="rotate(0 0 0)" />
	<line x1="21.0mm" y1="32.4875mm" x2="21.0mm" y2="28.3333333333mm" transform="rotate(0 0 0)" />
	<line x1="21.0mm" y1="28.3333333333mm" x2="17.0mm" y2="28.3333333333mm" transform="rotate(0 0 0)" />
	<line x1="17.0mm" y1="28.3333333333mm" x2="17.0mm" y2="24.1541666667mm" transform="rotate(0 0 0)" />
	<line x1="17.0mm" y1="24.1541666667mm" x2="21.0mm" y2="24.1541666667mm" transform="rotate(0 0 0)" />
	<line x1="21.0mm" y1="24.1541666667mm" x2="21.0mm" y2="20.0mm" transform="rotate(0 0 0)" />
	<line x1="21.0mm" y1="46.0mm" x2="52.0mm" y2="46.0mm" transform="rotate(0 0 0)" />
	<line x1="52.0mm" y1="46.0mm" x2="57.0mm" y2="58.5mm" transform="rotate(0 0 0)" />
	<line x1="57.0mm" y1="58.5mm" x2="77.0mm" y2="58.5mm" transform="rotate(0 0 0)" />
	<line x1="77.0mm" y1="58.5mm" x2="77.0mm" y2="54.3333333333mm" transform="rotate(0 0 0)" />
	<line x1="77.0mm" y1="54.3333333333mm" x2="83.0mm" y2="54.3333333333mm" transform="rotate(0 0 0)" />
	<line x1="83.0mm" y1="54.3333333333mm" x2="83.0mm" y2="46.0mm" transform="rotate(0 0 0)" />
	<line x1="83.0mm" y1="46.0mm" x2="108.0mm" y2="46.0mm" transform="rotate(0 0 0)" />
	<line x1="108.0mm" y1="46.0mm" x2="108.0mm" y2="58.5mm" transform="rotate(0 0 0)" />
	<line x1="108.0mm" y1="58.5mm" x2="114.0mm" y2="58.5mm" transform="rotate(0 0 0)" />
	<line x1="114.0mm" y1="58.5mm" x2="114.0mm" y2="46.0mm" transform="rotate(0 0 0)" />
	<line x1="114.0mm" y1="46.0mm" x2="139.0mm" y2="46.0mm" transform="rotate(0 0 0)" />
	<line x1="139.0mm" y1="46.0mm" x2="139.0mm" y2="50.1541666667mm" transform="rotate(0 0 0)" />
	<line x1="139.0mm" y1="50.1541666667mm" x2="143.0mm" y2="50.1541666667mm" transform="rotate(0 0 0)" />
	<line x1="143.0mm" y1="50.1541666667mm" x2="143.0mm" y2="54.3333333333mm" transform="rotate(0 0 0)" />
	<line x1="143.0mm" y1="54.3333333333mm" x2="139.0mm" y2="54.3333333333mm" transform="rotate(0 0 0)" />
	<line x1="139.0mm" y1="54.3333333333mm" x2="139.0mm" y2="58.4875mm" transform="rotate(0 0 0)" />
	<line x1="139.0mm" y1="58.4875mm" x2="143.0mm" y2="58.4875mm" transform="rotate(0 0 0)" />
	<line x1="143.0mm" y1="58.4875mm" x2="143.0mm" y2="62.6666666667mm" transform="rotate(0 0 0)" />
	<line x1="143.0mm" y1="62.6666666667mm" x2="139.0mm" y2="62.6666666667mm" transform="rotate(0 0 0)" />
	<line x1="139.0mm" y1="62.6666666667mm" x2="139.0mm" y2="66.8208333333mm" transform="rotate(0 0 0)" />
	<line x1="139.0mm" y1="66.8208333333mm" x2="143.0mm" y2="66.8208333333mm" transform="rotate(0 0 0)" />
	<line x1="143.0mm" y1="66.8208333333mm" x2="143.0mm" y2="71.0mm" transform="rotate(0 0 0)" />
	<line x1="143.0mm" y1="71.0mm" x2="139.0mm" y2="71.0mm" transform="rotate(0 0 0)" />
	<line x1="139.0mm" y1="71.0mm" x2="83.0mm" y2="71.0mm" transform="rotate(0 0 0)" />
	<line x1="83.0mm" y1="71.0mm" x2="83.0mm" y2="62.6666666667mm" transform="rotate(0 0 0)" />
	<line x1="83.0mm" y1="62.6666666667mm" x2="77.0mm" y2="62.6666666667mm" transform="rotate(0 0 0)" />
	<line x1="77.0mm" y1="62.6666666667mm" x2="77.0mm" y2="71.0mm" transform="rotate(0 0 0)" />
	<line x1="77.0mm" y1="71.0mm" x2="52.0mm" y2="71.0mm" transform="rotate(0 0 0)" />
	<line x1="52.0mm" y1="71.0mm" x2="52.0mm" y2="58.5mm" transform="rotate(0 0 0)" />
	<line x1="52.0mm" y1="58.5mm" x2="46.0mm" y2="58.5mm" transform="rotate(0 0 0)" />
	<line x1="46.0mm" y1="58.5mm" x2="46.0mm" y2="71.0mm" transform="rotate(0 0 0)" />
	<line x1="46.0mm" y1="71.0mm" x2="21.0mm" y2="71.0mm" transform="rotate(0 0 0)" />
	<line x1="21.0mm" y1="71.0mm" x2="17.0mm" y2="71.0mm" transform="rotate(0 0 0)" />
	<line x1="17.0mm" y1="71.0mm" x2="17.0mm" y2="66.8208333333mm" transform="rotate(0 0 0)" />
	<line x1="17.0mm" y1="66.8208333333mm" x2="21.0mm" y2="66.8208333333mm" transform="rotate(0 0 0)" />
	<line x1="21.0mm" y1="66.8208333333mm" x2="21.0mm" y2="62.6666666667mm" transform="rotate(0 0 0)" />
	<line x1="21.0mm" y1="62.6666666667mm" x2="17.0mm" y2="62.6666666667mm" transform="rotate(0 0 0)" />
	<line x1="17.0mm" y1="62.6666666667mm" x2="17.0mm" y2="58.4875mm" transform="rotate(0 0 0)" />
	<line x1="17.0mm" y1="58.4875mm" x2="21.0mm" y2="58.4875mm" transform="rotate(0 0 0)" />
	<line x1="21.0mm" y1="58.4875mm" x2="21.0mm" y2="54.3333333333mm" transform="rotate(0 0 0)" />
	<line x1="21.0mm" y1="54.3333333333mm" x2="17.0mm" y2="54.3333333333mm" transform="rotate(0 0 0)" />
	<line x1="17.0mm" y1="54.3333333333mm" x2="17.0mm" y2="50.1541666667mm" transform="rotate(0 0 0)" />
	<line x1="17.0mm" y1="50.1541666667mm" x2="21.0mm" y2="50.1541666667mm" transform="rotate(0 0 0)" />
	<line x1="21.0mm" y1="50.1541666667mm" x2="21.0mm" y2="46.0mm" transform="rotate(0 0 0)" />
</g>
</svg>
