<?xml version="1.0"?>
<svg height="610mm" width="1220mm" >
 <g style="fill-opacity:1.0; stroke:black;
  stroke-width:0.1mm;">
	<line x1="20.0mm" y1="20.0mm" x2="70.0mm" y2="20.0mm" transform="rotate(0 0 0)" />
	<line x1="70.0mm" y1="20.0mm" x2="70.0mm" y2="45.0mm" transform="rotate(0 0 0)" />
	<line x1="70.0mm" y1="45.0mm" x2="76.0mm" y2="45.0mm" transform="rotate(0 0 0)" />
	<line x1="76.0mm" y1="45.0mm" x2="121.0mm" y2="45.0mm" transform="rotate(0 0 0)" />
	<line x1="121.0mm" y1="45.0mm" x2="127.0mm" y2="20.0mm" transform="rotate(0 0 0)" />
	<line x1="127.0mm" y1="20.0mm" x2="189.0mm" y2="20.0mm" transform="rotate(0 0 0)" />
	<line x1="189.0mm" y1="20.0mm" x2="239.0mm" y2="20.0mm" transform="rotate(0 0 0)" />
	<line x1="239.0mm" y1="20.0mm" x2="239.0mm" y2="28.3208333333mm" transform="rotate(0 0 0)" />
	<line x1="239.0mm" y1="28.3208333333mm" x2="243.0mm" y2="28.3208333333mm" transform="rotate(0 0 0)" />
	<line x1="243.0mm" y1="28.3208333333mm" x2="243.0mm" y2="36.6666666667mm" transform="rotate(0 0 0)" />
	<line x1="243.0mm" y1="36.6666666667mm" x2="239.0mm" y2="36.6666666667mm" transform="rotate(0 0 0)" />
	<line x1="239.0mm" y1="36.6666666667mm" x2="239.0mm" y2="44.9875mm" transform="rotate(0 0 0)" />
	<line x1="239.0mm" y1="44.9875mm" x2="243.0mm" y2="44.9875mm" transform="rotate(0 0 0)" />
	<line x1="243.0mm" y1="44.9875mm" x2="243.0mm" y2="53.3333333333mm" transform="rotate(0 0 0)" />
	<line x1="243.0mm" y1="53.3333333333mm" x2="239.0mm" y2="53.3333333333mm" transform="rotate(0 0 0)" />
	<line x1="239.0mm" y1="53.3333333333mm" x2="239.0mm" y2="61.6541666667mm" transform="rotate(0 0 0)" />
	<line x1="239.0mm" y1="61.6541666667mm" x2="243.0mm" y2="61.6541666667mm" transform="rotate(0 0 0)" />
	<line x1="243.0mm" y1="61.6541666667mm" x2="243.0mm" y2="70.0mm" transform="rotate(0 0 0)" />
	<line x1="243.0mm" y1="70.0mm" x2="239.0mm" y2="70.0mm" transform="rotate(0 0 0)" />
	<line x1="239.0mm" y1="70.0mm" x2="189.0mm" y2="70.0mm" transform="rotate(0 0 0)" />
	<line x1="189.0mm" y1="70.0mm" x2="189.0mm" y2="45.0mm" transform="rotate(0 0 0)" />
	<line x1="189.0mm" y1="45.0mm" x2="183.0mm" y2="45.0mm" transform="rotate(0 0 0)" />
	<line x1="183.0mm" y1="45.0mm" x2="183.0mm" y2="70.0mm" transform="rotate(0 0 0)" />
	<line x1="183.0mm" y1="70.0mm" x2="133.0mm" y2="70.0mm" transform="rotate(0 0 0)" />
	<line x1="133.0mm" y1="70.0mm" x2="133.0mm" y2="53.3333333333mm" transform="rotate(0 0 0)" />
	<line x1="133.0mm" y1="53.3333333333mm" x2="127.0mm" y2="53.3333333333mm" transform="rotate(0 0 0)" />
	<line x1="127.0mm" y1="53.3333333333mm" x2="127.0mm" y2="70.0mm" transform="rotate(0 0 0)" />
	<line x1="127.0mm" y1="70.0mm" x2="77.0mm" y2="70.0mm" transform="rotate(0 0 0)" />
	<line x1="77.0mm" y1="70.0mm" x2="21.0mm" y2="70.0mm" transform="rotate(0 0 0)" />
	<line x1="21.0mm" y1="70.0mm" x2="17.0mm" y2="70.0mm" transform="rotate(0 0 0)" />
	<line x1="17.0mm" y1="70.0mm" x2="17.0mm" y2="61.6541666667mm" transform="rotate(0 0 0)" />
	<line x1="17.0mm" y1="61.6541666667mm" x2="21.0mm" y2="61.6541666667mm" transform="rotate(0 0 0)" />
	<line x1="21.0mm" y1="61.6541666667mm" x2="21.0mm" y2="53.3333333333mm" transform="rotate(0 0 0)" />
	<line x1="21.0mm" y1="53.3333333333mm" x2="17.0mm" y2="53.3333333333mm" transform="rotate(0 0 0)" />
	<line x1="17.0mm" y1="53.3333333333mm" x2="17.0mm" y2="44.9875mm" transform="rotate(0 0 0)" />
	<line x1="17.0mm" y1="44.9875mm" x2="21.0mm" y2="44.9875mm" transform="rotate(0 0 0)" />
	<line x1="21.0mm" y1="44.9875mm" x2="21.0mm" y2="36.6666666667mm" transform="rotate(0 0 0)" />
	<line x1="21.0mm" y1="36.6666666667mm" x2="17.0mm" y2="36.6666666667mm" transform="rotate(0 0 0)" />
	<line x1="17.0mm" y1="36.6666666667mm" x2="17.0mm" y2="28.3208333333mm" transform="rotate(0 0 0)" />
	<line x1="17.0mm" y1="28.3208333333mm" x2="21.0mm" y2="28.3208333333mm" transform="rotate(0 0 0)" />
	<line x1="21.0mm" y1="28.3208333333mm" x2="21.0mm" y2="20.0mm" transform="rotate(0 0 0)" />
	<line x1="21.0mm" y1="71.0mm" x2="77.0mm" y2="71.0mm" transform="rotate(0 0 0)" />
	<line x1="77.0mm" y1="71.0mm" x2="82.0mm" y2="96.0mm" transform="rotate(0 0 0)" />
	<line x1="82.0mm" y1="96.0mm" x2="127.0mm" y2="96.0mm" transform="rotate(0 0 0)" />
	<line x1="127.0mm" y1="96.0mm" x2="127.0mm" y2="87.6666666667mm" transform="rotate(0 0 0)" />
	<line x1="127.0mm" y1="87.6666666667mm" x2="133.0mm" y2="87.6666666667mm" transform="rotate(0 0 0)" />
	<line x1="133.0mm" y1="87.6666666667mm" x2="133.0mm" y2="71.0mm" transform="rotate(0 0 0)" />
	<line x1="133.0mm" y1="71.0mm" x2="183.0mm" y2="71.0mm" transform="rotate(0 0 0)" />
	<line x1="183.0mm" y1="71.0mm" x2="183.0mm" y2="96.0mm" transform="rotate(0 0 0)" />
	<line x1="183.0mm" y1="96.0mm" x2="189.0mm" y2="96.0mm" transform="rotate(0 0 0)" />
	<line x1="189.0mm" y1="96.0mm" x2="189.0mm" y2="71.0mm" transform="rotate(0 0 0)" />
	<line x1="189.0mm" y1="71.0mm" x2="239.0mm" y2="71.0mm" transform="rotate(0 0 0)" />
	<line x1="239.0mm" y1="71.0mm" x2="239.0mm" y2="79.3208333333mm" transform="rotate(0 0 0)" />
	<line x1="239.0mm" y1="79.3208333333mm" x2="243.0mm" y2="79.3208333333mm" transform="rotate(0 0 0)" />
	<line x1="243.0mm" y1="79.3208333333mm" x2="243.0mm" y2="87.6666666667mm" transform="rotate(0 0 0)" />
	<line x1="243.0mm" y1="87.6666666667mm" x2="239.0mm" y2="87.6666666667mm" transform="rotate(0 0 0)" />
	<line x1="239.0mm" y1="87.6666666667mm" x2="239.0mm" y2="95.9875mm" transform="rotate(0 0 0)" />
	<line x1="239.0mm" y1="95.9875mm" x2="243.0mm" y2="95.9875mm" transform="rotate(0 0 0)" />
	<line x1="243.0mm" y1="95.9875mm" x2="243.0mm" y2="104.333333333mm" transform="rotate(0 0 0)" />
	<line x1="243.0mm" y1="104.333333333mm" x2="239.0mm" y2="104.333333333mm" transform="rotate(0 0 0)" />
	<line x1="239.0mm" y1="104.333333333mm" x2="239.0mm" y2="112.654166667mm" transform="rotate(0 0 0)" />
	<line x1="239.0mm" y1="112.654166667mm" x2="243.0mm" y2="112.654166667mm" transform="rotate(0 0 0)" />
	<line x1="243.0mm" y1="112.654166667mm" x2="243.0mm" y2="121.0mm" transform="rotate(0 0 0)" />
	<line x1="243.0mm" y1="121.0mm" x2="239.0mm" y2="121.0mm" transform="rotate(0 0 0)" />
	<line x1="239.0mm" y1="121.0mm" x2="133.0mm" y2="121.0mm" transform="rotate(0 0 0)" />
	<line x1="133.0mm" y1="121.0mm" x2="133.0mm" y2="104.333333333mm" transform="rotate(0 0 0)" />
	<line x1="133.0mm" y1="104.333333333mm" x2="127.0mm" y2="104.333333333mm" transform="rotate(0 0 0)" />
	<line x1="127.0mm" y1="104.333333333mm" x2="127.0mm" y2="121.0mm" transform="rotate(0 0 0)" />
	<line x1="127.0mm" y1="121.0mm" x2="77.0mm" y2="121.0mm" transform="rotate(0 0 0)" />
	<line x1="77.0mm" y1="121.0mm" x2="77.0mm" y2="96.0mm" transform="rotate(0 0 0)" />
	<line x1="77.0mm" y1="96.0mm" x2="71.0mm" y2="96.0mm" transform="rotate(0 0 0)" />
	<line x1="71.0mm" y1="96.0mm" x2="71.0mm" y2="121.0mm" transform="rotate(0 0 0)" />
	<line x1="71.0mm" y1="121.0mm" x2="21.0mm" y2="121.0mm" transform="rotate(0 0 0)" />
	<line x1="21.0mm" y1="121.0mm" x2="17.0mm" y2="121.0mm" transform="rotate(0 0 0)" />
	<line x1="17.0mm" y1="121.0mm" x2="17.0mm" y2="112.654166667mm" transform="rotate(0 0 0)" />
	<line x1="17.0mm" y1="112.654166667mm" x2="21.0mm" y2="112.654166667mm" transform="rotate(0 0 0)" />
	<line x1="21.0mm" y1="112.654166667mm" x2="21.0mm" y2="104.333333333mm" transform="rotate(0 0 0)" />
	<line x1="21.0mm" y1="104.333333333mm" x2="17.0mm" y2="104.333333333mm" transform="rotate(0 0 0)" />
	<line x1="17.0mm" y1="104.333333333mm" x2="17.0mm" y2="95.9875mm" transform="rotate(0 0 0)" />
	<line x1="17.0mm" y1="95.9875mm" x2="21.0mm" y2="95.9875mm" transform="rotate(0 0 0)" />
	<line x1="21.0mm" y1="95.9875mm" x2="21.0mm" y2="87.6666666667mm" transform="rotate(0 0 0)" />
	<line x1="21.0mm" y1="87.6666666667mm" x2="17.0mm" y2="87.6666666667mm" transform="rotate(0 0 0)" />
	<line x1="17.0mm" y1="87.6666666667mm" x2="17.0mm" y2="79.3208333333mm" transform="rotate(0 0 0)" />
	<line x1="17.0mm" y1="79.3208333333mm" x2="21.0mm" y2="79.3208333333mm" transform="rotate(0 0 0)" />
	<line x1="21.0mm" y1="79.3208333333mm" x2="21.0mm" y2="71.0mm" transform="rotate(0 0 0)" />
</g>
</svg>
