<?xml version="1.0" encoding="UTF-8" standalone="no"?>
<svg
   xmlns:dc="http://purl.org/dc/elements/1.1/"
   xmlns:cc="http://creativecommons.org/ns#"
   xmlns:rdf="http://www.w3.org/1999/02/22-rdf-syntax-ns#"
   xmlns:svg="http://www.w3.org/2000/svg"
   xmlns="http://www.w3.org/2000/svg"
   xmlns:sodipodi="http://sodipodi.sourceforge.net/DTD/sodipodi-0.dtd"
   xmlns:inkscape="http://www.inkscape.org/namespaces/inkscape"
   height="610mm"
   width="1220mm"
   version="1.1"
   id="svg108"
   sodipodi:docname="sidePart.svg">
  <metadata
     id="metadata114">
    <rdf:RDF>
      <cc:Work
         rdf:about="">
        <dc:format>image/svg+xml</dc:format>
        <dc:type
           rdf:resource="http://purl.org/dc/dcmitype/StillImage" />
        <dc:title></dc:title>
      </cc:Work>
    </rdf:RDF>
  </metadata>
  <defs
     id="defs112" />
  <sodipodi:namedview
     pagecolor="#ffffff"
     bordercolor="#666666"
     borderopacity="1"
     objecttolerance="10"
     gridtolerance="10"
     guidetolerance="10"
     inkscape:pageopacity="0"
     inkscape:pageshadow="2"
     inkscape:window-width="640"
     inkscape:window-height="480"
     id="namedview110"
     showgrid="false"
     inkscape:measure-start="216.491,2286.98"
     inkscape:measure-end="216.491,2104.76"
     inkscape:document-units="mm" />
  <g
     style="fill-opacity:1;stroke:#000000;stroke-width:0.1mm"
     id="g106">
    <line
       x1="18.897638"
       y1="18.897638"
       x2="50.3937"
       y2="18.897638"
       id="line2" />
    <line
       x1="50.3937"
       y1="18.897638"
       x2="50.3937"
       y2="34.015747"
       id="line4" />
    <line
       x1="50.3937"
       y1="34.015747"
       x2="81.889763"
       y2="34.015747"
       id="line6" />
    <line
       x1="81.889763"
       y1="34.015747"
       x2="81.889763"
       y2="18.897638"
       id="line8" />
    <line
       x1="81.889763"
       y1="18.897638"
       x2="113.38583"
       y2="18.897638"
       id="line10" />
    <line
       x1="113.38583"
       y1="18.897638"
       x2="113.38583"
       y2="34.015747"
       id="line12" />
    <line
       x1="113.38583"
       y1="34.015747"
       x2="144.88188"
       y2="34.015747"
       id="line14" />
    <line
       x1="144.88188"
       y1="34.015747"
       x2="144.88188"
       y2="18.897638"
       id="line16" />
    <line
       x1="144.88188"
       y1="18.897638"
       x2="176.37796"
       y2="18.897638"
       id="line18" />
    <line
       x1="176.37796"
       y1="18.897638"
       x2="176.37796"
       y2="34.015747"
       id="line20" />
    <line
       x1="176.37796"
       y1="34.015747"
       x2="207.87401"
       y2="34.015747"
       id="line22" />
    <line
       x1="207.87401"
       y1="34.015747"
       x2="207.87401"
       y2="18.897638"
       id="line24" />
    <line
       x1="207.87401"
       y1="18.897638"
       x2="239.37007"
       y2="18.897638"
       id="line26" />
    <line
       x1="239.37007"
       y1="18.897638"
       x2="239.37007"
       y2="49.133858"
       id="line28" />
    <line
       x1="239.37007"
       y1="49.133858"
       x2="219.2126"
       y2="49.133858"
       id="line30" />
    <line
       x1="219.2126"
       y1="49.133858"
       x2="219.2126"
       y2="74.330704"
       id="line32" />
    <line
       x1="219.2126"
       y1="74.330704"
       x2="239.37007"
       y2="74.330704"
       id="line34" />
    <line
       x1="239.37007"
       y1="74.330704"
       x2="239.37007"
       y2="99.527565"
       id="line36" />
    <line
       x1="239.37007"
       y1="99.527565"
       x2="219.2126"
       y2="99.527565"
       id="line38" />
    <line
       x1="219.2126"
       y1="99.527565"
       x2="219.2126"
       y2="124.72441"
       id="line40" />
    <line
       x1="219.2126"
       y1="124.72441"
       x2="239.37007"
       y2="124.72441"
       id="line42" />
    <line
       x1="239.37007"
       y1="124.72441"
       x2="239.37007"
       y2="149.92126"
       id="line44" />
    <line
       x1="239.37007"
       y1="149.92126"
       x2="219.2126"
       y2="149.92126"
       id="line46" />
    <line
       x1="219.2126"
       y1="149.92126"
       x2="219.2126"
       y2="175.1181"
       id="line48" />
    <line
       x1="219.2126"
       y1="175.1181"
       x2="239.37007"
       y2="175.1181"
       id="line50" />
    <line
       x1="239.37007"
       y1="175.1181"
       x2="239.37007"
       y2="200.31496"
       id="line52" />
    <line
       x1="239.37007"
       y1="200.31496"
       x2="207.87401"
       y2="200.31496"
       id="line54" />
    <line
       x1="207.87401"
       y1="200.31496"
       x2="207.87401"
       y2="185.19685"
       id="line56" />
    <line
       x1="207.87401"
       y1="185.19685"
       x2="176.37796"
       y2="185.19685"
       id="line58" />
    <line
       x1="176.37796"
       y1="185.19685"
       x2="176.37796"
       y2="200.31496"
       id="line60" />
    <line
       x1="176.37796"
       y1="200.31496"
       x2="144.88188"
       y2="200.31496"
       id="line62" />
    <line
       x1="144.88188"
       y1="200.31496"
       x2="144.88188"
       y2="185.19685"
       id="line64" />
    <line
       x1="144.88188"
       y1="185.19685"
       x2="113.38583"
       y2="185.19685"
       id="line66" />
    <line
       x1="113.38583"
       y1="185.19685"
       x2="113.38583"
       y2="200.31496"
       id="line68" />
    <line
       x1="113.38583"
       y1="200.31496"
       x2="81.889763"
       y2="200.31496"
       id="line70" />
    <line
       x1="81.889763"
       y1="200.31496"
       x2="81.889763"
       y2="185.19685"
       id="line72" />
    <line
       x1="81.889763"
       y1="185.19685"
       x2="50.3937"
       y2="185.19685"
       id="line74" />
    <line
       x1="50.3937"
       y1="185.19685"
       x2="50.3937"
       y2="200.31496"
       id="line76" />
    <line
       x1="50.3937"
       y1="200.31496"
       x2="18.897638"
       y2="200.31496"
       id="line78" />
    <line
       x1="18.897638"
       y1="200.31496"
       x2="18.897638"
       y2="175.1181"
       id="line80" />
    <line
       x1="18.897638"
       y1="175.1181"
       x2="39.055119"
       y2="175.1181"
       id="line82" />
    <line
       x1="39.055119"
       y1="175.1181"
       x2="39.055119"
       y2="149.92126"
       id="line84" />
    <line
       x1="39.055119"
       y1="149.92126"
       x2="18.897638"
       y2="149.92126"
       id="line86" />
    <line
       x1="18.897638"
       y1="149.92126"
       x2="18.897638"
       y2="124.72441"
       id="line88" />
    <line
       x1="18.897638"
       y1="124.72441"
       x2="39.055119"
       y2="124.72441"
       id="line90" />
    <line
       x1="39.055119"
       y1="124.72441"
       x2="39.055119"
       y2="99.527565"
       id="line92" />
    <line
       x1="39.055119"
       y1="99.527565"
       x2="18.897638"
       y2="99.527565"
       id="line94" />
    <line
       x1="18.897638"
       y1="99.527565"
       x2="18.897638"
       y2="74.330704"
       id="line96" />
    <line
       x1="18.897638"
       y1="74.330704"
       x2="39.055119"
       y2="74.330704"
       id="line98" />
    <line
       x1="39.055119"
       y1="74.330704"
       x2="39.055119"
       y2="49.133858"
       id="line100" />
    <line
       x1="39.055119"
       y1="49.133858"
       x2="18.897638"
       y2="49.133858"
       id="line102" />
    <line
       x1="18.897638"
       y1="49.133858"
       x2="18.897638"
       y2="23.937008"
       id="line104" />
  </g>
</svg>
