<?xml version="1.0" encoding="UTF-8" standalone="no"?>
<!-- Created with Inkscape (http://www.inkscape.org/) -->

<svg
   xmlns:dc="http://purl.org/dc/elements/1.1/"
   xmlns:cc="http://creativecommons.org/ns#"
   xmlns:rdf="http://www.w3.org/1999/02/22-rdf-syntax-ns#"
   xmlns:svg="http://www.w3.org/2000/svg"
   xmlns="http://www.w3.org/2000/svg"
   xmlns:sodipodi="http://sodipodi.sourceforge.net/DTD/sodipodi-0.dtd"
   xmlns:inkscape="http://www.inkscape.org/namespaces/inkscape"
   width="1220mm"
   height="610mm"
   viewBox="0 0 1220 610"
   version="1.1"
   id="svg30"
   inkscape:version="0.92.2 5c3e80d, 2017-08-06"
   sodipodi:docname="singelHex.svg">
  <defs
     id="defs24" />
  <sodipodi:namedview
     id="base"
     pagecolor="#ffffff"
     bordercolor="#666666"
     borderopacity="1.0"
     inkscape:pageopacity="0.0"
     inkscape:pageshadow="2"
     inkscape:zoom="0.76284532"
     inkscape:cx="709.76487"
     inkscape:cy="2058.1046"
     inkscape:document-units="mm"
     inkscape:current-layer="layer1"
     showgrid="false"
     inkscape:window-width="1680"
     inkscape:window-height="1002"
     inkscape:window-x="9"
     inkscape:window-y="0"
     inkscape:window-maximized="0" />
  <metadata
     id="metadata27">
    <rdf:RDF>
      <cc:Work
         rdf:about="">
        <dc:format>image/svg+xml</dc:format>
        <dc:type
           rdf:resource="http://purl.org/dc/dcmitype/StillImage" />
        <dc:title></dc:title>
      </cc:Work>
    </rdf:RDF>
  </metadata>
  <g
     inkscape:label="Ebene 1"
     inkscape:groupmode="layer"
     id="layer1"
     transform="translate(0,313)">
    <path
       style="fill:none;stroke:#000000;stroke-width:0.46875012"
       inkscape:connector-curvature="0"
       d="m 5.4527679,-266.60463 2.8124999,4.8714 -2.4356965,1.40625 3.2377399,5.60793 2.4356958,-1.40625 3.237741,5.60793 -2.435696,1.40625 3.237739,5.60793 2.435696,-1.40625 3.23774,5.60793 -2.435697,1.40625 3.237742,5.60793 2.435696,-1.40624 2.812504,4.87139 h 5.625 v 2.8125 h 6.475481 v -2.8125 h 6.475476 v 2.8125 h 6.475484 v -2.8125 H 58.7934 v 2.8125 h 6.475476 v -2.8125 h 5.624996 l 2.812505,-4.87139 2.435696,1.40624 3.237738,-5.60792 -2.435696,-1.40626 3.237738,-5.60792 2.435696,1.40624 3.237748,-5.60792 -2.435695,-1.40626 3.237737,-5.60792 2.435696,1.40624 3.237738,-5.60793 -2.435696,-1.40625 2.812497,-4.8714 -2.812505,-4.87139 2.435696,-1.40624 -3.237738,-5.60794 -2.435695,1.40625 -3.237741,-5.60793 2.435696,-1.40625 -3.237746,-5.60792 -2.435696,1.40625 -3.237738,-5.60793 2.435696,-1.40626 -3.237738,-5.60793 -2.435696,1.40625 -2.812497,-4.87139 h -5.624996 v -2.81251 H 58.7934 v 2.81251 h -6.475487 v -2.81251 h -6.475484 v 2.81251 h -6.475476 v -2.81251 h -6.475486 v 2.81251 H 27.26647 l -2.8125,4.87139 -2.435696,-1.40625 -3.237741,5.60793 2.435696,1.40626 -3.23774,5.60793 -2.435696,-1.40625 -3.23774,5.60793 2.435695,1.40625 -3.237739,5.60793 -2.4356963,-1.40625 -3.2377408,5.60793 2.4356959,1.40625 z"
       id="path92" />
    <path
       style="fill:none;stroke:#000000;stroke-width:0.46875012"
       inkscape:connector-curvature="0"
       d="M 5.4527679,-184.63877 H 15.94916 v 2.81249 h 6.47548 v -2.81249 h 6.475481 v 2.81249 H 35.3756 v -2.81249 h 6.475479 v 2.81249 h 6.475483 v -2.81249 h 5.625002 v -4.68751 h 4.871392 v -4.6875 h -4.871392 v -4.6875 h 4.871392 v -4.6875 h -4.871392 v -4.6875 h 4.871392 v -4.6875 h -4.871392 v -4.68749 h 4.871392 v -4.68751 h -4.871392 -5.625002 v -2.8125 h -6.475483 v 2.8125 H 35.3756 v -2.8125 h -6.475479 v 2.8125 H 22.42464 v -2.8125 h -6.47548 v 2.8125 h -5.625 v 4.68751 H 5.4527679 v 4.68749 H 10.32416 v 4.6875 H 5.4527679 v 4.6875 H 10.32416 v 4.6875 H 5.4527679 v 4.6875 H 10.32416 v 4.6875 H 5.4527679 v 4.68751 H 10.32416 Z"
       id="path94" />
    <path
       style="fill:none;stroke:#000000;stroke-width:0.46875012"
       inkscape:connector-curvature="0"
       d="M 5.4527679,-139.92628 H 15.94916 v 2.81251 h 6.47548 v -2.81251 h 6.475481 v 2.81251 H 35.3756 v -2.81251 h 6.475479 v 2.81251 h 6.475483 v -2.81251 h 5.625002 v -4.6875 h 4.871392 v -4.68749 h -4.871392 v -4.68751 h 4.871392 v -4.6875 h -4.871392 v -4.68749 h 4.871392 v -4.6875 h -4.871392 v -4.68751 h 4.871392 v -4.6875 h -4.871392 -5.625002 v -2.81249 h -6.475483 v 2.81249 H 35.3756 v -2.81249 h -6.475479 v 2.81249 H 22.42464 v -2.81249 h -6.47548 v 2.81249 h -5.625 v 4.6875 H 5.4527679 v 4.68751 H 10.32416 v 4.6875 H 5.4527679 v 4.68749 H 10.32416 v 4.6875 H 5.4527679 v 4.68751 H 10.32416 v 4.68749 H 5.4527679 v 4.6875 H 10.32416 Z"
       id="path96" />
    <path
       style="fill:none;stroke:#000000;stroke-width:0.46875012"
       inkscape:connector-curvature="0"
       d="m 59.88129,-184.63876 h 10.496392 v 2.81249 h 6.47548 v -2.81249 h 6.475481 v 2.81249 h 6.475479 v -2.81249 h 6.475479 v 2.81249 h 6.475489 v -2.81249 h 5.625 v -4.68752 h 4.87139 v -4.68749 h -4.87139 v -4.68751 h 4.87139 v -4.6875 h -4.87139 v -4.68749 h 4.87139 v -4.68751 h -4.87139 v -4.6875 h 4.87139 v -4.68749 h -4.87139 -5.625 v -2.8125 h -6.475489 v 2.8125 h -6.475479 v -2.8125 h -6.475479 v 2.8125 h -6.475481 v -2.8125 h -6.47548 v 2.8125 h -5.625 v 4.68749 H 59.88129 v 4.6875 h 4.871392 v 4.68751 H 59.88129 v 4.68749 h 4.871392 v 4.6875 H 59.88129 v 4.68751 h 4.871392 v 4.68749 H 59.88129 v 4.68752 h 4.871392 z"
       id="path100" />
    <path
       style="fill:none;stroke:#000000;stroke-width:0.46875012"
       inkscape:connector-curvature="0"
       d="m 59.88129,-139.92627 h 10.496392 v 2.81252 h 6.47548 v -2.81252 h 6.475481 v 2.81252 h 6.475479 v -2.81252 h 6.475479 v 2.81252 h 6.475489 v -2.81252 h 5.625 v -4.68752 h 4.87139 v -4.68749 h -4.87139 v -4.68749 h 4.87139 v -4.68749 h -4.87139 v -4.68752 h 4.87139 v -4.68749 h -4.87139 v -4.68752 h 4.87139 v -4.68749 h -4.87139 -5.625 v -2.81249 h -6.475489 v 2.81249 h -6.475479 v -2.81249 h -6.475479 v 2.81249 h -6.475481 v -2.81249 h -6.47548 v 2.81249 h -5.625 v 4.68749 H 59.88129 v 4.68752 h 4.871392 v 4.68749 H 59.88129 v 4.68752 h 4.871392 v 4.68749 H 59.88129 v 4.68749 h 4.871392 v 4.68749 H 59.88129 v 4.68752 h 4.871392 z"
       id="path102" />
    <path
       style="fill:none;stroke:#000000;stroke-width:0.46875012"
       inkscape:connector-curvature="0"
       d="m 114.30982,-139.92629 h 10.49639 v 2.81251 h 6.47548 v -2.81251 h 6.47548 v 2.81251 h 6.47548 v -2.81251 h 6.47548 v 2.81251 h 6.47548 v -2.81251 h 5.625 v -4.6875 H 167.68 v -4.68749 h -4.87139 v -4.68751 H 167.68 v -4.6875 h -4.87139 v -4.68749 H 167.68 v -4.6875 h -4.87139 v -4.68751 H 167.68 v -4.6875 h -4.87139 -5.625 v -2.81249 h -6.47548 v 2.81249 h -6.47548 v -2.81249 h -6.47548 v 2.81249 h -6.47548 v -2.81249 h -6.47548 v 2.81249 h -5.625 v 4.6875 h -4.87139 v 4.68751 h 4.87139 v 4.6875 h -4.87139 v 4.68749 h 4.87139 v 4.6875 h -4.87139 v 4.68751 h 4.87139 v 4.68749 h -4.87139 v 4.6875 h 4.87139 z"
       id="path98" />
    <path
       style="fill:none;stroke:#000000;stroke-width:0.46875012"
       inkscape:connector-curvature="0"
       d="m 114.30982,-184.56373 h 10.49639 v 2.81252 h 6.47548 v -2.81252 h 6.47548 v 2.81252 h 6.47548 v -2.81252 h 6.47548 v 2.81252 h 6.47549 v -2.81252 h 5.625 v -4.68751 h 4.87139 v -4.68752 h -4.87139 v -4.68747 h 4.87139 v -4.68749 h -4.87139 v -4.68751 h 4.87139 v -4.68749 h -4.87139 v -4.68752 h 4.87139 v -4.68749 h -4.87139 -5.625 v -2.8125 h -6.47549 v 2.8125 h -6.47548 v -2.8125 h -6.47548 v 2.8125 h -6.47548 v -2.8125 h -6.47548 v 2.8125 h -5.625 v 4.68749 h -4.87139 v 4.68752 h 4.87139 v 4.68749 h -4.87139 v 4.68751 h 4.87139 v 4.68749 h -4.87139 v 4.68747 h 4.87139 v 4.68752 h -4.87139 v 4.68751 h 4.87139 z"
       id="path104" />
    <path
       id="path55"
       d="m 94.19251,-267.05869 2.812498,4.8714 -2.435695,1.40625 3.237742,5.60793 2.435675,-1.40625 3.23774,5.60793 -2.43569,1.40625 3.23774,5.60793 2.43569,-1.40625 3.23774,5.60793 -2.4357,1.40625 3.23775,5.60793 2.43569,-1.40624 2.81251,4.87139 h 5.625 v 2.8125 h 6.47548 v -2.8125 h 6.47547 v 2.8125 h 6.47549 v -2.8125 h 6.47548 v 2.8125 h 6.47548 v -2.8125 h 5.625 l 2.8125,-4.87139 2.4357,1.40624 3.23773,-5.60792 -2.43569,-1.40626 3.23774,-5.60792 2.43569,1.40624 3.23775,-5.60792 -2.43569,-1.40626 3.23773,-5.60792 2.4357,1.40624 3.23774,-5.60793 -2.4357,-1.40625 2.8125,-4.8714 -2.81251,-4.87139 2.4357,-1.40624 -3.23774,-5.60794 -2.43569,1.40625 -3.23775,-5.60793 2.4357,-1.40625 -3.23775,-5.60792 -2.43569,1.40625 -3.23774,-5.60793 2.4357,-1.40626 -3.23774,-5.60793 -2.4357,1.40625 -2.81249,-4.87139 h -5.625 v -2.81251 h -6.47548 v 2.81251 h -6.47548 v -2.81251 h -6.47549 v 2.81251 h -6.47547 v -2.81251 h -6.47549 v 2.81251 h -5.625 l -2.8125,4.87139 -2.43569,-1.40625 -3.23774,5.60793 2.43569,1.40626 -3.23774,5.60793 -2.43569,-1.40625 -3.23774,5.60793 2.43569,1.40625 -3.23774,5.60793 -2.435675,-1.40625 -3.237741,5.60793 2.435694,1.40625 z"
       inkscape:connector-curvature="0"
       style="fill:none;stroke:#000000;stroke-width:0.46875012" />
  </g>
</svg>
