<?xml version="1.0"?>
<svg height="610mm" width="1220mm" >
 <g style="fill-opacity:1.0; stroke:black;
  stroke-width:0.1mm;">
	<line x1="9.0mm" y1="5.0mm" x2="71.0mm" y2="5.0mm" transform="rotate(0 0 0)" />
	<line x1="71.0mm" y1="5.0mm" x2="76.0mm" y2="17.5mm" transform="rotate(0 0 0)" />
	<line x1="76.0mm" y1="17.5mm" x2="91.0mm" y2="17.5mm" transform="rotate(0 0 0)" />
	<line x1="91.0mm" y1="17.5mm" x2="96.0mm" y2="5.0mm" transform="rotate(0 0 0)" />
	<line x1="96.0mm" y1="5.0mm" x2="127.0mm" y2="5.0mm" transform="rotate(0 0 0)" />
	<line x1="127.0mm" y1="5.0mm" x2="127.0mm" y2="9.15416666667mm" transform="rotate(0 0 0)" />
	<line x1="127.0mm" y1="9.15416666667mm" x2="131.0mm" y2="9.15416666667mm" transform="rotate(0 0 0)" />
	<line x1="131.0mm" y1="9.15416666667mm" x2="131.0mm" y2="13.3333333333mm" transform="rotate(0 0 0)" />
	<line x1="131.0mm" y1="13.3333333333mm" x2="127.0mm" y2="13.3333333333mm" transform="rotate(0 0 0)" />
	<line x1="127.0mm" y1="13.3333333333mm" x2="127.0mm" y2="17.4875mm" transform="rotate(0 0 0)" />
	<line x1="127.0mm" y1="17.4875mm" x2="131.0mm" y2="17.4875mm" transform="rotate(0 0 0)" />
	<line x1="131.0mm" y1="17.4875mm" x2="131.0mm" y2="21.6666666667mm" transform="rotate(0 0 0)" />
	<line x1="131.0mm" y1="21.6666666667mm" x2="127.0mm" y2="21.6666666667mm" transform="rotate(0 0 0)" />
	<line x1="127.0mm" y1="21.6666666667mm" x2="127.0mm" y2="25.8208333333mm" transform="rotate(0 0 0)" />
	<line x1="127.0mm" y1="25.8208333333mm" x2="131.0mm" y2="25.8208333333mm" transform="rotate(0 0 0)" />
	<line x1="131.0mm" y1="25.8208333333mm" x2="131.0mm" y2="30.0mm" transform="rotate(0 0 0)" />
	<line x1="131.0mm" y1="30.0mm" x2="127.0mm" y2="30.0mm" transform="rotate(0 0 0)" />
	<line x1="127.0mm" y1="30.0mm" x2="102.0mm" y2="30.0mm" transform="rotate(0 0 0)" />
	<line x1="102.0mm" y1="30.0mm" x2="102.0mm" y2="17.5mm" transform="rotate(0 0 0)" />
	<line x1="102.0mm" y1="17.5mm" x2="96.0mm" y2="17.5mm" transform="rotate(0 0 0)" />
	<line x1="96.0mm" y1="17.5mm" x2="96.0mm" y2="30.0mm" transform="rotate(0 0 0)" />
	<line x1="96.0mm" y1="30.0mm" x2="71.0mm" y2="30.0mm" transform="rotate(0 0 0)" />
	<line x1="71.0mm" y1="30.0mm" x2="71.0mm" y2="13.3333333333mm" transform="rotate(0 0 0)" />
	<line x1="71.0mm" y1="13.3333333333mm" x2="65.0mm" y2="13.3333333333mm" transform="rotate(0 0 0)" />
	<line x1="65.0mm" y1="13.3333333333mm" x2="65.0mm" y2="30.0mm" transform="rotate(0 0 0)" />
	<line x1="65.0mm" y1="30.0mm" x2="40.0mm" y2="30.0mm" transform="rotate(0 0 0)" />
	<line x1="40.0mm" y1="30.0mm" x2="40.0mm" y2="17.5mm" transform="rotate(0 0 0)" />
	<line x1="40.0mm" y1="17.5mm" x2="34.0mm" y2="17.5mm" transform="rotate(0 0 0)" />
	<line x1="34.0mm" y1="17.5mm" x2="34.0mm" y2="30.0mm" transform="rotate(0 0 0)" />
	<line x1="34.0mm" y1="30.0mm" x2="9.0mm" y2="30.0mm" transform="rotate(0 0 0)" />
	<line x1="9.0mm" y1="30.0mm" x2="5.0mm" y2="30.0mm" transform="rotate(0 0 0)" />
	<line x1="5.0mm" y1="30.0mm" x2="5.0mm" y2="25.8208333333mm" transform="rotate(0 0 0)" />
	<line x1="5.0mm" y1="25.8208333333mm" x2="9.0mm" y2="25.8208333333mm" transform="rotate(0 0 0)" />
	<line x1="9.0mm" y1="25.8208333333mm" x2="9.0mm" y2="21.6666666667mm" transform="rotate(0 0 0)" />
	<line x1="9.0mm" y1="21.6666666667mm" x2="5.0mm" y2="21.6666666667mm" transform="rotate(0 0 0)" />
	<line x1="5.0mm" y1="21.6666666667mm" x2="5.0mm" y2="17.4875mm" transform="rotate(0 0 0)" />
	<line x1="5.0mm" y1="17.4875mm" x2="9.0mm" y2="17.4875mm" transform="rotate(0 0 0)" />
	<line x1="9.0mm" y1="17.4875mm" x2="9.0mm" y2="13.3333333333mm" transform="rotate(0 0 0)" />
	<line x1="9.0mm" y1="13.3333333333mm" x2="5.0mm" y2="13.3333333333mm" transform="rotate(0 0 0)" />
	<line x1="5.0mm" y1="13.3333333333mm" x2="5.0mm" y2="9.15416666667mm" transform="rotate(0 0 0)" />
	<line x1="5.0mm" y1="9.15416666667mm" x2="9.0mm" y2="9.15416666667mm" transform="rotate(0 0 0)" />
	<line x1="9.0mm" y1="9.15416666667mm" x2="9.0mm" y2="5.0mm" transform="rotate(0 0 0)" />
	<line x1="132.0mm" y1="5.0mm" x2="171.0mm" y2="5.0mm" transform="rotate(0 0 0)" />
	<line x1="171.0mm" y1="5.0mm" x2="171.0mm" y2="9.15416666667mm" transform="rotate(0 0 0)" />
	<line x1="171.0mm" y1="9.15416666667mm" x2="167.0mm" y2="9.15416666667mm" transform="rotate(0 0 0)" />
	<line x1="167.0mm" y1="9.15416666667mm" x2="167.0mm" y2="13.3333333333mm" transform="rotate(0 0 0)" />
	<line x1="167.0mm" y1="13.3333333333mm" x2="171.0mm" y2="13.3333333333mm" transform="rotate(0 0 0)" />
	<line x1="171.0mm" y1="13.3333333333mm" x2="171.0mm" y2="17.4875mm" transform="rotate(0 0 0)" />
	<line x1="171.0mm" y1="17.4875mm" x2="167.0mm" y2="17.4875mm" transform="rotate(0 0 0)" />
	<line x1="167.0mm" y1="17.4875mm" x2="167.0mm" y2="21.6666666667mm" transform="rotate(0 0 0)" />
	<line x1="167.0mm" y1="21.6666666667mm" x2="171.0mm" y2="21.6666666667mm" transform="rotate(0 0 0)" />
	<line x1="171.0mm" y1="21.6666666667mm" x2="171.0mm" y2="25.8208333333mm" transform="rotate(0 0 0)" />
	<line x1="171.0mm" y1="25.8208333333mm" x2="167.0mm" y2="25.8208333333mm" transform="rotate(0 0 0)" />
	<line x1="167.0mm" y1="25.8208333333mm" x2="167.0mm" y2="30.0mm" transform="rotate(0 0 0)" />
	<line x1="167.0mm" y1="30.0mm" x2="136.0mm" y2="30.0mm" transform="rotate(0 0 0)" />
	<line x1="136.0mm" y1="30.0mm" x2="136.0mm" y2="25.8208333333mm" transform="rotate(0 0 0)" />
	<line x1="136.0mm" y1="25.8208333333mm" x2="132.0mm" y2="25.8208333333mm" transform="rotate(0 0 0)" />
	<line x1="132.0mm" y1="25.8208333333mm" x2="132.0mm" y2="21.6666666667mm" transform="rotate(0 0 0)" />
	<line x1="132.0mm" y1="21.6666666667mm" x2="136.0mm" y2="21.6666666667mm" transform="rotate(0 0 0)" />
	<line x1="136.0mm" y1="21.6666666667mm" x2="136.0mm" y2="17.4875mm" transform="rotate(0 0 0)" />
	<line x1="136.0mm" y1="17.4875mm" x2="132.0mm" y2="17.4875mm" transform="rotate(0 0 0)" />
	<line x1="132.0mm" y1="17.4875mm" x2="132.0mm" y2="13.3333333333mm" transform="rotate(0 0 0)" />
	<line x1="132.0mm" y1="13.3333333333mm" x2="136.0mm" y2="13.3333333333mm" transform="rotate(0 0 0)" />
	<line x1="136.0mm" y1="13.3333333333mm" x2="136.0mm" y2="9.15416666667mm" transform="rotate(0 0 0)" />
	<line x1="136.0mm" y1="9.15416666667mm" x2="132.0mm" y2="9.15416666667mm" transform="rotate(0 0 0)" />
	<line x1="132.0mm" y1="9.15416666667mm" x2="132.0mm" y2="5.0mm" transform="rotate(0 0 0)" />
	<line x1="9.0mm" y1="31.0mm" x2="40.0mm" y2="31.0mm" transform="rotate(0 0 0)" />
	<line x1="40.0mm" y1="31.0mm" x2="45.0mm" y2="43.5mm" transform="rotate(0 0 0)" />
	<line x1="45.0mm" y1="43.5mm" x2="60.0mm" y2="43.5mm" transform="rotate(0 0 0)" />
	<line x1="60.0mm" y1="43.5mm" x2="65.0mm" y2="31.0mm" transform="rotate(0 0 0)" />
	<line x1="65.0mm" y1="31.0mm" x2="133.0mm" y2="31.0mm" transform="rotate(0 0 0)" />
	<line x1="133.0mm" y1="31.0mm" x2="138.0mm" y2="43.5mm" transform="rotate(0 0 0)" />
	<line x1="138.0mm" y1="43.5mm" x2="158.0mm" y2="43.5mm" transform="rotate(0 0 0)" />
	<line x1="158.0mm" y1="43.5mm" x2="158.0mm" y2="56.0mm" transform="rotate(0 0 0)" />
	<line x1="158.0mm" y1="56.0mm" x2="133.0mm" y2="56.0mm" transform="rotate(0 0 0)" />
	<line x1="133.0mm" y1="56.0mm" x2="133.0mm" y2="39.3333333333mm" transform="rotate(0 0 0)" />
	<line x1="133.0mm" y1="39.3333333333mm" x2="127.0mm" y2="39.3333333333mm" transform="rotate(0 0 0)" />
	<line x1="127.0mm" y1="39.3333333333mm" x2="127.0mm" y2="56.0mm" transform="rotate(0 0 0)" />
	<line x1="127.0mm" y1="56.0mm" x2="102.0mm" y2="56.0mm" transform="rotate(0 0 0)" />
	<line x1="102.0mm" y1="56.0mm" x2="102.0mm" y2="39.3333333333mm" transform="rotate(0 0 0)" />
	<line x1="102.0mm" y1="39.3333333333mm" x2="96.0mm" y2="39.3333333333mm" transform="rotate(0 0 0)" />
	<line x1="96.0mm" y1="39.3333333333mm" x2="96.0mm" y2="56.0mm" transform="rotate(0 0 0)" />
	<line x1="96.0mm" y1="56.0mm" x2="71.0mm" y2="56.0mm" transform="rotate(0 0 0)" />
	<line x1="71.0mm" y1="56.0mm" x2="71.0mm" y2="39.3333333333mm" transform="rotate(0 0 0)" />
	<line x1="71.0mm" y1="39.3333333333mm" x2="65.0mm" y2="39.3333333333mm" transform="rotate(0 0 0)" />
	<line x1="65.0mm" y1="39.3333333333mm" x2="65.0mm" y2="56.0mm" transform="rotate(0 0 0)" />
	<line x1="65.0mm" y1="56.0mm" x2="40.0mm" y2="56.0mm" transform="rotate(0 0 0)" />
	<line x1="40.0mm" y1="56.0mm" x2="40.0mm" y2="39.3333333333mm" transform="rotate(0 0 0)" />
	<line x1="40.0mm" y1="39.3333333333mm" x2="34.0mm" y2="39.3333333333mm" transform="rotate(0 0 0)" />
	<line x1="34.0mm" y1="39.3333333333mm" x2="34.0mm" y2="56.0mm" transform="rotate(0 0 0)" />
	<line x1="34.0mm" y1="56.0mm" x2="9.0mm" y2="56.0mm" transform="rotate(0 0 0)" />
	<line x1="9.0mm" y1="56.0mm" x2="9.0mm" y2="31.0mm" transform="rotate(0 0 0)" />
	<line x1="9.0mm" y1="57.0mm" x2="71.0mm" y2="57.0mm" transform="rotate(0 0 0)" />
	<line x1="71.0mm" y1="57.0mm" x2="76.0mm" y2="69.5mm" transform="rotate(0 0 0)" />
	<line x1="76.0mm" y1="69.5mm" x2="91.0mm" y2="69.5mm" transform="rotate(0 0 0)" />
	<line x1="91.0mm" y1="69.5mm" x2="96.0mm" y2="57.0mm" transform="rotate(0 0 0)" />
	<line x1="96.0mm" y1="57.0mm" x2="127.0mm" y2="57.0mm" transform="rotate(0 0 0)" />
	<line x1="127.0mm" y1="57.0mm" x2="127.0mm" y2="82.0mm" transform="rotate(0 0 0)" />
	<line x1="127.0mm" y1="82.0mm" x2="102.0mm" y2="82.0mm" transform="rotate(0 0 0)" />
	<line x1="102.0mm" y1="82.0mm" x2="102.0mm" y2="65.3333333333mm" transform="rotate(0 0 0)" />
	<line x1="102.0mm" y1="65.3333333333mm" x2="96.0mm" y2="65.3333333333mm" transform="rotate(0 0 0)" />
	<line x1="96.0mm" y1="65.3333333333mm" x2="96.0mm" y2="82.0mm" transform="rotate(0 0 0)" />
	<line x1="96.0mm" y1="82.0mm" x2="71.0mm" y2="82.0mm" transform="rotate(0 0 0)" />
	<line x1="71.0mm" y1="82.0mm" x2="71.0mm" y2="65.3333333333mm" transform="rotate(0 0 0)" />
	<line x1="71.0mm" y1="65.3333333333mm" x2="65.0mm" y2="65.3333333333mm" transform="rotate(0 0 0)" />
	<line x1="65.0mm" y1="65.3333333333mm" x2="65.0mm" y2="82.0mm" transform="rotate(0 0 0)" />
	<line x1="65.0mm" y1="82.0mm" x2="40.0mm" y2="82.0mm" transform="rotate(0 0 0)" />
	<line x1="40.0mm" y1="82.0mm" x2="40.0mm" y2="65.3333333333mm" transform="rotate(0 0 0)" />
	<line x1="40.0mm" y1="65.3333333333mm" x2="34.0mm" y2="65.3333333333mm" transform="rotate(0 0 0)" />
	<line x1="34.0mm" y1="65.3333333333mm" x2="34.0mm" y2="82.0mm" transform="rotate(0 0 0)" />
	<line x1="34.0mm" y1="82.0mm" x2="9.0mm" y2="82.0mm" transform="rotate(0 0 0)" />
	<line x1="9.0mm" y1="82.0mm" x2="9.0mm" y2="57.0mm" transform="rotate(0 0 0)" />
	<line x1="128.0mm" y1="57.0mm" x2="167.0mm" y2="57.0mm" transform="rotate(0 0 0)" />
	<line x1="167.0mm" y1="57.0mm" x2="167.0mm" y2="61.1541666667mm" transform="rotate(0 0 0)" />
	<line x1="167.0mm" y1="61.1541666667mm" x2="163.0mm" y2="61.1541666667mm" transform="rotate(0 0 0)" />
	<line x1="163.0mm" y1="61.1541666667mm" x2="163.0mm" y2="65.3333333333mm" transform="rotate(0 0 0)" />
	<line x1="163.0mm" y1="65.3333333333mm" x2="167.0mm" y2="65.3333333333mm" transform="rotate(0 0 0)" />
	<line x1="167.0mm" y1="65.3333333333mm" x2="167.0mm" y2="69.4875mm" transform="rotate(0 0 0)" />
	<line x1="167.0mm" y1="69.4875mm" x2="163.0mm" y2="69.4875mm" transform="rotate(0 0 0)" />
	<line x1="163.0mm" y1="69.4875mm" x2="163.0mm" y2="73.6666666667mm" transform="rotate(0 0 0)" />
	<line x1="163.0mm" y1="73.6666666667mm" x2="167.0mm" y2="73.6666666667mm" transform="rotate(0 0 0)" />
	<line x1="167.0mm" y1="73.6666666667mm" x2="167.0mm" y2="77.8208333333mm" transform="rotate(0 0 0)" />
	<line x1="167.0mm" y1="77.8208333333mm" x2="163.0mm" y2="77.8208333333mm" transform="rotate(0 0 0)" />
	<line x1="163.0mm" y1="77.8208333333mm" x2="163.0mm" y2="82.0mm" transform="rotate(0 0 0)" />
	<line x1="163.0mm" y1="82.0mm" x2="132.0mm" y2="82.0mm" transform="rotate(0 0 0)" />
	<line x1="132.0mm" y1="82.0mm" x2="132.0mm" y2="77.8208333333mm" transform="rotate(0 0 0)" />
	<line x1="132.0mm" y1="77.8208333333mm" x2="128.0mm" y2="77.8208333333mm" transform="rotate(0 0 0)" />
	<line x1="128.0mm" y1="77.8208333333mm" x2="128.0mm" y2="73.6666666667mm" transform="rotate(0 0 0)" />
	<line x1="128.0mm" y1="73.6666666667mm" x2="132.0mm" y2="73.6666666667mm" transform="rotate(0 0 0)" />
	<line x1="132.0mm" y1="73.6666666667mm" x2="132.0mm" y2="69.4875mm" transform="rotate(0 0 0)" />
	<line x1="132.0mm" y1="69.4875mm" x2="128.0mm" y2="69.4875mm" transform="rotate(0 0 0)" />
	<line x1="128.0mm" y1="69.4875mm" x2="128.0mm" y2="65.3333333333mm" transform="rotate(0 0 0)" />
	<line x1="128.0mm" y1="65.3333333333mm" x2="132.0mm" y2="65.3333333333mm" transform="rotate(0 0 0)" />
	<line x1="132.0mm" y1="65.3333333333mm" x2="132.0mm" y2="61.1541666667mm" transform="rotate(0 0 0)" />
	<line x1="132.0mm" y1="61.1541666667mm" x2="128.0mm" y2="61.1541666667mm" transform="rotate(0 0 0)" />
	<line x1="128.0mm" y1="61.1541666667mm" x2="128.0mm" y2="57.0mm" transform="rotate(0 0 0)" />
	<line x1="9.0mm" y1="83.0mm" x2="40.0mm" y2="83.0mm" transform="rotate(0 0 0)" />
	<line x1="40.0mm" y1="83.0mm" x2="45.0mm" y2="95.5mm" transform="rotate(0 0 0)" />
	<line x1="45.0mm" y1="95.5mm" x2="60.0mm" y2="95.5mm" transform="rotate(0 0 0)" />
	<line x1="60.0mm" y1="95.5mm" x2="65.0mm" y2="83.0mm" transform="rotate(0 0 0)" />
	<line x1="65.0mm" y1="83.0mm" x2="133.0mm" y2="83.0mm" transform="rotate(0 0 0)" />
	<line x1="133.0mm" y1="83.0mm" x2="138.0mm" y2="95.5mm" transform="rotate(0 0 0)" />
	<line x1="138.0mm" y1="95.5mm" x2="158.0mm" y2="95.5mm" transform="rotate(0 0 0)" />
	<line x1="158.0mm" y1="95.5mm" x2="158.0mm" y2="108.0mm" transform="rotate(0 0 0)" />
	<line x1="158.0mm" y1="108.0mm" x2="133.0mm" y2="108.0mm" transform="rotate(0 0 0)" />
	<line x1="133.0mm" y1="108.0mm" x2="133.0mm" y2="91.3333333333mm" transform="rotate(0 0 0)" />
	<line x1="133.0mm" y1="91.3333333333mm" x2="127.0mm" y2="91.3333333333mm" transform="rotate(0 0 0)" />
	<line x1="127.0mm" y1="91.3333333333mm" x2="127.0mm" y2="108.0mm" transform="rotate(0 0 0)" />
	<line x1="127.0mm" y1="108.0mm" x2="102.0mm" y2="108.0mm" transform="rotate(0 0 0)" />
	<line x1="102.0mm" y1="108.0mm" x2="102.0mm" y2="91.3333333333mm" transform="rotate(0 0 0)" />
	<line x1="102.0mm" y1="91.3333333333mm" x2="96.0mm" y2="91.3333333333mm" transform="rotate(0 0 0)" />
	<line x1="96.0mm" y1="91.3333333333mm" x2="96.0mm" y2="108.0mm" transform="rotate(0 0 0)" />
	<line x1="96.0mm" y1="108.0mm" x2="71.0mm" y2="108.0mm" transform="rotate(0 0 0)" />
	<line x1="71.0mm" y1="108.0mm" x2="71.0mm" y2="91.3333333333mm" transform="rotate(0 0 0)" />
	<line x1="71.0mm" y1="91.3333333333mm" x2="65.0mm" y2="91.3333333333mm" transform="rotate(0 0 0)" />
	<line x1="65.0mm" y1="91.3333333333mm" x2="65.0mm" y2="108.0mm" transform="rotate(0 0 0)" />
	<line x1="65.0mm" y1="108.0mm" x2="40.0mm" y2="108.0mm" transform="rotate(0 0 0)" />
	<line x1="40.0mm" y1="108.0mm" x2="40.0mm" y2="91.3333333333mm" transform="rotate(0 0 0)" />
	<line x1="40.0mm" y1="91.3333333333mm" x2="34.0mm" y2="91.3333333333mm" transform="rotate(0 0 0)" />
	<line x1="34.0mm" y1="91.3333333333mm" x2="34.0mm" y2="108.0mm" transform="rotate(0 0 0)" />
	<line x1="34.0mm" y1="108.0mm" x2="9.0mm" y2="108.0mm" transform="rotate(0 0 0)" />
	<line x1="9.0mm" y1="108.0mm" x2="9.0mm" y2="83.0mm" transform="rotate(0 0 0)" />
	<line x1="9.0mm" y1="109.0mm" x2="71.0mm" y2="109.0mm" transform="rotate(0 0 0)" />
	<line x1="71.0mm" y1="109.0mm" x2="76.0mm" y2="121.5mm" transform="rotate(0 0 0)" />
	<line x1="76.0mm" y1="121.5mm" x2="91.0mm" y2="121.5mm" transform="rotate(0 0 0)" />
	<line x1="91.0mm" y1="121.5mm" x2="96.0mm" y2="109.0mm" transform="rotate(0 0 0)" />
	<line x1="96.0mm" y1="109.0mm" x2="127.0mm" y2="109.0mm" transform="rotate(0 0 0)" />
	<line x1="127.0mm" y1="109.0mm" x2="127.0mm" y2="113.154166667mm" transform="rotate(0 0 0)" />
	<line x1="127.0mm" y1="113.154166667mm" x2="131.0mm" y2="113.154166667mm" transform="rotate(0 0 0)" />
	<line x1="131.0mm" y1="113.154166667mm" x2="131.0mm" y2="117.333333333mm" transform="rotate(0 0 0)" />
	<line x1="131.0mm" y1="117.333333333mm" x2="127.0mm" y2="117.333333333mm" transform="rotate(0 0 0)" />
	<line x1="127.0mm" y1="117.333333333mm" x2="127.0mm" y2="121.4875mm" transform="rotate(0 0 0)" />
	<line x1="127.0mm" y1="121.4875mm" x2="131.0mm" y2="121.4875mm" transform="rotate(0 0 0)" />
	<line x1="131.0mm" y1="121.4875mm" x2="131.0mm" y2="125.666666667mm" transform="rotate(0 0 0)" />
	<line x1="131.0mm" y1="125.666666667mm" x2="127.0mm" y2="125.666666667mm" transform="rotate(0 0 0)" />
	<line x1="127.0mm" y1="125.666666667mm" x2="127.0mm" y2="129.820833333mm" transform="rotate(0 0 0)" />
	<line x1="127.0mm" y1="129.820833333mm" x2="131.0mm" y2="129.820833333mm" transform="rotate(0 0 0)" />
	<line x1="131.0mm" y1="129.820833333mm" x2="131.0mm" y2="134.0mm" transform="rotate(0 0 0)" />
	<line x1="131.0mm" y1="134.0mm" x2="127.0mm" y2="134.0mm" transform="rotate(0 0 0)" />
	<line x1="127.0mm" y1="134.0mm" x2="102.0mm" y2="134.0mm" transform="rotate(0 0 0)" />
	<line x1="102.0mm" y1="134.0mm" x2="102.0mm" y2="121.5mm" transform="rotate(0 0 0)" />
	<line x1="102.0mm" y1="121.5mm" x2="96.0mm" y2="121.5mm" transform="rotate(0 0 0)" />
	<line x1="96.0mm" y1="121.5mm" x2="96.0mm" y2="134.0mm" transform="rotate(0 0 0)" />
	<line x1="96.0mm" y1="134.0mm" x2="71.0mm" y2="134.0mm" transform="rotate(0 0 0)" />
	<line x1="71.0mm" y1="134.0mm" x2="71.0mm" y2="117.333333333mm" transform="rotate(0 0 0)" />
	<line x1="71.0mm" y1="117.333333333mm" x2="65.0mm" y2="117.333333333mm" transform="rotate(0 0 0)" />
	<line x1="65.0mm" y1="117.333333333mm" x2="65.0mm" y2="134.0mm" transform="rotate(0 0 0)" />
	<line x1="65.0mm" y1="134.0mm" x2="40.0mm" y2="134.0mm" transform="rotate(0 0 0)" />
	<line x1="40.0mm" y1="134.0mm" x2="40.0mm" y2="121.5mm" transform="rotate(0 0 0)" />
	<line x1="40.0mm" y1="121.5mm" x2="34.0mm" y2="121.5mm" transform="rotate(0 0 0)" />
	<line x1="34.0mm" y1="121.5mm" x2="34.0mm" y2="134.0mm" transform="rotate(0 0 0)" />
	<line x1="34.0mm" y1="134.0mm" x2="9.0mm" y2="134.0mm" transform="rotate(0 0 0)" />
	<line x1="9.0mm" y1="134.0mm" x2="5.0mm" y2="134.0mm" transform="rotate(0 0 0)" />
	<line x1="5.0mm" y1="134.0mm" x2="5.0mm" y2="129.820833333mm" transform="rotate(0 0 0)" />
	<line x1="5.0mm" y1="129.820833333mm" x2="9.0mm" y2="129.820833333mm" transform="rotate(0 0 0)" />
	<line x1="9.0mm" y1="129.820833333mm" x2="9.0mm" y2="125.666666667mm" transform="rotate(0 0 0)" />
	<line x1="9.0mm" y1="125.666666667mm" x2="5.0mm" y2="125.666666667mm" transform="rotate(0 0 0)" />
	<line x1="5.0mm" y1="125.666666667mm" x2="5.0mm" y2="121.4875mm" transform="rotate(0 0 0)" />
	<line x1="5.0mm" y1="121.4875mm" x2="9.0mm" y2="121.4875mm" transform="rotate(0 0 0)" />
	<line x1="9.0mm" y1="121.4875mm" x2="9.0mm" y2="117.333333333mm" transform="rotate(0 0 0)" />
	<line x1="9.0mm" y1="117.333333333mm" x2="5.0mm" y2="117.333333333mm" transform="rotate(0 0 0)" />
	<line x1="5.0mm" y1="117.333333333mm" x2="5.0mm" y2="113.154166667mm" transform="rotate(0 0 0)" />
	<line x1="5.0mm" y1="113.154166667mm" x2="9.0mm" y2="113.154166667mm" transform="rotate(0 0 0)" />
	<line x1="9.0mm" y1="113.154166667mm" x2="9.0mm" y2="109.0mm" transform="rotate(0 0 0)" />
	<line x1="132.0mm" y1="109.0mm" x2="171.0mm" y2="109.0mm" transform="rotate(0 0 0)" />
	<line x1="171.0mm" y1="109.0mm" x2="171.0mm" y2="113.154166667mm" transform="rotate(0 0 0)" />
	<line x1="171.0mm" y1="113.154166667mm" x2="167.0mm" y2="113.154166667mm" transform="rotate(0 0 0)" />
	<line x1="167.0mm" y1="113.154166667mm" x2="167.0mm" y2="117.333333333mm" transform="rotate(0 0 0)" />
	<line x1="167.0mm" y1="117.333333333mm" x2="171.0mm" y2="117.333333333mm" transform="rotate(0 0 0)" />
	<line x1="171.0mm" y1="117.333333333mm" x2="171.0mm" y2="121.4875mm" transform="rotate(0 0 0)" />
	<line x1="171.0mm" y1="121.4875mm" x2="167.0mm" y2="121.4875mm" transform="rotate(0 0 0)" />
	<line x1="167.0mm" y1="121.4875mm" x2="167.0mm" y2="125.666666667mm" transform="rotate(0 0 0)" />
	<line x1="167.0mm" y1="125.666666667mm" x2="171.0mm" y2="125.666666667mm" transform="rotate(0 0 0)" />
	<line x1="171.0mm" y1="125.666666667mm" x2="171.0mm" y2="129.820833333mm" transform="rotate(0 0 0)" />
	<line x1="171.0mm" y1="129.820833333mm" x2="167.0mm" y2="129.820833333mm" transform="rotate(0 0 0)" />
	<line x1="167.0mm" y1="129.820833333mm" x2="167.0mm" y2="134.0mm" transform="rotate(0 0 0)" />
	<line x1="167.0mm" y1="134.0mm" x2="136.0mm" y2="134.0mm" transform="rotate(0 0 0)" />
	<line x1="136.0mm" y1="134.0mm" x2="136.0mm" y2="129.820833333mm" transform="rotate(0 0 0)" />
	<line x1="136.0mm" y1="129.820833333mm" x2="132.0mm" y2="129.820833333mm" transform="rotate(0 0 0)" />
	<line x1="132.0mm" y1="129.820833333mm" x2="132.0mm" y2="125.666666667mm" transform="rotate(0 0 0)" />
	<line x1="132.0mm" y1="125.666666667mm" x2="136.0mm" y2="125.666666667mm" transform="rotate(0 0 0)" />
	<line x1="136.0mm" y1="125.666666667mm" x2="136.0mm" y2="121.4875mm" transform="rotate(0 0 0)" />
	<line x1="136.0mm" y1="121.4875mm" x2="132.0mm" y2="121.4875mm" transform="rotate(0 0 0)" />
	<line x1="132.0mm" y1="121.4875mm" x2="132.0mm" y2="117.333333333mm" transform="rotate(0 0 0)" />
	<line x1="132.0mm" y1="117.333333333mm" x2="136.0mm" y2="117.333333333mm" transform="rotate(0 0 0)" />
	<line x1="136.0mm" y1="117.333333333mm" x2="136.0mm" y2="113.154166667mm" transform="rotate(0 0 0)" />
	<line x1="136.0mm" y1="113.154166667mm" x2="132.0mm" y2="113.154166667mm" transform="rotate(0 0 0)" />
	<line x1="132.0mm" y1="113.154166667mm" x2="132.0mm" y2="109.0mm" transform="rotate(0 0 0)" />
	<line x1="9.0mm" y1="135.0mm" x2="40.0mm" y2="135.0mm" transform="rotate(0 0 0)" />
	<line x1="40.0mm" y1="135.0mm" x2="45.0mm" y2="147.5mm" transform="rotate(0 0 0)" />
	<line x1="45.0mm" y1="147.5mm" x2="65.0mm" y2="147.5mm" transform="rotate(0 0 0)" />
	<line x1="65.0mm" y1="147.5mm" x2="65.0mm" y2="143.333333333mm" transform="rotate(0 0 0)" />
	<line x1="65.0mm" y1="143.333333333mm" x2="71.0mm" y2="143.333333333mm" transform="rotate(0 0 0)" />
	<line x1="71.0mm" y1="143.333333333mm" x2="71.0mm" y2="135.0mm" transform="rotate(0 0 0)" />
	<line x1="71.0mm" y1="135.0mm" x2="102.0mm" y2="135.0mm" transform="rotate(0 0 0)" />
	<line x1="102.0mm" y1="135.0mm" x2="127.0mm" y2="135.0mm" transform="rotate(0 0 0)" />
	<line x1="127.0mm" y1="135.0mm" x2="127.0mm" y2="139.154166667mm" transform="rotate(0 0 0)" />
	<line x1="127.0mm" y1="139.154166667mm" x2="131.0mm" y2="139.154166667mm" transform="rotate(0 0 0)" />
	<line x1="131.0mm" y1="139.154166667mm" x2="131.0mm" y2="143.333333333mm" transform="rotate(0 0 0)" />
	<line x1="131.0mm" y1="143.333333333mm" x2="127.0mm" y2="143.333333333mm" transform="rotate(0 0 0)" />
	<line x1="127.0mm" y1="143.333333333mm" x2="127.0mm" y2="147.4875mm" transform="rotate(0 0 0)" />
	<line x1="127.0mm" y1="147.4875mm" x2="131.0mm" y2="147.4875mm" transform="rotate(0 0 0)" />
	<line x1="131.0mm" y1="147.4875mm" x2="131.0mm" y2="151.666666667mm" transform="rotate(0 0 0)" />
	<line x1="131.0mm" y1="151.666666667mm" x2="127.0mm" y2="151.666666667mm" transform="rotate(0 0 0)" />
	<line x1="127.0mm" y1="151.666666667mm" x2="127.0mm" y2="155.820833333mm" transform="rotate(0 0 0)" />
	<line x1="127.0mm" y1="155.820833333mm" x2="131.0mm" y2="155.820833333mm" transform="rotate(0 0 0)" />
	<line x1="131.0mm" y1="155.820833333mm" x2="131.0mm" y2="160.0mm" transform="rotate(0 0 0)" />
	<line x1="131.0mm" y1="160.0mm" x2="127.0mm" y2="160.0mm" transform="rotate(0 0 0)" />
	<line x1="127.0mm" y1="160.0mm" x2="102.0mm" y2="160.0mm" transform="rotate(0 0 0)" />
	<line x1="102.0mm" y1="160.0mm" x2="102.0mm" y2="147.5mm" transform="rotate(0 0 0)" />
	<line x1="102.0mm" y1="147.5mm" x2="96.0mm" y2="147.5mm" transform="rotate(0 0 0)" />
	<line x1="96.0mm" y1="147.5mm" x2="96.0mm" y2="160.0mm" transform="rotate(0 0 0)" />
	<line x1="96.0mm" y1="160.0mm" x2="71.0mm" y2="160.0mm" transform="rotate(0 0 0)" />
	<line x1="71.0mm" y1="160.0mm" x2="71.0mm" y2="151.666666667mm" transform="rotate(0 0 0)" />
	<line x1="71.0mm" y1="151.666666667mm" x2="65.0mm" y2="151.666666667mm" transform="rotate(0 0 0)" />
	<line x1="65.0mm" y1="151.666666667mm" x2="65.0mm" y2="160.0mm" transform="rotate(0 0 0)" />
	<line x1="65.0mm" y1="160.0mm" x2="40.0mm" y2="160.0mm" transform="rotate(0 0 0)" />
	<line x1="40.0mm" y1="160.0mm" x2="40.0mm" y2="147.5mm" transform="rotate(0 0 0)" />
	<line x1="40.0mm" y1="147.5mm" x2="34.0mm" y2="147.5mm" transform="rotate(0 0 0)" />
	<line x1="34.0mm" y1="147.5mm" x2="34.0mm" y2="160.0mm" transform="rotate(0 0 0)" />
	<line x1="34.0mm" y1="160.0mm" x2="9.0mm" y2="160.0mm" transform="rotate(0 0 0)" />
	<line x1="9.0mm" y1="160.0mm" x2="5.0mm" y2="160.0mm" transform="rotate(0 0 0)" />
	<line x1="5.0mm" y1="160.0mm" x2="5.0mm" y2="155.820833333mm" transform="rotate(0 0 0)" />
	<line x1="5.0mm" y1="155.820833333mm" x2="9.0mm" y2="155.820833333mm" transform="rotate(0 0 0)" />
	<line x1="9.0mm" y1="155.820833333mm" x2="9.0mm" y2="151.666666667mm" transform="rotate(0 0 0)" />
	<line x1="9.0mm" y1="151.666666667mm" x2="5.0mm" y2="151.666666667mm" transform="rotate(0 0 0)" />
	<line x1="5.0mm" y1="151.666666667mm" x2="5.0mm" y2="147.4875mm" transform="rotate(0 0 0)" />
	<line x1="5.0mm" y1="147.4875mm" x2="9.0mm" y2="147.4875mm" transform="rotate(0 0 0)" />
	<line x1="9.0mm" y1="147.4875mm" x2="9.0mm" y2="143.333333333mm" transform="rotate(0 0 0)" />
	<line x1="9.0mm" y1="143.333333333mm" x2="5.0mm" y2="143.333333333mm" transform="rotate(0 0 0)" />
	<line x1="5.0mm" y1="143.333333333mm" x2="5.0mm" y2="139.154166667mm" transform="rotate(0 0 0)" />
	<line x1="5.0mm" y1="139.154166667mm" x2="9.0mm" y2="139.154166667mm" transform="rotate(0 0 0)" />
	<line x1="9.0mm" y1="139.154166667mm" x2="9.0mm" y2="135.0mm" transform="rotate(0 0 0)" />
	<line x1="132.0mm" y1="135.0mm" x2="171.0mm" y2="135.0mm" transform="rotate(0 0 0)" />
	<line x1="171.0mm" y1="135.0mm" x2="171.0mm" y2="139.154166667mm" transform="rotate(0 0 0)" />
	<line x1="171.0mm" y1="139.154166667mm" x2="167.0mm" y2="139.154166667mm" transform="rotate(0 0 0)" />
	<line x1="167.0mm" y1="139.154166667mm" x2="167.0mm" y2="143.333333333mm" transform="rotate(0 0 0)" />
	<line x1="167.0mm" y1="143.333333333mm" x2="171.0mm" y2="143.333333333mm" transform="rotate(0 0 0)" />
	<line x1="171.0mm" y1="143.333333333mm" x2="171.0mm" y2="147.4875mm" transform="rotate(0 0 0)" />
	<line x1="171.0mm" y1="147.4875mm" x2="167.0mm" y2="147.4875mm" transform="rotate(0 0 0)" />
	<line x1="167.0mm" y1="147.4875mm" x2="167.0mm" y2="151.666666667mm" transform="rotate(0 0 0)" />
	<line x1="167.0mm" y1="151.666666667mm" x2="171.0mm" y2="151.666666667mm" transform="rotate(0 0 0)" />
	<line x1="171.0mm" y1="151.666666667mm" x2="171.0mm" y2="155.820833333mm" transform="rotate(0 0 0)" />
	<line x1="171.0mm" y1="155.820833333mm" x2="167.0mm" y2="155.820833333mm" transform="rotate(0 0 0)" />
	<line x1="167.0mm" y1="155.820833333mm" x2="167.0mm" y2="160.0mm" transform="rotate(0 0 0)" />
	<line x1="167.0mm" y1="160.0mm" x2="136.0mm" y2="160.0mm" transform="rotate(0 0 0)" />
	<line x1="136.0mm" y1="160.0mm" x2="136.0mm" y2="155.820833333mm" transform="rotate(0 0 0)" />
	<line x1="136.0mm" y1="155.820833333mm" x2="132.0mm" y2="155.820833333mm" transform="rotate(0 0 0)" />
	<line x1="132.0mm" y1="155.820833333mm" x2="132.0mm" y2="151.666666667mm" transform="rotate(0 0 0)" />
	<line x1="132.0mm" y1="151.666666667mm" x2="136.0mm" y2="151.666666667mm" transform="rotate(0 0 0)" />
	<line x1="136.0mm" y1="151.666666667mm" x2="136.0mm" y2="147.4875mm" transform="rotate(0 0 0)" />
	<line x1="136.0mm" y1="147.4875mm" x2="132.0mm" y2="147.4875mm" transform="rotate(0 0 0)" />
	<line x1="132.0mm" y1="147.4875mm" x2="132.0mm" y2="143.333333333mm" transform="rotate(0 0 0)" />
	<line x1="132.0mm" y1="143.333333333mm" x2="136.0mm" y2="143.333333333mm" transform="rotate(0 0 0)" />
	<line x1="136.0mm" y1="143.333333333mm" x2="136.0mm" y2="139.154166667mm" transform="rotate(0 0 0)" />
	<line x1="136.0mm" y1="139.154166667mm" x2="132.0mm" y2="139.154166667mm" transform="rotate(0 0 0)" />
	<line x1="132.0mm" y1="139.154166667mm" x2="132.0mm" y2="135.0mm" transform="rotate(0 0 0)" />
	<line x1="9.0mm" y1="161.0mm" x2="34.0mm" y2="161.0mm" transform="rotate(0 0 0)" />
	<line x1="34.0mm" y1="161.0mm" x2="34.0mm" y2="169.333333333mm" transform="rotate(0 0 0)" />
	<line x1="34.0mm" y1="169.333333333mm" x2="40.0mm" y2="169.333333333mm" transform="rotate(0 0 0)" />
	<line x1="40.0mm" y1="169.333333333mm" x2="40.0mm" y2="173.5mm" transform="rotate(0 0 0)" />
	<line x1="40.0mm" y1="173.5mm" x2="65.0mm" y2="173.5mm" transform="rotate(0 0 0)" />
	<line x1="65.0mm" y1="173.5mm" x2="65.0mm" y2="169.333333333mm" transform="rotate(0 0 0)" />
	<line x1="65.0mm" y1="169.333333333mm" x2="71.0mm" y2="169.333333333mm" transform="rotate(0 0 0)" />
	<line x1="71.0mm" y1="169.333333333mm" x2="71.0mm" y2="161.0mm" transform="rotate(0 0 0)" />
	<line x1="71.0mm" y1="161.0mm" x2="96.0mm" y2="161.0mm" transform="rotate(0 0 0)" />
	<line x1="96.0mm" y1="161.0mm" x2="96.0mm" y2="169.333333333mm" transform="rotate(0 0 0)" />
	<line x1="96.0mm" y1="169.333333333mm" x2="102.0mm" y2="169.333333333mm" transform="rotate(0 0 0)" />
	<line x1="102.0mm" y1="169.333333333mm" x2="102.0mm" y2="161.0mm" transform="rotate(0 0 0)" />
	<line x1="102.0mm" y1="161.0mm" x2="127.0mm" y2="161.0mm" transform="rotate(0 0 0)" />
	<line x1="127.0mm" y1="161.0mm" x2="127.0mm" y2="169.333333333mm" transform="rotate(0 0 0)" />
	<line x1="127.0mm" y1="169.333333333mm" x2="133.0mm" y2="169.333333333mm" transform="rotate(0 0 0)" />
	<line x1="133.0mm" y1="169.333333333mm" x2="133.0mm" y2="173.5mm" transform="rotate(0 0 0)" />
	<line x1="133.0mm" y1="173.5mm" x2="158.0mm" y2="173.5mm" transform="rotate(0 0 0)" />
	<line x1="158.0mm" y1="173.5mm" x2="158.0mm" y2="186.0mm" transform="rotate(0 0 0)" />
	<line x1="158.0mm" y1="186.0mm" x2="133.0mm" y2="186.0mm" transform="rotate(0 0 0)" />
	<line x1="133.0mm" y1="186.0mm" x2="133.0mm" y2="177.666666667mm" transform="rotate(0 0 0)" />
	<line x1="133.0mm" y1="177.666666667mm" x2="127.0mm" y2="177.666666667mm" transform="rotate(0 0 0)" />
	<line x1="127.0mm" y1="177.666666667mm" x2="127.0mm" y2="186.0mm" transform="rotate(0 0 0)" />
	<line x1="127.0mm" y1="186.0mm" x2="102.0mm" y2="186.0mm" transform="rotate(0 0 0)" />
	<line x1="102.0mm" y1="186.0mm" x2="102.0mm" y2="177.666666667mm" transform="rotate(0 0 0)" />
	<line x1="102.0mm" y1="177.666666667mm" x2="96.0mm" y2="177.666666667mm" transform="rotate(0 0 0)" />
	<line x1="96.0mm" y1="177.666666667mm" x2="96.0mm" y2="186.0mm" transform="rotate(0 0 0)" />
	<line x1="96.0mm" y1="186.0mm" x2="71.0mm" y2="186.0mm" transform="rotate(0 0 0)" />
	<line x1="71.0mm" y1="186.0mm" x2="71.0mm" y2="177.666666667mm" transform="rotate(0 0 0)" />
	<line x1="71.0mm" y1="177.666666667mm" x2="65.0mm" y2="177.666666667mm" transform="rotate(0 0 0)" />
	<line x1="65.0mm" y1="177.666666667mm" x2="65.0mm" y2="186.0mm" transform="rotate(0 0 0)" />
	<line x1="65.0mm" y1="186.0mm" x2="40.0mm" y2="186.0mm" transform="rotate(0 0 0)" />
	<line x1="40.0mm" y1="186.0mm" x2="40.0mm" y2="177.666666667mm" transform="rotate(0 0 0)" />
	<line x1="40.0mm" y1="177.666666667mm" x2="34.0mm" y2="177.666666667mm" transform="rotate(0 0 0)" />
	<line x1="34.0mm" y1="177.666666667mm" x2="34.0mm" y2="186.0mm" transform="rotate(0 0 0)" />
	<line x1="34.0mm" y1="186.0mm" x2="9.0mm" y2="186.0mm" transform="rotate(0 0 0)" />
	<line x1="9.0mm" y1="186.0mm" x2="9.0mm" y2="161.0mm" transform="rotate(0 0 0)" />
	<line x1="9.0mm" y1="187.0mm" x2="34.0mm" y2="187.0mm" transform="rotate(0 0 0)" />
	<line x1="34.0mm" y1="187.0mm" x2="34.0mm" y2="195.333333333mm" transform="rotate(0 0 0)" />
	<line x1="34.0mm" y1="195.333333333mm" x2="40.0mm" y2="195.333333333mm" transform="rotate(0 0 0)" />
	<line x1="40.0mm" y1="195.333333333mm" x2="40.0mm" y2="199.5mm" transform="rotate(0 0 0)" />
	<line x1="40.0mm" y1="199.5mm" x2="65.0mm" y2="199.5mm" transform="rotate(0 0 0)" />
	<line x1="65.0mm" y1="199.5mm" x2="65.0mm" y2="195.333333333mm" transform="rotate(0 0 0)" />
	<line x1="65.0mm" y1="195.333333333mm" x2="71.0mm" y2="195.333333333mm" transform="rotate(0 0 0)" />
	<line x1="71.0mm" y1="195.333333333mm" x2="71.0mm" y2="187.0mm" transform="rotate(0 0 0)" />
	<line x1="71.0mm" y1="187.0mm" x2="96.0mm" y2="187.0mm" transform="rotate(0 0 0)" />
	<line x1="96.0mm" y1="187.0mm" x2="96.0mm" y2="195.333333333mm" transform="rotate(0 0 0)" />
	<line x1="96.0mm" y1="195.333333333mm" x2="102.0mm" y2="195.333333333mm" transform="rotate(0 0 0)" />
	<line x1="102.0mm" y1="195.333333333mm" x2="102.0mm" y2="187.0mm" transform="rotate(0 0 0)" />
	<line x1="102.0mm" y1="187.0mm" x2="127.0mm" y2="187.0mm" transform="rotate(0 0 0)" />
	<line x1="127.0mm" y1="187.0mm" x2="127.0mm" y2="212.0mm" transform="rotate(0 0 0)" />
	<line x1="127.0mm" y1="212.0mm" x2="102.0mm" y2="212.0mm" transform="rotate(0 0 0)" />
	<line x1="102.0mm" y1="212.0mm" x2="102.0mm" y2="203.666666667mm" transform="rotate(0 0 0)" />
	<line x1="102.0mm" y1="203.666666667mm" x2="96.0mm" y2="203.666666667mm" transform="rotate(0 0 0)" />
	<line x1="96.0mm" y1="203.666666667mm" x2="96.0mm" y2="212.0mm" transform="rotate(0 0 0)" />
	<line x1="96.0mm" y1="212.0mm" x2="71.0mm" y2="212.0mm" transform="rotate(0 0 0)" />
	<line x1="71.0mm" y1="212.0mm" x2="71.0mm" y2="203.666666667mm" transform="rotate(0 0 0)" />
	<line x1="71.0mm" y1="203.666666667mm" x2="65.0mm" y2="203.666666667mm" transform="rotate(0 0 0)" />
	<line x1="65.0mm" y1="203.666666667mm" x2="65.0mm" y2="212.0mm" transform="rotate(0 0 0)" />
	<line x1="65.0mm" y1="212.0mm" x2="40.0mm" y2="212.0mm" transform="rotate(0 0 0)" />
	<line x1="40.0mm" y1="212.0mm" x2="40.0mm" y2="203.666666667mm" transform="rotate(0 0 0)" />
	<line x1="40.0mm" y1="203.666666667mm" x2="34.0mm" y2="203.666666667mm" transform="rotate(0 0 0)" />
	<line x1="34.0mm" y1="203.666666667mm" x2="34.0mm" y2="212.0mm" transform="rotate(0 0 0)" />
	<line x1="34.0mm" y1="212.0mm" x2="9.0mm" y2="212.0mm" transform="rotate(0 0 0)" />
	<line x1="9.0mm" y1="212.0mm" x2="9.0mm" y2="187.0mm" transform="rotate(0 0 0)" />
	<line x1="132.0mm" y1="187.0mm" x2="171.0mm" y2="187.0mm" transform="rotate(0 0 0)" />
	<line x1="171.0mm" y1="187.0mm" x2="171.0mm" y2="191.154166667mm" transform="rotate(0 0 0)" />
	<line x1="171.0mm" y1="191.154166667mm" x2="167.0mm" y2="191.154166667mm" transform="rotate(0 0 0)" />
	<line x1="167.0mm" y1="191.154166667mm" x2="167.0mm" y2="195.333333333mm" transform="rotate(0 0 0)" />
	<line x1="167.0mm" y1="195.333333333mm" x2="171.0mm" y2="195.333333333mm" transform="rotate(0 0 0)" />
	<line x1="171.0mm" y1="195.333333333mm" x2="171.0mm" y2="199.4875mm" transform="rotate(0 0 0)" />
	<line x1="171.0mm" y1="199.4875mm" x2="167.0mm" y2="199.4875mm" transform="rotate(0 0 0)" />
	<line x1="167.0mm" y1="199.4875mm" x2="167.0mm" y2="203.666666667mm" transform="rotate(0 0 0)" />
	<line x1="167.0mm" y1="203.666666667mm" x2="171.0mm" y2="203.666666667mm" transform="rotate(0 0 0)" />
	<line x1="171.0mm" y1="203.666666667mm" x2="171.0mm" y2="207.820833333mm" transform="rotate(0 0 0)" />
	<line x1="171.0mm" y1="207.820833333mm" x2="167.0mm" y2="207.820833333mm" transform="rotate(0 0 0)" />
	<line x1="167.0mm" y1="207.820833333mm" x2="167.0mm" y2="212.0mm" transform="rotate(0 0 0)" />
	<line x1="167.0mm" y1="212.0mm" x2="136.0mm" y2="212.0mm" transform="rotate(0 0 0)" />
	<line x1="136.0mm" y1="212.0mm" x2="136.0mm" y2="207.820833333mm" transform="rotate(0 0 0)" />
	<line x1="136.0mm" y1="207.820833333mm" x2="132.0mm" y2="207.820833333mm" transform="rotate(0 0 0)" />
	<line x1="132.0mm" y1="207.820833333mm" x2="132.0mm" y2="203.666666667mm" transform="rotate(0 0 0)" />
	<line x1="132.0mm" y1="203.666666667mm" x2="136.0mm" y2="203.666666667mm" transform="rotate(0 0 0)" />
	<line x1="136.0mm" y1="203.666666667mm" x2="136.0mm" y2="199.4875mm" transform="rotate(0 0 0)" />
	<line x1="136.0mm" y1="199.4875mm" x2="132.0mm" y2="199.4875mm" transform="rotate(0 0 0)" />
	<line x1="132.0mm" y1="199.4875mm" x2="132.0mm" y2="195.333333333mm" transform="rotate(0 0 0)" />
	<line x1="132.0mm" y1="195.333333333mm" x2="136.0mm" y2="195.333333333mm" transform="rotate(0 0 0)" />
	<line x1="136.0mm" y1="195.333333333mm" x2="136.0mm" y2="191.154166667mm" transform="rotate(0 0 0)" />
	<line x1="136.0mm" y1="191.154166667mm" x2="132.0mm" y2="191.154166667mm" transform="rotate(0 0 0)" />
	<line x1="132.0mm" y1="191.154166667mm" x2="132.0mm" y2="187.0mm" transform="rotate(0 0 0)" />
	<line x1="9.0mm" y1="213.0mm" x2="34.0mm" y2="213.0mm" transform="rotate(0 0 0)" />
	<line x1="34.0mm" y1="213.0mm" x2="34.0mm" y2="221.333333333mm" transform="rotate(0 0 0)" />
	<line x1="34.0mm" y1="221.333333333mm" x2="40.0mm" y2="221.333333333mm" transform="rotate(0 0 0)" />
	<line x1="40.0mm" y1="221.333333333mm" x2="40.0mm" y2="225.5mm" transform="rotate(0 0 0)" />
	<line x1="40.0mm" y1="225.5mm" x2="65.0mm" y2="225.5mm" transform="rotate(0 0 0)" />
	<line x1="65.0mm" y1="225.5mm" x2="65.0mm" y2="221.333333333mm" transform="rotate(0 0 0)" />
	<line x1="65.0mm" y1="221.333333333mm" x2="71.0mm" y2="221.333333333mm" transform="rotate(0 0 0)" />
	<line x1="71.0mm" y1="221.333333333mm" x2="71.0mm" y2="213.0mm" transform="rotate(0 0 0)" />
	<line x1="71.0mm" y1="213.0mm" x2="96.0mm" y2="213.0mm" transform="rotate(0 0 0)" />
	<line x1="96.0mm" y1="213.0mm" x2="96.0mm" y2="221.333333333mm" transform="rotate(0 0 0)" />
	<line x1="96.0mm" y1="221.333333333mm" x2="102.0mm" y2="221.333333333mm" transform="rotate(0 0 0)" />
	<line x1="102.0mm" y1="221.333333333mm" x2="102.0mm" y2="213.0mm" transform="rotate(0 0 0)" />
	<line x1="102.0mm" y1="213.0mm" x2="127.0mm" y2="213.0mm" transform="rotate(0 0 0)" />
	<line x1="127.0mm" y1="213.0mm" x2="127.0mm" y2="221.333333333mm" transform="rotate(0 0 0)" />
	<line x1="127.0mm" y1="221.333333333mm" x2="133.0mm" y2="221.333333333mm" transform="rotate(0 0 0)" />
	<line x1="133.0mm" y1="221.333333333mm" x2="133.0mm" y2="225.5mm" transform="rotate(0 0 0)" />
	<line x1="133.0mm" y1="225.5mm" x2="158.0mm" y2="225.5mm" transform="rotate(0 0 0)" />
	<line x1="158.0mm" y1="225.5mm" x2="158.0mm" y2="238.0mm" transform="rotate(0 0 0)" />
	<line x1="158.0mm" y1="238.0mm" x2="133.0mm" y2="238.0mm" transform="rotate(0 0 0)" />
	<line x1="133.0mm" y1="238.0mm" x2="133.0mm" y2="229.666666667mm" transform="rotate(0 0 0)" />
	<line x1="133.0mm" y1="229.666666667mm" x2="127.0mm" y2="229.666666667mm" transform="rotate(0 0 0)" />
	<line x1="127.0mm" y1="229.666666667mm" x2="127.0mm" y2="238.0mm" transform="rotate(0 0 0)" />
	<line x1="127.0mm" y1="238.0mm" x2="102.0mm" y2="238.0mm" transform="rotate(0 0 0)" />
	<line x1="102.0mm" y1="238.0mm" x2="102.0mm" y2="229.666666667mm" transform="rotate(0 0 0)" />
	<line x1="102.0mm" y1="229.666666667mm" x2="96.0mm" y2="229.666666667mm" transform="rotate(0 0 0)" />
	<line x1="96.0mm" y1="229.666666667mm" x2="96.0mm" y2="238.0mm" transform="rotate(0 0 0)" />
	<line x1="96.0mm" y1="238.0mm" x2="71.0mm" y2="238.0mm" transform="rotate(0 0 0)" />
	<line x1="71.0mm" y1="238.0mm" x2="71.0mm" y2="229.666666667mm" transform="rotate(0 0 0)" />
	<line x1="71.0mm" y1="229.666666667mm" x2="65.0mm" y2="229.666666667mm" transform="rotate(0 0 0)" />
	<line x1="65.0mm" y1="229.666666667mm" x2="65.0mm" y2="238.0mm" transform="rotate(0 0 0)" />
	<line x1="65.0mm" y1="238.0mm" x2="40.0mm" y2="238.0mm" transform="rotate(0 0 0)" />
	<line x1="40.0mm" y1="238.0mm" x2="40.0mm" y2="229.666666667mm" transform="rotate(0 0 0)" />
	<line x1="40.0mm" y1="229.666666667mm" x2="34.0mm" y2="229.666666667mm" transform="rotate(0 0 0)" />
	<line x1="34.0mm" y1="229.666666667mm" x2="34.0mm" y2="238.0mm" transform="rotate(0 0 0)" />
	<line x1="34.0mm" y1="238.0mm" x2="9.0mm" y2="238.0mm" transform="rotate(0 0 0)" />
	<line x1="9.0mm" y1="238.0mm" x2="9.0mm" y2="213.0mm" transform="rotate(0 0 0)" />
	<line x1="9.0mm" y1="239.0mm" x2="40.0mm" y2="239.0mm" transform="rotate(0 0 0)" />
	<line x1="40.0mm" y1="239.0mm" x2="45.0mm" y2="251.5mm" transform="rotate(0 0 0)" />
	<line x1="45.0mm" y1="251.5mm" x2="65.0mm" y2="251.5mm" transform="rotate(0 0 0)" />
	<line x1="65.0mm" y1="251.5mm" x2="65.0mm" y2="247.333333333mm" transform="rotate(0 0 0)" />
	<line x1="65.0mm" y1="247.333333333mm" x2="71.0mm" y2="247.333333333mm" transform="rotate(0 0 0)" />
	<line x1="71.0mm" y1="247.333333333mm" x2="71.0mm" y2="239.0mm" transform="rotate(0 0 0)" />
	<line x1="71.0mm" y1="239.0mm" x2="102.0mm" y2="239.0mm" transform="rotate(0 0 0)" />
	<line x1="102.0mm" y1="239.0mm" x2="127.0mm" y2="239.0mm" transform="rotate(0 0 0)" />
	<line x1="127.0mm" y1="239.0mm" x2="127.0mm" y2="243.154166667mm" transform="rotate(0 0 0)" />
	<line x1="127.0mm" y1="243.154166667mm" x2="131.0mm" y2="243.154166667mm" transform="rotate(0 0 0)" />
	<line x1="131.0mm" y1="243.154166667mm" x2="131.0mm" y2="247.333333333mm" transform="rotate(0 0 0)" />
	<line x1="131.0mm" y1="247.333333333mm" x2="127.0mm" y2="247.333333333mm" transform="rotate(0 0 0)" />
	<line x1="127.0mm" y1="247.333333333mm" x2="127.0mm" y2="251.4875mm" transform="rotate(0 0 0)" />
	<line x1="127.0mm" y1="251.4875mm" x2="131.0mm" y2="251.4875mm" transform="rotate(0 0 0)" />
	<line x1="131.0mm" y1="251.4875mm" x2="131.0mm" y2="255.666666667mm" transform="rotate(0 0 0)" />
	<line x1="131.0mm" y1="255.666666667mm" x2="127.0mm" y2="255.666666667mm" transform="rotate(0 0 0)" />
	<line x1="127.0mm" y1="255.666666667mm" x2="127.0mm" y2="259.820833333mm" transform="rotate(0 0 0)" />
	<line x1="127.0mm" y1="259.820833333mm" x2="131.0mm" y2="259.820833333mm" transform="rotate(0 0 0)" />
	<line x1="131.0mm" y1="259.820833333mm" x2="131.0mm" y2="264.0mm" transform="rotate(0 0 0)" />
	<line x1="131.0mm" y1="264.0mm" x2="127.0mm" y2="264.0mm" transform="rotate(0 0 0)" />
	<line x1="127.0mm" y1="264.0mm" x2="102.0mm" y2="264.0mm" transform="rotate(0 0 0)" />
	<line x1="102.0mm" y1="264.0mm" x2="102.0mm" y2="251.5mm" transform="rotate(0 0 0)" />
	<line x1="102.0mm" y1="251.5mm" x2="96.0mm" y2="251.5mm" transform="rotate(0 0 0)" />
	<line x1="96.0mm" y1="251.5mm" x2="96.0mm" y2="264.0mm" transform="rotate(0 0 0)" />
	<line x1="96.0mm" y1="264.0mm" x2="71.0mm" y2="264.0mm" transform="rotate(0 0 0)" />
	<line x1="71.0mm" y1="264.0mm" x2="71.0mm" y2="255.666666667mm" transform="rotate(0 0 0)" />
	<line x1="71.0mm" y1="255.666666667mm" x2="65.0mm" y2="255.666666667mm" transform="rotate(0 0 0)" />
	<line x1="65.0mm" y1="255.666666667mm" x2="65.0mm" y2="264.0mm" transform="rotate(0 0 0)" />
	<line x1="65.0mm" y1="264.0mm" x2="40.0mm" y2="264.0mm" transform="rotate(0 0 0)" />
	<line x1="40.0mm" y1="264.0mm" x2="40.0mm" y2="251.5mm" transform="rotate(0 0 0)" />
	<line x1="40.0mm" y1="251.5mm" x2="34.0mm" y2="251.5mm" transform="rotate(0 0 0)" />
	<line x1="34.0mm" y1="251.5mm" x2="34.0mm" y2="264.0mm" transform="rotate(0 0 0)" />
	<line x1="34.0mm" y1="264.0mm" x2="9.0mm" y2="264.0mm" transform="rotate(0 0 0)" />
	<line x1="9.0mm" y1="264.0mm" x2="5.0mm" y2="264.0mm" transform="rotate(0 0 0)" />
	<line x1="5.0mm" y1="264.0mm" x2="5.0mm" y2="259.820833333mm" transform="rotate(0 0 0)" />
	<line x1="5.0mm" y1="259.820833333mm" x2="9.0mm" y2="259.820833333mm" transform="rotate(0 0 0)" />
	<line x1="9.0mm" y1="259.820833333mm" x2="9.0mm" y2="255.666666667mm" transform="rotate(0 0 0)" />
	<line x1="9.0mm" y1="255.666666667mm" x2="5.0mm" y2="255.666666667mm" transform="rotate(0 0 0)" />
	<line x1="5.0mm" y1="255.666666667mm" x2="5.0mm" y2="251.4875mm" transform="rotate(0 0 0)" />
	<line x1="5.0mm" y1="251.4875mm" x2="9.0mm" y2="251.4875mm" transform="rotate(0 0 0)" />
	<line x1="9.0mm" y1="251.4875mm" x2="9.0mm" y2="247.333333333mm" transform="rotate(0 0 0)" />
	<line x1="9.0mm" y1="247.333333333mm" x2="5.0mm" y2="247.333333333mm" transform="rotate(0 0 0)" />
	<line x1="5.0mm" y1="247.333333333mm" x2="5.0mm" y2="243.154166667mm" transform="rotate(0 0 0)" />
	<line x1="5.0mm" y1="243.154166667mm" x2="9.0mm" y2="243.154166667mm" transform="rotate(0 0 0)" />
	<line x1="9.0mm" y1="243.154166667mm" x2="9.0mm" y2="239.0mm" transform="rotate(0 0 0)" />
	<line x1="132.0mm" y1="239.0mm" x2="171.0mm" y2="239.0mm" transform="rotate(0 0 0)" />
	<line x1="171.0mm" y1="239.0mm" x2="171.0mm" y2="243.154166667mm" transform="rotate(0 0 0)" />
	<line x1="171.0mm" y1="243.154166667mm" x2="167.0mm" y2="243.154166667mm" transform="rotate(0 0 0)" />
	<line x1="167.0mm" y1="243.154166667mm" x2="167.0mm" y2="247.333333333mm" transform="rotate(0 0 0)" />
	<line x1="167.0mm" y1="247.333333333mm" x2="171.0mm" y2="247.333333333mm" transform="rotate(0 0 0)" />
	<line x1="171.0mm" y1="247.333333333mm" x2="171.0mm" y2="251.4875mm" transform="rotate(0 0 0)" />
	<line x1="171.0mm" y1="251.4875mm" x2="167.0mm" y2="251.4875mm" transform="rotate(0 0 0)" />
	<line x1="167.0mm" y1="251.4875mm" x2="167.0mm" y2="255.666666667mm" transform="rotate(0 0 0)" />
	<line x1="167.0mm" y1="255.666666667mm" x2="171.0mm" y2="255.666666667mm" transform="rotate(0 0 0)" />
	<line x1="171.0mm" y1="255.666666667mm" x2="171.0mm" y2="259.820833333mm" transform="rotate(0 0 0)" />
	<line x1="171.0mm" y1="259.820833333mm" x2="167.0mm" y2="259.820833333mm" transform="rotate(0 0 0)" />
	<line x1="167.0mm" y1="259.820833333mm" x2="167.0mm" y2="264.0mm" transform="rotate(0 0 0)" />
	<line x1="167.0mm" y1="264.0mm" x2="136.0mm" y2="264.0mm" transform="rotate(0 0 0)" />
	<line x1="136.0mm" y1="264.0mm" x2="136.0mm" y2="259.820833333mm" transform="rotate(0 0 0)" />
	<line x1="136.0mm" y1="259.820833333mm" x2="132.0mm" y2="259.820833333mm" transform="rotate(0 0 0)" />
	<line x1="132.0mm" y1="259.820833333mm" x2="132.0mm" y2="255.666666667mm" transform="rotate(0 0 0)" />
	<line x1="132.0mm" y1="255.666666667mm" x2="136.0mm" y2="255.666666667mm" transform="rotate(0 0 0)" />
	<line x1="136.0mm" y1="255.666666667mm" x2="136.0mm" y2="251.4875mm" transform="rotate(0 0 0)" />
	<line x1="136.0mm" y1="251.4875mm" x2="132.0mm" y2="251.4875mm" transform="rotate(0 0 0)" />
	<line x1="132.0mm" y1="251.4875mm" x2="132.0mm" y2="247.333333333mm" transform="rotate(0 0 0)" />
	<line x1="132.0mm" y1="247.333333333mm" x2="136.0mm" y2="247.333333333mm" transform="rotate(0 0 0)" />
	<line x1="136.0mm" y1="247.333333333mm" x2="136.0mm" y2="243.154166667mm" transform="rotate(0 0 0)" />
	<line x1="136.0mm" y1="243.154166667mm" x2="132.0mm" y2="243.154166667mm" transform="rotate(0 0 0)" />
	<line x1="132.0mm" y1="243.154166667mm" x2="132.0mm" y2="239.0mm" transform="rotate(0 0 0)" />
	<line x1="9.0mm" y1="265.0mm" x2="34.0mm" y2="265.0mm" transform="rotate(0 0 0)" />
	<line x1="34.0mm" y1="265.0mm" x2="34.0mm" y2="277.5mm" transform="rotate(0 0 0)" />
	<line x1="34.0mm" y1="277.5mm" x2="40.0mm" y2="277.5mm" transform="rotate(0 0 0)" />
	<line x1="40.0mm" y1="277.5mm" x2="40.0mm" y2="265.0mm" transform="rotate(0 0 0)" />
	<line x1="40.0mm" y1="265.0mm" x2="65.0mm" y2="265.0mm" transform="rotate(0 0 0)" />
	<line x1="65.0mm" y1="265.0mm" x2="65.0mm" y2="281.666666667mm" transform="rotate(0 0 0)" />
	<line x1="65.0mm" y1="281.666666667mm" x2="71.0mm" y2="281.666666667mm" transform="rotate(0 0 0)" />
	<line x1="71.0mm" y1="281.666666667mm" x2="71.0mm" y2="277.5mm" transform="rotate(0 0 0)" />
	<line x1="71.0mm" y1="277.5mm" x2="102.0mm" y2="277.5mm" transform="rotate(0 0 0)" />
	<line x1="102.0mm" y1="277.5mm" x2="102.0mm" y2="265.0mm" transform="rotate(0 0 0)" />
	<line x1="102.0mm" y1="265.0mm" x2="127.0mm" y2="265.0mm" transform="rotate(0 0 0)" />
	<line x1="127.0mm" y1="265.0mm" x2="127.0mm" y2="269.154166667mm" transform="rotate(0 0 0)" />
	<line x1="127.0mm" y1="269.154166667mm" x2="131.0mm" y2="269.154166667mm" transform="rotate(0 0 0)" />
	<line x1="131.0mm" y1="269.154166667mm" x2="131.0mm" y2="273.333333333mm" transform="rotate(0 0 0)" />
	<line x1="131.0mm" y1="273.333333333mm" x2="127.0mm" y2="273.333333333mm" transform="rotate(0 0 0)" />
	<line x1="127.0mm" y1="273.333333333mm" x2="127.0mm" y2="277.4875mm" transform="rotate(0 0 0)" />
	<line x1="127.0mm" y1="277.4875mm" x2="131.0mm" y2="277.4875mm" transform="rotate(0 0 0)" />
	<line x1="131.0mm" y1="277.4875mm" x2="131.0mm" y2="281.666666667mm" transform="rotate(0 0 0)" />
	<line x1="131.0mm" y1="281.666666667mm" x2="127.0mm" y2="281.666666667mm" transform="rotate(0 0 0)" />
	<line x1="127.0mm" y1="281.666666667mm" x2="127.0mm" y2="285.820833333mm" transform="rotate(0 0 0)" />
	<line x1="127.0mm" y1="285.820833333mm" x2="131.0mm" y2="285.820833333mm" transform="rotate(0 0 0)" />
	<line x1="131.0mm" y1="285.820833333mm" x2="131.0mm" y2="290.0mm" transform="rotate(0 0 0)" />
	<line x1="131.0mm" y1="290.0mm" x2="127.0mm" y2="290.0mm" transform="rotate(0 0 0)" />
	<line x1="127.0mm" y1="290.0mm" x2="9.0mm" y2="290.0mm" transform="rotate(0 0 0)" />
	<line x1="9.0mm" y1="290.0mm" x2="5.0mm" y2="290.0mm" transform="rotate(0 0 0)" />
	<line x1="5.0mm" y1="290.0mm" x2="5.0mm" y2="285.820833333mm" transform="rotate(0 0 0)" />
	<line x1="5.0mm" y1="285.820833333mm" x2="9.0mm" y2="285.820833333mm" transform="rotate(0 0 0)" />
	<line x1="9.0mm" y1="285.820833333mm" x2="9.0mm" y2="281.666666667mm" transform="rotate(0 0 0)" />
	<line x1="9.0mm" y1="281.666666667mm" x2="5.0mm" y2="281.666666667mm" transform="rotate(0 0 0)" />
	<line x1="5.0mm" y1="281.666666667mm" x2="5.0mm" y2="277.4875mm" transform="rotate(0 0 0)" />
	<line x1="5.0mm" y1="277.4875mm" x2="9.0mm" y2="277.4875mm" transform="rotate(0 0 0)" />
	<line x1="9.0mm" y1="277.4875mm" x2="9.0mm" y2="273.333333333mm" transform="rotate(0 0 0)" />
	<line x1="9.0mm" y1="273.333333333mm" x2="5.0mm" y2="273.333333333mm" transform="rotate(0 0 0)" />
	<line x1="5.0mm" y1="273.333333333mm" x2="5.0mm" y2="269.154166667mm" transform="rotate(0 0 0)" />
	<line x1="5.0mm" y1="269.154166667mm" x2="9.0mm" y2="269.154166667mm" transform="rotate(0 0 0)" />
	<line x1="9.0mm" y1="269.154166667mm" x2="9.0mm" y2="265.0mm" transform="rotate(0 0 0)" />
	<line x1="9.0mm" y1="291.0mm" x2="34.0mm" y2="291.0mm" transform="rotate(0 0 0)" />
	<line x1="34.0mm" y1="291.0mm" x2="34.0mm" y2="307.666666667mm" transform="rotate(0 0 0)" />
	<line x1="34.0mm" y1="307.666666667mm" x2="40.0mm" y2="307.666666667mm" transform="rotate(0 0 0)" />
	<line x1="40.0mm" y1="307.666666667mm" x2="40.0mm" y2="303.5mm" transform="rotate(0 0 0)" />
	<line x1="40.0mm" y1="303.5mm" x2="65.0mm" y2="303.5mm" transform="rotate(0 0 0)" />
	<line x1="65.0mm" y1="303.5mm" x2="65.0mm" y2="307.666666667mm" transform="rotate(0 0 0)" />
	<line x1="65.0mm" y1="307.666666667mm" x2="71.0mm" y2="307.666666667mm" transform="rotate(0 0 0)" />
	<line x1="71.0mm" y1="307.666666667mm" x2="71.0mm" y2="291.0mm" transform="rotate(0 0 0)" />
	<line x1="71.0mm" y1="291.0mm" x2="96.0mm" y2="291.0mm" transform="rotate(0 0 0)" />
	<line x1="96.0mm" y1="291.0mm" x2="96.0mm" y2="307.666666667mm" transform="rotate(0 0 0)" />
	<line x1="96.0mm" y1="307.666666667mm" x2="102.0mm" y2="307.666666667mm" transform="rotate(0 0 0)" />
	<line x1="102.0mm" y1="307.666666667mm" x2="102.0mm" y2="291.0mm" transform="rotate(0 0 0)" />
	<line x1="102.0mm" y1="291.0mm" x2="127.0mm" y2="291.0mm" transform="rotate(0 0 0)" />
	<line x1="127.0mm" y1="291.0mm" x2="127.0mm" y2="307.666666667mm" transform="rotate(0 0 0)" />
	<line x1="127.0mm" y1="307.666666667mm" x2="133.0mm" y2="307.666666667mm" transform="rotate(0 0 0)" />
	<line x1="133.0mm" y1="307.666666667mm" x2="133.0mm" y2="303.5mm" transform="rotate(0 0 0)" />
	<line x1="133.0mm" y1="303.5mm" x2="158.0mm" y2="303.5mm" transform="rotate(0 0 0)" />
	<line x1="158.0mm" y1="303.5mm" x2="158.0mm" y2="316.0mm" transform="rotate(0 0 0)" />
	<line x1="158.0mm" y1="316.0mm" x2="9.0mm" y2="316.0mm" transform="rotate(0 0 0)" />
	<line x1="9.0mm" y1="316.0mm" x2="9.0mm" y2="291.0mm" transform="rotate(0 0 0)" />
	<line x1="9.0mm" y1="317.0mm" x2="34.0mm" y2="317.0mm" transform="rotate(0 0 0)" />
	<line x1="34.0mm" y1="317.0mm" x2="34.0mm" y2="333.666666667mm" transform="rotate(0 0 0)" />
	<line x1="34.0mm" y1="333.666666667mm" x2="40.0mm" y2="333.666666667mm" transform="rotate(0 0 0)" />
	<line x1="40.0mm" y1="333.666666667mm" x2="40.0mm" y2="317.0mm" transform="rotate(0 0 0)" />
	<line x1="40.0mm" y1="317.0mm" x2="65.0mm" y2="317.0mm" transform="rotate(0 0 0)" />
	<line x1="65.0mm" y1="317.0mm" x2="65.0mm" y2="333.666666667mm" transform="rotate(0 0 0)" />
	<line x1="65.0mm" y1="333.666666667mm" x2="71.0mm" y2="333.666666667mm" transform="rotate(0 0 0)" />
	<line x1="71.0mm" y1="333.666666667mm" x2="71.0mm" y2="329.5mm" transform="rotate(0 0 0)" />
	<line x1="71.0mm" y1="329.5mm" x2="96.0mm" y2="329.5mm" transform="rotate(0 0 0)" />
	<line x1="96.0mm" y1="329.5mm" x2="96.0mm" y2="333.666666667mm" transform="rotate(0 0 0)" />
	<line x1="96.0mm" y1="333.666666667mm" x2="102.0mm" y2="333.666666667mm" transform="rotate(0 0 0)" />
	<line x1="102.0mm" y1="333.666666667mm" x2="102.0mm" y2="317.0mm" transform="rotate(0 0 0)" />
	<line x1="102.0mm" y1="317.0mm" x2="127.0mm" y2="317.0mm" transform="rotate(0 0 0)" />
	<line x1="127.0mm" y1="317.0mm" x2="127.0mm" y2="342.0mm" transform="rotate(0 0 0)" />
	<line x1="127.0mm" y1="342.0mm" x2="9.0mm" y2="342.0mm" transform="rotate(0 0 0)" />
	<line x1="9.0mm" y1="342.0mm" x2="9.0mm" y2="317.0mm" transform="rotate(0 0 0)" />
	<line x1="9.0mm" y1="343.0mm" x2="34.0mm" y2="343.0mm" transform="rotate(0 0 0)" />
	<line x1="34.0mm" y1="343.0mm" x2="34.0mm" y2="359.666666667mm" transform="rotate(0 0 0)" />
	<line x1="34.0mm" y1="359.666666667mm" x2="40.0mm" y2="359.666666667mm" transform="rotate(0 0 0)" />
	<line x1="40.0mm" y1="359.666666667mm" x2="40.0mm" y2="355.5mm" transform="rotate(0 0 0)" />
	<line x1="40.0mm" y1="355.5mm" x2="65.0mm" y2="355.5mm" transform="rotate(0 0 0)" />
	<line x1="65.0mm" y1="355.5mm" x2="65.0mm" y2="359.666666667mm" transform="rotate(0 0 0)" />
	<line x1="65.0mm" y1="359.666666667mm" x2="71.0mm" y2="359.666666667mm" transform="rotate(0 0 0)" />
	<line x1="71.0mm" y1="359.666666667mm" x2="71.0mm" y2="343.0mm" transform="rotate(0 0 0)" />
	<line x1="71.0mm" y1="343.0mm" x2="96.0mm" y2="343.0mm" transform="rotate(0 0 0)" />
	<line x1="96.0mm" y1="343.0mm" x2="96.0mm" y2="359.666666667mm" transform="rotate(0 0 0)" />
	<line x1="96.0mm" y1="359.666666667mm" x2="102.0mm" y2="359.666666667mm" transform="rotate(0 0 0)" />
	<line x1="102.0mm" y1="359.666666667mm" x2="102.0mm" y2="343.0mm" transform="rotate(0 0 0)" />
	<line x1="102.0mm" y1="343.0mm" x2="127.0mm" y2="343.0mm" transform="rotate(0 0 0)" />
	<line x1="127.0mm" y1="343.0mm" x2="127.0mm" y2="359.666666667mm" transform="rotate(0 0 0)" />
	<line x1="127.0mm" y1="359.666666667mm" x2="133.0mm" y2="359.666666667mm" transform="rotate(0 0 0)" />
	<line x1="133.0mm" y1="359.666666667mm" x2="133.0mm" y2="355.5mm" transform="rotate(0 0 0)" />
	<line x1="133.0mm" y1="355.5mm" x2="158.0mm" y2="355.5mm" transform="rotate(0 0 0)" />
	<line x1="158.0mm" y1="355.5mm" x2="158.0mm" y2="368.0mm" transform="rotate(0 0 0)" />
	<line x1="158.0mm" y1="368.0mm" x2="9.0mm" y2="368.0mm" transform="rotate(0 0 0)" />
	<line x1="9.0mm" y1="368.0mm" x2="9.0mm" y2="343.0mm" transform="rotate(0 0 0)" />
	<line x1="9.0mm" y1="369.0mm" x2="34.0mm" y2="369.0mm" transform="rotate(0 0 0)" />
	<line x1="34.0mm" y1="369.0mm" x2="34.0mm" y2="381.5mm" transform="rotate(0 0 0)" />
	<line x1="34.0mm" y1="381.5mm" x2="40.0mm" y2="381.5mm" transform="rotate(0 0 0)" />
	<line x1="40.0mm" y1="381.5mm" x2="40.0mm" y2="369.0mm" transform="rotate(0 0 0)" />
	<line x1="40.0mm" y1="369.0mm" x2="65.0mm" y2="369.0mm" transform="rotate(0 0 0)" />
	<line x1="65.0mm" y1="369.0mm" x2="65.0mm" y2="385.666666667mm" transform="rotate(0 0 0)" />
	<line x1="65.0mm" y1="385.666666667mm" x2="71.0mm" y2="385.666666667mm" transform="rotate(0 0 0)" />
	<line x1="71.0mm" y1="385.666666667mm" x2="71.0mm" y2="381.5mm" transform="rotate(0 0 0)" />
	<line x1="71.0mm" y1="381.5mm" x2="102.0mm" y2="381.5mm" transform="rotate(0 0 0)" />
	<line x1="102.0mm" y1="381.5mm" x2="102.0mm" y2="369.0mm" transform="rotate(0 0 0)" />
	<line x1="102.0mm" y1="369.0mm" x2="127.0mm" y2="369.0mm" transform="rotate(0 0 0)" />
	<line x1="127.0mm" y1="369.0mm" x2="127.0mm" y2="373.154166667mm" transform="rotate(0 0 0)" />
	<line x1="127.0mm" y1="373.154166667mm" x2="131.0mm" y2="373.154166667mm" transform="rotate(0 0 0)" />
	<line x1="131.0mm" y1="373.154166667mm" x2="131.0mm" y2="377.333333333mm" transform="rotate(0 0 0)" />
	<line x1="131.0mm" y1="377.333333333mm" x2="127.0mm" y2="377.333333333mm" transform="rotate(0 0 0)" />
	<line x1="127.0mm" y1="377.333333333mm" x2="127.0mm" y2="381.4875mm" transform="rotate(0 0 0)" />
	<line x1="127.0mm" y1="381.4875mm" x2="131.0mm" y2="381.4875mm" transform="rotate(0 0 0)" />
	<line x1="131.0mm" y1="381.4875mm" x2="131.0mm" y2="385.666666667mm" transform="rotate(0 0 0)" />
	<line x1="131.0mm" y1="385.666666667mm" x2="127.0mm" y2="385.666666667mm" transform="rotate(0 0 0)" />
	<line x1="127.0mm" y1="385.666666667mm" x2="127.0mm" y2="389.820833333mm" transform="rotate(0 0 0)" />
	<line x1="127.0mm" y1="389.820833333mm" x2="131.0mm" y2="389.820833333mm" transform="rotate(0 0 0)" />
	<line x1="131.0mm" y1="389.820833333mm" x2="131.0mm" y2="394.0mm" transform="rotate(0 0 0)" />
	<line x1="131.0mm" y1="394.0mm" x2="127.0mm" y2="394.0mm" transform="rotate(0 0 0)" />
	<line x1="127.0mm" y1="394.0mm" x2="9.0mm" y2="394.0mm" transform="rotate(0 0 0)" />
	<line x1="9.0mm" y1="394.0mm" x2="5.0mm" y2="394.0mm" transform="rotate(0 0 0)" />
	<line x1="5.0mm" y1="394.0mm" x2="5.0mm" y2="389.820833333mm" transform="rotate(0 0 0)" />
	<line x1="5.0mm" y1="389.820833333mm" x2="9.0mm" y2="389.820833333mm" transform="rotate(0 0 0)" />
	<line x1="9.0mm" y1="389.820833333mm" x2="9.0mm" y2="385.666666667mm" transform="rotate(0 0 0)" />
	<line x1="9.0mm" y1="385.666666667mm" x2="5.0mm" y2="385.666666667mm" transform="rotate(0 0 0)" />
	<line x1="5.0mm" y1="385.666666667mm" x2="5.0mm" y2="381.4875mm" transform="rotate(0 0 0)" />
	<line x1="5.0mm" y1="381.4875mm" x2="9.0mm" y2="381.4875mm" transform="rotate(0 0 0)" />
	<line x1="9.0mm" y1="381.4875mm" x2="9.0mm" y2="377.333333333mm" transform="rotate(0 0 0)" />
	<line x1="9.0mm" y1="377.333333333mm" x2="5.0mm" y2="377.333333333mm" transform="rotate(0 0 0)" />
	<line x1="5.0mm" y1="377.333333333mm" x2="5.0mm" y2="373.154166667mm" transform="rotate(0 0 0)" />
	<line x1="5.0mm" y1="373.154166667mm" x2="9.0mm" y2="373.154166667mm" transform="rotate(0 0 0)" />
	<line x1="9.0mm" y1="373.154166667mm" x2="9.0mm" y2="369.0mm" transform="rotate(0 0 0)" />
</g>
</svg>
