<?xml version="1.0"?>
<svg height="610mm" width="1220mm" >
 <g style="fill-opacity:1.0; stroke:black;
  stroke-width:0.1mm;">
	<line x1="9.0mm" y1="5.0mm" x2="121.0mm" y2="5.0mm" transform="rotate(0 0 0)" />
	<line x1="121.0mm" y1="5.0mm" x2="126.0mm" y2="30.0mm" transform="rotate(0 0 0)" />
	<line x1="126.0mm" y1="30.0mm" x2="166.0mm" y2="30.0mm" transform="rotate(0 0 0)" />
	<line x1="166.0mm" y1="30.0mm" x2="171.0mm" y2="5.0mm" transform="rotate(0 0 0)" />
	<line x1="171.0mm" y1="5.0mm" x2="227.0mm" y2="5.0mm" transform="rotate(0 0 0)" />
	<line x1="227.0mm" y1="5.0mm" x2="227.0mm" y2="13.3208333333mm" transform="rotate(0 0 0)" />
	<line x1="227.0mm" y1="13.3208333333mm" x2="231.0mm" y2="13.3208333333mm" transform="rotate(0 0 0)" />
	<line x1="231.0mm" y1="13.3208333333mm" x2="231.0mm" y2="21.6666666667mm" transform="rotate(0 0 0)" />
	<line x1="231.0mm" y1="21.6666666667mm" x2="227.0mm" y2="21.6666666667mm" transform="rotate(0 0 0)" />
	<line x1="227.0mm" y1="21.6666666667mm" x2="227.0mm" y2="29.9875mm" transform="rotate(0 0 0)" />
	<line x1="227.0mm" y1="29.9875mm" x2="231.0mm" y2="29.9875mm" transform="rotate(0 0 0)" />
	<line x1="231.0mm" y1="29.9875mm" x2="231.0mm" y2="38.3333333333mm" transform="rotate(0 0 0)" />
	<line x1="231.0mm" y1="38.3333333333mm" x2="227.0mm" y2="38.3333333333mm" transform="rotate(0 0 0)" />
	<line x1="227.0mm" y1="38.3333333333mm" x2="227.0mm" y2="46.6541666667mm" transform="rotate(0 0 0)" />
	<line x1="227.0mm" y1="46.6541666667mm" x2="231.0mm" y2="46.6541666667mm" transform="rotate(0 0 0)" />
	<line x1="231.0mm" y1="46.6541666667mm" x2="231.0mm" y2="55.0mm" transform="rotate(0 0 0)" />
	<line x1="231.0mm" y1="55.0mm" x2="227.0mm" y2="55.0mm" transform="rotate(0 0 0)" />
	<line x1="227.0mm" y1="55.0mm" x2="177.0mm" y2="55.0mm" transform="rotate(0 0 0)" />
	<line x1="177.0mm" y1="55.0mm" x2="177.0mm" y2="30.0mm" transform="rotate(0 0 0)" />
	<line x1="177.0mm" y1="30.0mm" x2="171.0mm" y2="30.0mm" transform="rotate(0 0 0)" />
	<line x1="171.0mm" y1="30.0mm" x2="171.0mm" y2="55.0mm" transform="rotate(0 0 0)" />
	<line x1="171.0mm" y1="55.0mm" x2="121.0mm" y2="55.0mm" transform="rotate(0 0 0)" />
	<line x1="121.0mm" y1="55.0mm" x2="121.0mm" y2="21.6666666667mm" transform="rotate(0 0 0)" />
	<line x1="121.0mm" y1="21.6666666667mm" x2="115.0mm" y2="21.6666666667mm" transform="rotate(0 0 0)" />
	<line x1="115.0mm" y1="21.6666666667mm" x2="115.0mm" y2="55.0mm" transform="rotate(0 0 0)" />
	<line x1="115.0mm" y1="55.0mm" x2="65.0mm" y2="55.0mm" transform="rotate(0 0 0)" />
	<line x1="65.0mm" y1="55.0mm" x2="65.0mm" y2="30.0mm" transform="rotate(0 0 0)" />
	<line x1="65.0mm" y1="30.0mm" x2="59.0mm" y2="30.0mm" transform="rotate(0 0 0)" />
	<line x1="59.0mm" y1="30.0mm" x2="59.0mm" y2="55.0mm" transform="rotate(0 0 0)" />
	<line x1="59.0mm" y1="55.0mm" x2="9.0mm" y2="55.0mm" transform="rotate(0 0 0)" />
	<line x1="9.0mm" y1="55.0mm" x2="5.0mm" y2="55.0mm" transform="rotate(0 0 0)" />
	<line x1="5.0mm" y1="55.0mm" x2="5.0mm" y2="46.6541666667mm" transform="rotate(0 0 0)" />
	<line x1="5.0mm" y1="46.6541666667mm" x2="9.0mm" y2="46.6541666667mm" transform="rotate(0 0 0)" />
	<line x1="9.0mm" y1="46.6541666667mm" x2="9.0mm" y2="38.3333333333mm" transform="rotate(0 0 0)" />
	<line x1="9.0mm" y1="38.3333333333mm" x2="5.0mm" y2="38.3333333333mm" transform="rotate(0 0 0)" />
	<line x1="5.0mm" y1="38.3333333333mm" x2="5.0mm" y2="29.9875mm" transform="rotate(0 0 0)" />
	<line x1="5.0mm" y1="29.9875mm" x2="9.0mm" y2="29.9875mm" transform="rotate(0 0 0)" />
	<line x1="9.0mm" y1="29.9875mm" x2="9.0mm" y2="21.6666666667mm" transform="rotate(0 0 0)" />
	<line x1="9.0mm" y1="21.6666666667mm" x2="5.0mm" y2="21.6666666667mm" transform="rotate(0 0 0)" />
	<line x1="5.0mm" y1="21.6666666667mm" x2="5.0mm" y2="13.3208333333mm" transform="rotate(0 0 0)" />
	<line x1="5.0mm" y1="13.3208333333mm" x2="9.0mm" y2="13.3208333333mm" transform="rotate(0 0 0)" />
	<line x1="9.0mm" y1="13.3208333333mm" x2="9.0mm" y2="5.0mm" transform="rotate(0 0 0)" />
	<line x1="232.0mm" y1="5.0mm" x2="296.0mm" y2="5.0mm" transform="rotate(0 0 0)" />
	<line x1="296.0mm" y1="5.0mm" x2="296.0mm" y2="13.3208333333mm" transform="rotate(0 0 0)" />
	<line x1="296.0mm" y1="13.3208333333mm" x2="292.0mm" y2="13.3208333333mm" transform="rotate(0 0 0)" />
	<line x1="292.0mm" y1="13.3208333333mm" x2="292.0mm" y2="21.6666666667mm" transform="rotate(0 0 0)" />
	<line x1="292.0mm" y1="21.6666666667mm" x2="296.0mm" y2="21.6666666667mm" transform="rotate(0 0 0)" />
	<line x1="296.0mm" y1="21.6666666667mm" x2="296.0mm" y2="29.9875mm" transform="rotate(0 0 0)" />
	<line x1="296.0mm" y1="29.9875mm" x2="292.0mm" y2="29.9875mm" transform="rotate(0 0 0)" />
	<line x1="292.0mm" y1="29.9875mm" x2="292.0mm" y2="38.3333333333mm" transform="rotate(0 0 0)" />
	<line x1="292.0mm" y1="38.3333333333mm" x2="296.0mm" y2="38.3333333333mm" transform="rotate(0 0 0)" />
	<line x1="296.0mm" y1="38.3333333333mm" x2="296.0mm" y2="46.6541666667mm" transform="rotate(0 0 0)" />
	<line x1="296.0mm" y1="46.6541666667mm" x2="292.0mm" y2="46.6541666667mm" transform="rotate(0 0 0)" />
	<line x1="292.0mm" y1="46.6541666667mm" x2="292.0mm" y2="55.0mm" transform="rotate(0 0 0)" />
	<line x1="292.0mm" y1="55.0mm" x2="236.0mm" y2="55.0mm" transform="rotate(0 0 0)" />
	<line x1="236.0mm" y1="55.0mm" x2="236.0mm" y2="46.6541666667mm" transform="rotate(0 0 0)" />
	<line x1="236.0mm" y1="46.6541666667mm" x2="232.0mm" y2="46.6541666667mm" transform="rotate(0 0 0)" />
	<line x1="232.0mm" y1="46.6541666667mm" x2="232.0mm" y2="38.3333333333mm" transform="rotate(0 0 0)" />
	<line x1="232.0mm" y1="38.3333333333mm" x2="236.0mm" y2="38.3333333333mm" transform="rotate(0 0 0)" />
	<line x1="236.0mm" y1="38.3333333333mm" x2="236.0mm" y2="29.9875mm" transform="rotate(0 0 0)" />
	<line x1="236.0mm" y1="29.9875mm" x2="232.0mm" y2="29.9875mm" transform="rotate(0 0 0)" />
	<line x1="232.0mm" y1="29.9875mm" x2="232.0mm" y2="21.6666666667mm" transform="rotate(0 0 0)" />
	<line x1="232.0mm" y1="21.6666666667mm" x2="236.0mm" y2="21.6666666667mm" transform="rotate(0 0 0)" />
	<line x1="236.0mm" y1="21.6666666667mm" x2="236.0mm" y2="13.3208333333mm" transform="rotate(0 0 0)" />
	<line x1="236.0mm" y1="13.3208333333mm" x2="232.0mm" y2="13.3208333333mm" transform="rotate(0 0 0)" />
	<line x1="232.0mm" y1="13.3208333333mm" x2="232.0mm" y2="5.0mm" transform="rotate(0 0 0)" />
	<line x1="9.0mm" y1="56.0mm" x2="65.0mm" y2="56.0mm" transform="rotate(0 0 0)" />
	<line x1="65.0mm" y1="56.0mm" x2="70.0mm" y2="81.0mm" transform="rotate(0 0 0)" />
	<line x1="70.0mm" y1="81.0mm" x2="110.0mm" y2="81.0mm" transform="rotate(0 0 0)" />
	<line x1="110.0mm" y1="81.0mm" x2="115.0mm" y2="56.0mm" transform="rotate(0 0 0)" />
	<line x1="115.0mm" y1="56.0mm" x2="233.0mm" y2="56.0mm" transform="rotate(0 0 0)" />
	<line x1="233.0mm" y1="56.0mm" x2="238.0mm" y2="81.0mm" transform="rotate(0 0 0)" />
	<line x1="238.0mm" y1="81.0mm" x2="283.0mm" y2="81.0mm" transform="rotate(0 0 0)" />
	<line x1="283.0mm" y1="81.0mm" x2="283.0mm" y2="106.0mm" transform="rotate(0 0 0)" />
	<line x1="283.0mm" y1="106.0mm" x2="233.0mm" y2="106.0mm" transform="rotate(0 0 0)" />
	<line x1="233.0mm" y1="106.0mm" x2="233.0mm" y2="72.6666666667mm" transform="rotate(0 0 0)" />
	<line x1="233.0mm" y1="72.6666666667mm" x2="227.0mm" y2="72.6666666667mm" transform="rotate(0 0 0)" />
	<line x1="227.0mm" y1="72.6666666667mm" x2="227.0mm" y2="106.0mm" transform="rotate(0 0 0)" />
	<line x1="227.0mm" y1="106.0mm" x2="177.0mm" y2="106.0mm" transform="rotate(0 0 0)" />
	<line x1="177.0mm" y1="106.0mm" x2="177.0mm" y2="72.6666666667mm" transform="rotate(0 0 0)" />
	<line x1="177.0mm" y1="72.6666666667mm" x2="171.0mm" y2="72.6666666667mm" transform="rotate(0 0 0)" />
	<line x1="171.0mm" y1="72.6666666667mm" x2="171.0mm" y2="106.0mm" transform="rotate(0 0 0)" />
	<line x1="171.0mm" y1="106.0mm" x2="121.0mm" y2="106.0mm" transform="rotate(0 0 0)" />
	<line x1="121.0mm" y1="106.0mm" x2="121.0mm" y2="72.6666666667mm" transform="rotate(0 0 0)" />
	<line x1="121.0mm" y1="72.6666666667mm" x2="115.0mm" y2="72.6666666667mm" transform="rotate(0 0 0)" />
	<line x1="115.0mm" y1="72.6666666667mm" x2="115.0mm" y2="106.0mm" transform="rotate(0 0 0)" />
	<line x1="115.0mm" y1="106.0mm" x2="65.0mm" y2="106.0mm" transform="rotate(0 0 0)" />
	<line x1="65.0mm" y1="106.0mm" x2="65.0mm" y2="72.6666666667mm" transform="rotate(0 0 0)" />
	<line x1="65.0mm" y1="72.6666666667mm" x2="59.0mm" y2="72.6666666667mm" transform="rotate(0 0 0)" />
	<line x1="59.0mm" y1="72.6666666667mm" x2="59.0mm" y2="106.0mm" transform="rotate(0 0 0)" />
	<line x1="59.0mm" y1="106.0mm" x2="9.0mm" y2="106.0mm" transform="rotate(0 0 0)" />
	<line x1="9.0mm" y1="106.0mm" x2="9.0mm" y2="56.0mm" transform="rotate(0 0 0)" />
	<line x1="9.0mm" y1="107.0mm" x2="121.0mm" y2="107.0mm" transform="rotate(0 0 0)" />
	<line x1="121.0mm" y1="107.0mm" x2="126.0mm" y2="132.0mm" transform="rotate(0 0 0)" />
	<line x1="126.0mm" y1="132.0mm" x2="166.0mm" y2="132.0mm" transform="rotate(0 0 0)" />
	<line x1="166.0mm" y1="132.0mm" x2="171.0mm" y2="107.0mm" transform="rotate(0 0 0)" />
	<line x1="171.0mm" y1="107.0mm" x2="227.0mm" y2="107.0mm" transform="rotate(0 0 0)" />
	<line x1="227.0mm" y1="107.0mm" x2="227.0mm" y2="157.0mm" transform="rotate(0 0 0)" />
	<line x1="227.0mm" y1="157.0mm" x2="177.0mm" y2="157.0mm" transform="rotate(0 0 0)" />
	<line x1="177.0mm" y1="157.0mm" x2="177.0mm" y2="123.666666667mm" transform="rotate(0 0 0)" />
	<line x1="177.0mm" y1="123.666666667mm" x2="171.0mm" y2="123.666666667mm" transform="rotate(0 0 0)" />
	<line x1="171.0mm" y1="123.666666667mm" x2="171.0mm" y2="157.0mm" transform="rotate(0 0 0)" />
	<line x1="171.0mm" y1="157.0mm" x2="121.0mm" y2="157.0mm" transform="rotate(0 0 0)" />
	<line x1="121.0mm" y1="157.0mm" x2="121.0mm" y2="123.666666667mm" transform="rotate(0 0 0)" />
	<line x1="121.0mm" y1="123.666666667mm" x2="115.0mm" y2="123.666666667mm" transform="rotate(0 0 0)" />
	<line x1="115.0mm" y1="123.666666667mm" x2="115.0mm" y2="157.0mm" transform="rotate(0 0 0)" />
	<line x1="115.0mm" y1="157.0mm" x2="65.0mm" y2="157.0mm" transform="rotate(0 0 0)" />
	<line x1="65.0mm" y1="157.0mm" x2="65.0mm" y2="123.666666667mm" transform="rotate(0 0 0)" />
	<line x1="65.0mm" y1="123.666666667mm" x2="59.0mm" y2="123.666666667mm" transform="rotate(0 0 0)" />
	<line x1="59.0mm" y1="123.666666667mm" x2="59.0mm" y2="157.0mm" transform="rotate(0 0 0)" />
	<line x1="59.0mm" y1="157.0mm" x2="9.0mm" y2="157.0mm" transform="rotate(0 0 0)" />
	<line x1="9.0mm" y1="157.0mm" x2="9.0mm" y2="107.0mm" transform="rotate(0 0 0)" />
	<line x1="228.0mm" y1="107.0mm" x2="292.0mm" y2="107.0mm" transform="rotate(0 0 0)" />
	<line x1="292.0mm" y1="107.0mm" x2="292.0mm" y2="115.320833333mm" transform="rotate(0 0 0)" />
	<line x1="292.0mm" y1="115.320833333mm" x2="288.0mm" y2="115.320833333mm" transform="rotate(0 0 0)" />
	<line x1="288.0mm" y1="115.320833333mm" x2="288.0mm" y2="123.666666667mm" transform="rotate(0 0 0)" />
	<line x1="288.0mm" y1="123.666666667mm" x2="292.0mm" y2="123.666666667mm" transform="rotate(0 0 0)" />
	<line x1="292.0mm" y1="123.666666667mm" x2="292.0mm" y2="131.9875mm" transform="rotate(0 0 0)" />
	<line x1="292.0mm" y1="131.9875mm" x2="288.0mm" y2="131.9875mm" transform="rotate(0 0 0)" />
	<line x1="288.0mm" y1="131.9875mm" x2="288.0mm" y2="140.333333333mm" transform="rotate(0 0 0)" />
	<line x1="288.0mm" y1="140.333333333mm" x2="292.0mm" y2="140.333333333mm" transform="rotate(0 0 0)" />
	<line x1="292.0mm" y1="140.333333333mm" x2="292.0mm" y2="148.654166667mm" transform="rotate(0 0 0)" />
	<line x1="292.0mm" y1="148.654166667mm" x2="288.0mm" y2="148.654166667mm" transform="rotate(0 0 0)" />
	<line x1="288.0mm" y1="148.654166667mm" x2="288.0mm" y2="157.0mm" transform="rotate(0 0 0)" />
	<line x1="288.0mm" y1="157.0mm" x2="232.0mm" y2="157.0mm" transform="rotate(0 0 0)" />
	<line x1="232.0mm" y1="157.0mm" x2="232.0mm" y2="148.654166667mm" transform="rotate(0 0 0)" />
	<line x1="232.0mm" y1="148.654166667mm" x2="228.0mm" y2="148.654166667mm" transform="rotate(0 0 0)" />
	<line x1="228.0mm" y1="148.654166667mm" x2="228.0mm" y2="140.333333333mm" transform="rotate(0 0 0)" />
	<line x1="228.0mm" y1="140.333333333mm" x2="232.0mm" y2="140.333333333mm" transform="rotate(0 0 0)" />
	<line x1="232.0mm" y1="140.333333333mm" x2="232.0mm" y2="131.9875mm" transform="rotate(0 0 0)" />
	<line x1="232.0mm" y1="131.9875mm" x2="228.0mm" y2="131.9875mm" transform="rotate(0 0 0)" />
	<line x1="228.0mm" y1="131.9875mm" x2="228.0mm" y2="123.666666667mm" transform="rotate(0 0 0)" />
	<line x1="228.0mm" y1="123.666666667mm" x2="232.0mm" y2="123.666666667mm" transform="rotate(0 0 0)" />
	<line x1="232.0mm" y1="123.666666667mm" x2="232.0mm" y2="115.320833333mm" transform="rotate(0 0 0)" />
	<line x1="232.0mm" y1="115.320833333mm" x2="228.0mm" y2="115.320833333mm" transform="rotate(0 0 0)" />
	<line x1="228.0mm" y1="115.320833333mm" x2="228.0mm" y2="107.0mm" transform="rotate(0 0 0)" />
	<line x1="9.0mm" y1="158.0mm" x2="65.0mm" y2="158.0mm" transform="rotate(0 0 0)" />
	<line x1="65.0mm" y1="158.0mm" x2="70.0mm" y2="183.0mm" transform="rotate(0 0 0)" />
	<line x1="70.0mm" y1="183.0mm" x2="110.0mm" y2="183.0mm" transform="rotate(0 0 0)" />
	<line x1="110.0mm" y1="183.0mm" x2="115.0mm" y2="158.0mm" transform="rotate(0 0 0)" />
	<line x1="115.0mm" y1="158.0mm" x2="233.0mm" y2="158.0mm" transform="rotate(0 0 0)" />
	<line x1="233.0mm" y1="158.0mm" x2="238.0mm" y2="183.0mm" transform="rotate(0 0 0)" />
	<line x1="238.0mm" y1="183.0mm" x2="283.0mm" y2="183.0mm" transform="rotate(0 0 0)" />
	<line x1="283.0mm" y1="183.0mm" x2="283.0mm" y2="208.0mm" transform="rotate(0 0 0)" />
	<line x1="283.0mm" y1="208.0mm" x2="233.0mm" y2="208.0mm" transform="rotate(0 0 0)" />
	<line x1="233.0mm" y1="208.0mm" x2="233.0mm" y2="174.666666667mm" transform="rotate(0 0 0)" />
	<line x1="233.0mm" y1="174.666666667mm" x2="227.0mm" y2="174.666666667mm" transform="rotate(0 0 0)" />
	<line x1="227.0mm" y1="174.666666667mm" x2="227.0mm" y2="208.0mm" transform="rotate(0 0 0)" />
	<line x1="227.0mm" y1="208.0mm" x2="177.0mm" y2="208.0mm" transform="rotate(0 0 0)" />
	<line x1="177.0mm" y1="208.0mm" x2="177.0mm" y2="174.666666667mm" transform="rotate(0 0 0)" />
	<line x1="177.0mm" y1="174.666666667mm" x2="171.0mm" y2="174.666666667mm" transform="rotate(0 0 0)" />
	<line x1="171.0mm" y1="174.666666667mm" x2="171.0mm" y2="208.0mm" transform="rotate(0 0 0)" />
	<line x1="171.0mm" y1="208.0mm" x2="121.0mm" y2="208.0mm" transform="rotate(0 0 0)" />
	<line x1="121.0mm" y1="208.0mm" x2="121.0mm" y2="174.666666667mm" transform="rotate(0 0 0)" />
	<line x1="121.0mm" y1="174.666666667mm" x2="115.0mm" y2="174.666666667mm" transform="rotate(0 0 0)" />
	<line x1="115.0mm" y1="174.666666667mm" x2="115.0mm" y2="208.0mm" transform="rotate(0 0 0)" />
	<line x1="115.0mm" y1="208.0mm" x2="65.0mm" y2="208.0mm" transform="rotate(0 0 0)" />
	<line x1="65.0mm" y1="208.0mm" x2="65.0mm" y2="174.666666667mm" transform="rotate(0 0 0)" />
	<line x1="65.0mm" y1="174.666666667mm" x2="59.0mm" y2="174.666666667mm" transform="rotate(0 0 0)" />
	<line x1="59.0mm" y1="174.666666667mm" x2="59.0mm" y2="208.0mm" transform="rotate(0 0 0)" />
	<line x1="59.0mm" y1="208.0mm" x2="9.0mm" y2="208.0mm" transform="rotate(0 0 0)" />
	<line x1="9.0mm" y1="208.0mm" x2="9.0mm" y2="158.0mm" transform="rotate(0 0 0)" />
	<line x1="9.0mm" y1="209.0mm" x2="121.0mm" y2="209.0mm" transform="rotate(0 0 0)" />
	<line x1="121.0mm" y1="209.0mm" x2="126.0mm" y2="234.0mm" transform="rotate(0 0 0)" />
	<line x1="126.0mm" y1="234.0mm" x2="166.0mm" y2="234.0mm" transform="rotate(0 0 0)" />
	<line x1="166.0mm" y1="234.0mm" x2="171.0mm" y2="209.0mm" transform="rotate(0 0 0)" />
	<line x1="171.0mm" y1="209.0mm" x2="227.0mm" y2="209.0mm" transform="rotate(0 0 0)" />
	<line x1="227.0mm" y1="209.0mm" x2="227.0mm" y2="217.320833333mm" transform="rotate(0 0 0)" />
	<line x1="227.0mm" y1="217.320833333mm" x2="231.0mm" y2="217.320833333mm" transform="rotate(0 0 0)" />
	<line x1="231.0mm" y1="217.320833333mm" x2="231.0mm" y2="225.666666667mm" transform="rotate(0 0 0)" />
	<line x1="231.0mm" y1="225.666666667mm" x2="227.0mm" y2="225.666666667mm" transform="rotate(0 0 0)" />
	<line x1="227.0mm" y1="225.666666667mm" x2="227.0mm" y2="233.9875mm" transform="rotate(0 0 0)" />
	<line x1="227.0mm" y1="233.9875mm" x2="231.0mm" y2="233.9875mm" transform="rotate(0 0 0)" />
	<line x1="231.0mm" y1="233.9875mm" x2="231.0mm" y2="242.333333333mm" transform="rotate(0 0 0)" />
	<line x1="231.0mm" y1="242.333333333mm" x2="227.0mm" y2="242.333333333mm" transform="rotate(0 0 0)" />
	<line x1="227.0mm" y1="242.333333333mm" x2="227.0mm" y2="250.654166667mm" transform="rotate(0 0 0)" />
	<line x1="227.0mm" y1="250.654166667mm" x2="231.0mm" y2="250.654166667mm" transform="rotate(0 0 0)" />
	<line x1="231.0mm" y1="250.654166667mm" x2="231.0mm" y2="259.0mm" transform="rotate(0 0 0)" />
	<line x1="231.0mm" y1="259.0mm" x2="227.0mm" y2="259.0mm" transform="rotate(0 0 0)" />
	<line x1="227.0mm" y1="259.0mm" x2="177.0mm" y2="259.0mm" transform="rotate(0 0 0)" />
	<line x1="177.0mm" y1="259.0mm" x2="177.0mm" y2="234.0mm" transform="rotate(0 0 0)" />
	<line x1="177.0mm" y1="234.0mm" x2="171.0mm" y2="234.0mm" transform="rotate(0 0 0)" />
	<line x1="171.0mm" y1="234.0mm" x2="171.0mm" y2="259.0mm" transform="rotate(0 0 0)" />
	<line x1="171.0mm" y1="259.0mm" x2="121.0mm" y2="259.0mm" transform="rotate(0 0 0)" />
	<line x1="121.0mm" y1="259.0mm" x2="121.0mm" y2="225.666666667mm" transform="rotate(0 0 0)" />
	<line x1="121.0mm" y1="225.666666667mm" x2="115.0mm" y2="225.666666667mm" transform="rotate(0 0 0)" />
	<line x1="115.0mm" y1="225.666666667mm" x2="115.0mm" y2="259.0mm" transform="rotate(0 0 0)" />
	<line x1="115.0mm" y1="259.0mm" x2="65.0mm" y2="259.0mm" transform="rotate(0 0 0)" />
	<line x1="65.0mm" y1="259.0mm" x2="65.0mm" y2="234.0mm" transform="rotate(0 0 0)" />
	<line x1="65.0mm" y1="234.0mm" x2="59.0mm" y2="234.0mm" transform="rotate(0 0 0)" />
	<line x1="59.0mm" y1="234.0mm" x2="59.0mm" y2="259.0mm" transform="rotate(0 0 0)" />
	<line x1="59.0mm" y1="259.0mm" x2="9.0mm" y2="259.0mm" transform="rotate(0 0 0)" />
	<line x1="9.0mm" y1="259.0mm" x2="5.0mm" y2="259.0mm" transform="rotate(0 0 0)" />
	<line x1="5.0mm" y1="259.0mm" x2="5.0mm" y2="250.654166667mm" transform="rotate(0 0 0)" />
	<line x1="5.0mm" y1="250.654166667mm" x2="9.0mm" y2="250.654166667mm" transform="rotate(0 0 0)" />
	<line x1="9.0mm" y1="250.654166667mm" x2="9.0mm" y2="242.333333333mm" transform="rotate(0 0 0)" />
	<line x1="9.0mm" y1="242.333333333mm" x2="5.0mm" y2="242.333333333mm" transform="rotate(0 0 0)" />
	<line x1="5.0mm" y1="242.333333333mm" x2="5.0mm" y2="233.9875mm" transform="rotate(0 0 0)" />
	<line x1="5.0mm" y1="233.9875mm" x2="9.0mm" y2="233.9875mm" transform="rotate(0 0 0)" />
	<line x1="9.0mm" y1="233.9875mm" x2="9.0mm" y2="225.666666667mm" transform="rotate(0 0 0)" />
	<line x1="9.0mm" y1="225.666666667mm" x2="5.0mm" y2="225.666666667mm" transform="rotate(0 0 0)" />
	<line x1="5.0mm" y1="225.666666667mm" x2="5.0mm" y2="217.320833333mm" transform="rotate(0 0 0)" />
	<line x1="5.0mm" y1="217.320833333mm" x2="9.0mm" y2="217.320833333mm" transform="rotate(0 0 0)" />
	<line x1="9.0mm" y1="217.320833333mm" x2="9.0mm" y2="209.0mm" transform="rotate(0 0 0)" />
	<line x1="232.0mm" y1="209.0mm" x2="296.0mm" y2="209.0mm" transform="rotate(0 0 0)" />
	<line x1="296.0mm" y1="209.0mm" x2="296.0mm" y2="217.320833333mm" transform="rotate(0 0 0)" />
	<line x1="296.0mm" y1="217.320833333mm" x2="292.0mm" y2="217.320833333mm" transform="rotate(0 0 0)" />
	<line x1="292.0mm" y1="217.320833333mm" x2="292.0mm" y2="225.666666667mm" transform="rotate(0 0 0)" />
	<line x1="292.0mm" y1="225.666666667mm" x2="296.0mm" y2="225.666666667mm" transform="rotate(0 0 0)" />
	<line x1="296.0mm" y1="225.666666667mm" x2="296.0mm" y2="233.9875mm" transform="rotate(0 0 0)" />
	<line x1="296.0mm" y1="233.9875mm" x2="292.0mm" y2="233.9875mm" transform="rotate(0 0 0)" />
	<line x1="292.0mm" y1="233.9875mm" x2="292.0mm" y2="242.333333333mm" transform="rotate(0 0 0)" />
	<line x1="292.0mm" y1="242.333333333mm" x2="296.0mm" y2="242.333333333mm" transform="rotate(0 0 0)" />
	<line x1="296.0mm" y1="242.333333333mm" x2="296.0mm" y2="250.654166667mm" transform="rotate(0 0 0)" />
	<line x1="296.0mm" y1="250.654166667mm" x2="292.0mm" y2="250.654166667mm" transform="rotate(0 0 0)" />
	<line x1="292.0mm" y1="250.654166667mm" x2="292.0mm" y2="259.0mm" transform="rotate(0 0 0)" />
	<line x1="292.0mm" y1="259.0mm" x2="236.0mm" y2="259.0mm" transform="rotate(0 0 0)" />
	<line x1="236.0mm" y1="259.0mm" x2="236.0mm" y2="250.654166667mm" transform="rotate(0 0 0)" />
	<line x1="236.0mm" y1="250.654166667mm" x2="232.0mm" y2="250.654166667mm" transform="rotate(0 0 0)" />
	<line x1="232.0mm" y1="250.654166667mm" x2="232.0mm" y2="242.333333333mm" transform="rotate(0 0 0)" />
	<line x1="232.0mm" y1="242.333333333mm" x2="236.0mm" y2="242.333333333mm" transform="rotate(0 0 0)" />
	<line x1="236.0mm" y1="242.333333333mm" x2="236.0mm" y2="233.9875mm" transform="rotate(0 0 0)" />
	<line x1="236.0mm" y1="233.9875mm" x2="232.0mm" y2="233.9875mm" transform="rotate(0 0 0)" />
	<line x1="232.0mm" y1="233.9875mm" x2="232.0mm" y2="225.666666667mm" transform="rotate(0 0 0)" />
	<line x1="232.0mm" y1="225.666666667mm" x2="236.0mm" y2="225.666666667mm" transform="rotate(0 0 0)" />
	<line x1="236.0mm" y1="225.666666667mm" x2="236.0mm" y2="217.320833333mm" transform="rotate(0 0 0)" />
	<line x1="236.0mm" y1="217.320833333mm" x2="232.0mm" y2="217.320833333mm" transform="rotate(0 0 0)" />
	<line x1="232.0mm" y1="217.320833333mm" x2="232.0mm" y2="209.0mm" transform="rotate(0 0 0)" />
	<line x1="9.0mm" y1="260.0mm" x2="65.0mm" y2="260.0mm" transform="rotate(0 0 0)" />
	<line x1="65.0mm" y1="260.0mm" x2="70.0mm" y2="285.0mm" transform="rotate(0 0 0)" />
	<line x1="70.0mm" y1="285.0mm" x2="115.0mm" y2="285.0mm" transform="rotate(0 0 0)" />
	<line x1="115.0mm" y1="285.0mm" x2="115.0mm" y2="276.666666667mm" transform="rotate(0 0 0)" />
	<line x1="115.0mm" y1="276.666666667mm" x2="121.0mm" y2="276.666666667mm" transform="rotate(0 0 0)" />
	<line x1="121.0mm" y1="276.666666667mm" x2="121.0mm" y2="260.0mm" transform="rotate(0 0 0)" />
	<line x1="121.0mm" y1="260.0mm" x2="177.0mm" y2="260.0mm" transform="rotate(0 0 0)" />
	<line x1="177.0mm" y1="260.0mm" x2="227.0mm" y2="260.0mm" transform="rotate(0 0 0)" />
	<line x1="227.0mm" y1="260.0mm" x2="227.0mm" y2="268.320833333mm" transform="rotate(0 0 0)" />
	<line x1="227.0mm" y1="268.320833333mm" x2="231.0mm" y2="268.320833333mm" transform="rotate(0 0 0)" />
	<line x1="231.0mm" y1="268.320833333mm" x2="231.0mm" y2="276.666666667mm" transform="rotate(0 0 0)" />
	<line x1="231.0mm" y1="276.666666667mm" x2="227.0mm" y2="276.666666667mm" transform="rotate(0 0 0)" />
	<line x1="227.0mm" y1="276.666666667mm" x2="227.0mm" y2="284.9875mm" transform="rotate(0 0 0)" />
	<line x1="227.0mm" y1="284.9875mm" x2="231.0mm" y2="284.9875mm" transform="rotate(0 0 0)" />
	<line x1="231.0mm" y1="284.9875mm" x2="231.0mm" y2="293.333333333mm" transform="rotate(0 0 0)" />
	<line x1="231.0mm" y1="293.333333333mm" x2="227.0mm" y2="293.333333333mm" transform="rotate(0 0 0)" />
	<line x1="227.0mm" y1="293.333333333mm" x2="227.0mm" y2="301.654166667mm" transform="rotate(0 0 0)" />
	<line x1="227.0mm" y1="301.654166667mm" x2="231.0mm" y2="301.654166667mm" transform="rotate(0 0 0)" />
	<line x1="231.0mm" y1="301.654166667mm" x2="231.0mm" y2="310.0mm" transform="rotate(0 0 0)" />
	<line x1="231.0mm" y1="310.0mm" x2="227.0mm" y2="310.0mm" transform="rotate(0 0 0)" />
	<line x1="227.0mm" y1="310.0mm" x2="177.0mm" y2="310.0mm" transform="rotate(0 0 0)" />
	<line x1="177.0mm" y1="310.0mm" x2="177.0mm" y2="285.0mm" transform="rotate(0 0 0)" />
	<line x1="177.0mm" y1="285.0mm" x2="171.0mm" y2="285.0mm" transform="rotate(0 0 0)" />
	<line x1="171.0mm" y1="285.0mm" x2="171.0mm" y2="310.0mm" transform="rotate(0 0 0)" />
	<line x1="171.0mm" y1="310.0mm" x2="121.0mm" y2="310.0mm" transform="rotate(0 0 0)" />
	<line x1="121.0mm" y1="310.0mm" x2="121.0mm" y2="293.333333333mm" transform="rotate(0 0 0)" />
	<line x1="121.0mm" y1="293.333333333mm" x2="115.0mm" y2="293.333333333mm" transform="rotate(0 0 0)" />
	<line x1="115.0mm" y1="293.333333333mm" x2="115.0mm" y2="310.0mm" transform="rotate(0 0 0)" />
	<line x1="115.0mm" y1="310.0mm" x2="65.0mm" y2="310.0mm" transform="rotate(0 0 0)" />
	<line x1="65.0mm" y1="310.0mm" x2="65.0mm" y2="285.0mm" transform="rotate(0 0 0)" />
	<line x1="65.0mm" y1="285.0mm" x2="59.0mm" y2="285.0mm" transform="rotate(0 0 0)" />
	<line x1="59.0mm" y1="285.0mm" x2="59.0mm" y2="310.0mm" transform="rotate(0 0 0)" />
	<line x1="59.0mm" y1="310.0mm" x2="9.0mm" y2="310.0mm" transform="rotate(0 0 0)" />
	<line x1="9.0mm" y1="310.0mm" x2="5.0mm" y2="310.0mm" transform="rotate(0 0 0)" />
	<line x1="5.0mm" y1="310.0mm" x2="5.0mm" y2="301.654166667mm" transform="rotate(0 0 0)" />
	<line x1="5.0mm" y1="301.654166667mm" x2="9.0mm" y2="301.654166667mm" transform="rotate(0 0 0)" />
	<line x1="9.0mm" y1="301.654166667mm" x2="9.0mm" y2="293.333333333mm" transform="rotate(0 0 0)" />
	<line x1="9.0mm" y1="293.333333333mm" x2="5.0mm" y2="293.333333333mm" transform="rotate(0 0 0)" />
	<line x1="5.0mm" y1="293.333333333mm" x2="5.0mm" y2="284.9875mm" transform="rotate(0 0 0)" />
	<line x1="5.0mm" y1="284.9875mm" x2="9.0mm" y2="284.9875mm" transform="rotate(0 0 0)" />
	<line x1="9.0mm" y1="284.9875mm" x2="9.0mm" y2="276.666666667mm" transform="rotate(0 0 0)" />
	<line x1="9.0mm" y1="276.666666667mm" x2="5.0mm" y2="276.666666667mm" transform="rotate(0 0 0)" />
	<line x1="5.0mm" y1="276.666666667mm" x2="5.0mm" y2="268.320833333mm" transform="rotate(0 0 0)" />
	<line x1="5.0mm" y1="268.320833333mm" x2="9.0mm" y2="268.320833333mm" transform="rotate(0 0 0)" />
	<line x1="9.0mm" y1="268.320833333mm" x2="9.0mm" y2="260.0mm" transform="rotate(0 0 0)" />
	<line x1="232.0mm" y1="260.0mm" x2="296.0mm" y2="260.0mm" transform="rotate(0 0 0)" />
	<line x1="296.0mm" y1="260.0mm" x2="296.0mm" y2="268.320833333mm" transform="rotate(0 0 0)" />
	<line x1="296.0mm" y1="268.320833333mm" x2="292.0mm" y2="268.320833333mm" transform="rotate(0 0 0)" />
	<line x1="292.0mm" y1="268.320833333mm" x2="292.0mm" y2="276.666666667mm" transform="rotate(0 0 0)" />
	<line x1="292.0mm" y1="276.666666667mm" x2="296.0mm" y2="276.666666667mm" transform="rotate(0 0 0)" />
	<line x1="296.0mm" y1="276.666666667mm" x2="296.0mm" y2="284.9875mm" transform="rotate(0 0 0)" />
	<line x1="296.0mm" y1="284.9875mm" x2="292.0mm" y2="284.9875mm" transform="rotate(0 0 0)" />
	<line x1="292.0mm" y1="284.9875mm" x2="292.0mm" y2="293.333333333mm" transform="rotate(0 0 0)" />
	<line x1="292.0mm" y1="293.333333333mm" x2="296.0mm" y2="293.333333333mm" transform="rotate(0 0 0)" />
	<line x1="296.0mm" y1="293.333333333mm" x2="296.0mm" y2="301.654166667mm" transform="rotate(0 0 0)" />
	<line x1="296.0mm" y1="301.654166667mm" x2="292.0mm" y2="301.654166667mm" transform="rotate(0 0 0)" />
	<line x1="292.0mm" y1="301.654166667mm" x2="292.0mm" y2="310.0mm" transform="rotate(0 0 0)" />
	<line x1="292.0mm" y1="310.0mm" x2="236.0mm" y2="310.0mm" transform="rotate(0 0 0)" />
	<line x1="236.0mm" y1="310.0mm" x2="236.0mm" y2="301.654166667mm" transform="rotate(0 0 0)" />
	<line x1="236.0mm" y1="301.654166667mm" x2="232.0mm" y2="301.654166667mm" transform="rotate(0 0 0)" />
	<line x1="232.0mm" y1="301.654166667mm" x2="232.0mm" y2="293.333333333mm" transform="rotate(0 0 0)" />
	<line x1="232.0mm" y1="293.333333333mm" x2="236.0mm" y2="293.333333333mm" transform="rotate(0 0 0)" />
	<line x1="236.0mm" y1="293.333333333mm" x2="236.0mm" y2="284.9875mm" transform="rotate(0 0 0)" />
	<line x1="236.0mm" y1="284.9875mm" x2="232.0mm" y2="284.9875mm" transform="rotate(0 0 0)" />
	<line x1="232.0mm" y1="284.9875mm" x2="232.0mm" y2="276.666666667mm" transform="rotate(0 0 0)" />
	<line x1="232.0mm" y1="276.666666667mm" x2="236.0mm" y2="276.666666667mm" transform="rotate(0 0 0)" />
	<line x1="236.0mm" y1="276.666666667mm" x2="236.0mm" y2="268.320833333mm" transform="rotate(0 0 0)" />
	<line x1="236.0mm" y1="268.320833333mm" x2="232.0mm" y2="268.320833333mm" transform="rotate(0 0 0)" />
	<line x1="232.0mm" y1="268.320833333mm" x2="232.0mm" y2="260.0mm" transform="rotate(0 0 0)" />
	<line x1="9.0mm" y1="311.0mm" x2="59.0mm" y2="311.0mm" transform="rotate(0 0 0)" />
	<line x1="59.0mm" y1="311.0mm" x2="59.0mm" y2="327.666666667mm" transform="rotate(0 0 0)" />
	<line x1="59.0mm" y1="327.666666667mm" x2="65.0mm" y2="327.666666667mm" transform="rotate(0 0 0)" />
	<line x1="65.0mm" y1="327.666666667mm" x2="65.0mm" y2="336.0mm" transform="rotate(0 0 0)" />
	<line x1="65.0mm" y1="336.0mm" x2="115.0mm" y2="336.0mm" transform="rotate(0 0 0)" />
	<line x1="115.0mm" y1="336.0mm" x2="115.0mm" y2="327.666666667mm" transform="rotate(0 0 0)" />
	<line x1="115.0mm" y1="327.666666667mm" x2="121.0mm" y2="327.666666667mm" transform="rotate(0 0 0)" />
	<line x1="121.0mm" y1="327.666666667mm" x2="121.0mm" y2="311.0mm" transform="rotate(0 0 0)" />
	<line x1="121.0mm" y1="311.0mm" x2="171.0mm" y2="311.0mm" transform="rotate(0 0 0)" />
	<line x1="171.0mm" y1="311.0mm" x2="171.0mm" y2="327.666666667mm" transform="rotate(0 0 0)" />
	<line x1="171.0mm" y1="327.666666667mm" x2="177.0mm" y2="327.666666667mm" transform="rotate(0 0 0)" />
	<line x1="177.0mm" y1="327.666666667mm" x2="177.0mm" y2="311.0mm" transform="rotate(0 0 0)" />
	<line x1="177.0mm" y1="311.0mm" x2="227.0mm" y2="311.0mm" transform="rotate(0 0 0)" />
	<line x1="227.0mm" y1="311.0mm" x2="227.0mm" y2="327.666666667mm" transform="rotate(0 0 0)" />
	<line x1="227.0mm" y1="327.666666667mm" x2="233.0mm" y2="327.666666667mm" transform="rotate(0 0 0)" />
	<line x1="233.0mm" y1="327.666666667mm" x2="233.0mm" y2="336.0mm" transform="rotate(0 0 0)" />
	<line x1="233.0mm" y1="336.0mm" x2="283.0mm" y2="336.0mm" transform="rotate(0 0 0)" />
	<line x1="283.0mm" y1="336.0mm" x2="283.0mm" y2="361.0mm" transform="rotate(0 0 0)" />
	<line x1="283.0mm" y1="361.0mm" x2="233.0mm" y2="361.0mm" transform="rotate(0 0 0)" />
	<line x1="233.0mm" y1="361.0mm" x2="233.0mm" y2="344.333333333mm" transform="rotate(0 0 0)" />
	<line x1="233.0mm" y1="344.333333333mm" x2="227.0mm" y2="344.333333333mm" transform="rotate(0 0 0)" />
	<line x1="227.0mm" y1="344.333333333mm" x2="227.0mm" y2="361.0mm" transform="rotate(0 0 0)" />
	<line x1="227.0mm" y1="361.0mm" x2="177.0mm" y2="361.0mm" transform="rotate(0 0 0)" />
	<line x1="177.0mm" y1="361.0mm" x2="177.0mm" y2="344.333333333mm" transform="rotate(0 0 0)" />
	<line x1="177.0mm" y1="344.333333333mm" x2="171.0mm" y2="344.333333333mm" transform="rotate(0 0 0)" />
	<line x1="171.0mm" y1="344.333333333mm" x2="171.0mm" y2="361.0mm" transform="rotate(0 0 0)" />
	<line x1="171.0mm" y1="361.0mm" x2="121.0mm" y2="361.0mm" transform="rotate(0 0 0)" />
	<line x1="121.0mm" y1="361.0mm" x2="121.0mm" y2="344.333333333mm" transform="rotate(0 0 0)" />
	<line x1="121.0mm" y1="344.333333333mm" x2="115.0mm" y2="344.333333333mm" transform="rotate(0 0 0)" />
	<line x1="115.0mm" y1="344.333333333mm" x2="115.0mm" y2="361.0mm" transform="rotate(0 0 0)" />
	<line x1="115.0mm" y1="361.0mm" x2="65.0mm" y2="361.0mm" transform="rotate(0 0 0)" />
	<line x1="65.0mm" y1="361.0mm" x2="65.0mm" y2="344.333333333mm" transform="rotate(0 0 0)" />
	<line x1="65.0mm" y1="344.333333333mm" x2="59.0mm" y2="344.333333333mm" transform="rotate(0 0 0)" />
	<line x1="59.0mm" y1="344.333333333mm" x2="59.0mm" y2="361.0mm" transform="rotate(0 0 0)" />
	<line x1="59.0mm" y1="361.0mm" x2="9.0mm" y2="361.0mm" transform="rotate(0 0 0)" />
	<line x1="9.0mm" y1="361.0mm" x2="9.0mm" y2="311.0mm" transform="rotate(0 0 0)" />
	<line x1="9.0mm" y1="362.0mm" x2="59.0mm" y2="362.0mm" transform="rotate(0 0 0)" />
	<line x1="59.0mm" y1="362.0mm" x2="59.0mm" y2="378.666666667mm" transform="rotate(0 0 0)" />
	<line x1="59.0mm" y1="378.666666667mm" x2="65.0mm" y2="378.666666667mm" transform="rotate(0 0 0)" />
	<line x1="65.0mm" y1="378.666666667mm" x2="65.0mm" y2="387.0mm" transform="rotate(0 0 0)" />
	<line x1="65.0mm" y1="387.0mm" x2="115.0mm" y2="387.0mm" transform="rotate(0 0 0)" />
	<line x1="115.0mm" y1="387.0mm" x2="115.0mm" y2="378.666666667mm" transform="rotate(0 0 0)" />
	<line x1="115.0mm" y1="378.666666667mm" x2="121.0mm" y2="378.666666667mm" transform="rotate(0 0 0)" />
	<line x1="121.0mm" y1="378.666666667mm" x2="121.0mm" y2="362.0mm" transform="rotate(0 0 0)" />
	<line x1="121.0mm" y1="362.0mm" x2="171.0mm" y2="362.0mm" transform="rotate(0 0 0)" />
	<line x1="171.0mm" y1="362.0mm" x2="171.0mm" y2="378.666666667mm" transform="rotate(0 0 0)" />
	<line x1="171.0mm" y1="378.666666667mm" x2="177.0mm" y2="378.666666667mm" transform="rotate(0 0 0)" />
	<line x1="177.0mm" y1="378.666666667mm" x2="177.0mm" y2="362.0mm" transform="rotate(0 0 0)" />
	<line x1="177.0mm" y1="362.0mm" x2="227.0mm" y2="362.0mm" transform="rotate(0 0 0)" />
	<line x1="227.0mm" y1="362.0mm" x2="227.0mm" y2="412.0mm" transform="rotate(0 0 0)" />
	<line x1="227.0mm" y1="412.0mm" x2="177.0mm" y2="412.0mm" transform="rotate(0 0 0)" />
	<line x1="177.0mm" y1="412.0mm" x2="177.0mm" y2="395.333333333mm" transform="rotate(0 0 0)" />
	<line x1="177.0mm" y1="395.333333333mm" x2="171.0mm" y2="395.333333333mm" transform="rotate(0 0 0)" />
	<line x1="171.0mm" y1="395.333333333mm" x2="171.0mm" y2="412.0mm" transform="rotate(0 0 0)" />
	<line x1="171.0mm" y1="412.0mm" x2="121.0mm" y2="412.0mm" transform="rotate(0 0 0)" />
	<line x1="121.0mm" y1="412.0mm" x2="121.0mm" y2="395.333333333mm" transform="rotate(0 0 0)" />
	<line x1="121.0mm" y1="395.333333333mm" x2="115.0mm" y2="395.333333333mm" transform="rotate(0 0 0)" />
	<line x1="115.0mm" y1="395.333333333mm" x2="115.0mm" y2="412.0mm" transform="rotate(0 0 0)" />
	<line x1="115.0mm" y1="412.0mm" x2="65.0mm" y2="412.0mm" transform="rotate(0 0 0)" />
	<line x1="65.0mm" y1="412.0mm" x2="65.0mm" y2="395.333333333mm" transform="rotate(0 0 0)" />
	<line x1="65.0mm" y1="395.333333333mm" x2="59.0mm" y2="395.333333333mm" transform="rotate(0 0 0)" />
	<line x1="59.0mm" y1="395.333333333mm" x2="59.0mm" y2="412.0mm" transform="rotate(0 0 0)" />
	<line x1="59.0mm" y1="412.0mm" x2="9.0mm" y2="412.0mm" transform="rotate(0 0 0)" />
	<line x1="9.0mm" y1="412.0mm" x2="9.0mm" y2="362.0mm" transform="rotate(0 0 0)" />
	<line x1="232.0mm" y1="362.0mm" x2="296.0mm" y2="362.0mm" transform="rotate(0 0 0)" />
	<line x1="296.0mm" y1="362.0mm" x2="296.0mm" y2="370.320833333mm" transform="rotate(0 0 0)" />
	<line x1="296.0mm" y1="370.320833333mm" x2="292.0mm" y2="370.320833333mm" transform="rotate(0 0 0)" />
	<line x1="292.0mm" y1="370.320833333mm" x2="292.0mm" y2="378.666666667mm" transform="rotate(0 0 0)" />
	<line x1="292.0mm" y1="378.666666667mm" x2="296.0mm" y2="378.666666667mm" transform="rotate(0 0 0)" />
	<line x1="296.0mm" y1="378.666666667mm" x2="296.0mm" y2="386.9875mm" transform="rotate(0 0 0)" />
	<line x1="296.0mm" y1="386.9875mm" x2="292.0mm" y2="386.9875mm" transform="rotate(0 0 0)" />
	<line x1="292.0mm" y1="386.9875mm" x2="292.0mm" y2="395.333333333mm" transform="rotate(0 0 0)" />
	<line x1="292.0mm" y1="395.333333333mm" x2="296.0mm" y2="395.333333333mm" transform="rotate(0 0 0)" />
	<line x1="296.0mm" y1="395.333333333mm" x2="296.0mm" y2="403.654166667mm" transform="rotate(0 0 0)" />
	<line x1="296.0mm" y1="403.654166667mm" x2="292.0mm" y2="403.654166667mm" transform="rotate(0 0 0)" />
	<line x1="292.0mm" y1="403.654166667mm" x2="292.0mm" y2="412.0mm" transform="rotate(0 0 0)" />
	<line x1="292.0mm" y1="412.0mm" x2="236.0mm" y2="412.0mm" transform="rotate(0 0 0)" />
	<line x1="236.0mm" y1="412.0mm" x2="236.0mm" y2="403.654166667mm" transform="rotate(0 0 0)" />
	<line x1="236.0mm" y1="403.654166667mm" x2="232.0mm" y2="403.654166667mm" transform="rotate(0 0 0)" />
	<line x1="232.0mm" y1="403.654166667mm" x2="232.0mm" y2="395.333333333mm" transform="rotate(0 0 0)" />
	<line x1="232.0mm" y1="395.333333333mm" x2="236.0mm" y2="395.333333333mm" transform="rotate(0 0 0)" />
	<line x1="236.0mm" y1="395.333333333mm" x2="236.0mm" y2="386.9875mm" transform="rotate(0 0 0)" />
	<line x1="236.0mm" y1="386.9875mm" x2="232.0mm" y2="386.9875mm" transform="rotate(0 0 0)" />
	<line x1="232.0mm" y1="386.9875mm" x2="232.0mm" y2="378.666666667mm" transform="rotate(0 0 0)" />
	<line x1="232.0mm" y1="378.666666667mm" x2="236.0mm" y2="378.666666667mm" transform="rotate(0 0 0)" />
	<line x1="236.0mm" y1="378.666666667mm" x2="236.0mm" y2="370.320833333mm" transform="rotate(0 0 0)" />
	<line x1="236.0mm" y1="370.320833333mm" x2="232.0mm" y2="370.320833333mm" transform="rotate(0 0 0)" />
	<line x1="232.0mm" y1="370.320833333mm" x2="232.0mm" y2="362.0mm" transform="rotate(0 0 0)" />
	<line x1="9.0mm" y1="413.0mm" x2="59.0mm" y2="413.0mm" transform="rotate(0 0 0)" />
	<line x1="59.0mm" y1="413.0mm" x2="59.0mm" y2="429.666666667mm" transform="rotate(0 0 0)" />
	<line x1="59.0mm" y1="429.666666667mm" x2="65.0mm" y2="429.666666667mm" transform="rotate(0 0 0)" />
	<line x1="65.0mm" y1="429.666666667mm" x2="65.0mm" y2="438.0mm" transform="rotate(0 0 0)" />
	<line x1="65.0mm" y1="438.0mm" x2="115.0mm" y2="438.0mm" transform="rotate(0 0 0)" />
	<line x1="115.0mm" y1="438.0mm" x2="115.0mm" y2="429.666666667mm" transform="rotate(0 0 0)" />
	<line x1="115.0mm" y1="429.666666667mm" x2="121.0mm" y2="429.666666667mm" transform="rotate(0 0 0)" />
	<line x1="121.0mm" y1="429.666666667mm" x2="121.0mm" y2="413.0mm" transform="rotate(0 0 0)" />
	<line x1="121.0mm" y1="413.0mm" x2="171.0mm" y2="413.0mm" transform="rotate(0 0 0)" />
	<line x1="171.0mm" y1="413.0mm" x2="171.0mm" y2="429.666666667mm" transform="rotate(0 0 0)" />
	<line x1="171.0mm" y1="429.666666667mm" x2="177.0mm" y2="429.666666667mm" transform="rotate(0 0 0)" />
	<line x1="177.0mm" y1="429.666666667mm" x2="177.0mm" y2="413.0mm" transform="rotate(0 0 0)" />
	<line x1="177.0mm" y1="413.0mm" x2="227.0mm" y2="413.0mm" transform="rotate(0 0 0)" />
	<line x1="227.0mm" y1="413.0mm" x2="227.0mm" y2="429.666666667mm" transform="rotate(0 0 0)" />
	<line x1="227.0mm" y1="429.666666667mm" x2="233.0mm" y2="429.666666667mm" transform="rotate(0 0 0)" />
	<line x1="233.0mm" y1="429.666666667mm" x2="233.0mm" y2="438.0mm" transform="rotate(0 0 0)" />
	<line x1="233.0mm" y1="438.0mm" x2="283.0mm" y2="438.0mm" transform="rotate(0 0 0)" />
	<line x1="283.0mm" y1="438.0mm" x2="283.0mm" y2="463.0mm" transform="rotate(0 0 0)" />
	<line x1="283.0mm" y1="463.0mm" x2="233.0mm" y2="463.0mm" transform="rotate(0 0 0)" />
	<line x1="233.0mm" y1="463.0mm" x2="233.0mm" y2="446.333333333mm" transform="rotate(0 0 0)" />
	<line x1="233.0mm" y1="446.333333333mm" x2="227.0mm" y2="446.333333333mm" transform="rotate(0 0 0)" />
	<line x1="227.0mm" y1="446.333333333mm" x2="227.0mm" y2="463.0mm" transform="rotate(0 0 0)" />
	<line x1="227.0mm" y1="463.0mm" x2="177.0mm" y2="463.0mm" transform="rotate(0 0 0)" />
	<line x1="177.0mm" y1="463.0mm" x2="177.0mm" y2="446.333333333mm" transform="rotate(0 0 0)" />
	<line x1="177.0mm" y1="446.333333333mm" x2="171.0mm" y2="446.333333333mm" transform="rotate(0 0 0)" />
	<line x1="171.0mm" y1="446.333333333mm" x2="171.0mm" y2="463.0mm" transform="rotate(0 0 0)" />
	<line x1="171.0mm" y1="463.0mm" x2="121.0mm" y2="463.0mm" transform="rotate(0 0 0)" />
	<line x1="121.0mm" y1="463.0mm" x2="121.0mm" y2="446.333333333mm" transform="rotate(0 0 0)" />
	<line x1="121.0mm" y1="446.333333333mm" x2="115.0mm" y2="446.333333333mm" transform="rotate(0 0 0)" />
	<line x1="115.0mm" y1="446.333333333mm" x2="115.0mm" y2="463.0mm" transform="rotate(0 0 0)" />
	<line x1="115.0mm" y1="463.0mm" x2="65.0mm" y2="463.0mm" transform="rotate(0 0 0)" />
	<line x1="65.0mm" y1="463.0mm" x2="65.0mm" y2="446.333333333mm" transform="rotate(0 0 0)" />
	<line x1="65.0mm" y1="446.333333333mm" x2="59.0mm" y2="446.333333333mm" transform="rotate(0 0 0)" />
	<line x1="59.0mm" y1="446.333333333mm" x2="59.0mm" y2="463.0mm" transform="rotate(0 0 0)" />
	<line x1="59.0mm" y1="463.0mm" x2="9.0mm" y2="463.0mm" transform="rotate(0 0 0)" />
	<line x1="9.0mm" y1="463.0mm" x2="9.0mm" y2="413.0mm" transform="rotate(0 0 0)" />
	<line x1="9.0mm" y1="464.0mm" x2="65.0mm" y2="464.0mm" transform="rotate(0 0 0)" />
	<line x1="65.0mm" y1="464.0mm" x2="70.0mm" y2="489.0mm" transform="rotate(0 0 0)" />
	<line x1="70.0mm" y1="489.0mm" x2="115.0mm" y2="489.0mm" transform="rotate(0 0 0)" />
	<line x1="115.0mm" y1="489.0mm" x2="115.0mm" y2="480.666666667mm" transform="rotate(0 0 0)" />
	<line x1="115.0mm" y1="480.666666667mm" x2="121.0mm" y2="480.666666667mm" transform="rotate(0 0 0)" />
	<line x1="121.0mm" y1="480.666666667mm" x2="121.0mm" y2="464.0mm" transform="rotate(0 0 0)" />
	<line x1="121.0mm" y1="464.0mm" x2="177.0mm" y2="464.0mm" transform="rotate(0 0 0)" />
	<line x1="177.0mm" y1="464.0mm" x2="227.0mm" y2="464.0mm" transform="rotate(0 0 0)" />
	<line x1="227.0mm" y1="464.0mm" x2="227.0mm" y2="472.320833333mm" transform="rotate(0 0 0)" />
	<line x1="227.0mm" y1="472.320833333mm" x2="231.0mm" y2="472.320833333mm" transform="rotate(0 0 0)" />
	<line x1="231.0mm" y1="472.320833333mm" x2="231.0mm" y2="480.666666667mm" transform="rotate(0 0 0)" />
	<line x1="231.0mm" y1="480.666666667mm" x2="227.0mm" y2="480.666666667mm" transform="rotate(0 0 0)" />
	<line x1="227.0mm" y1="480.666666667mm" x2="227.0mm" y2="488.9875mm" transform="rotate(0 0 0)" />
	<line x1="227.0mm" y1="488.9875mm" x2="231.0mm" y2="488.9875mm" transform="rotate(0 0 0)" />
	<line x1="231.0mm" y1="488.9875mm" x2="231.0mm" y2="497.333333333mm" transform="rotate(0 0 0)" />
	<line x1="231.0mm" y1="497.333333333mm" x2="227.0mm" y2="497.333333333mm" transform="rotate(0 0 0)" />
	<line x1="227.0mm" y1="497.333333333mm" x2="227.0mm" y2="505.654166667mm" transform="rotate(0 0 0)" />
	<line x1="227.0mm" y1="505.654166667mm" x2="231.0mm" y2="505.654166667mm" transform="rotate(0 0 0)" />
	<line x1="231.0mm" y1="505.654166667mm" x2="231.0mm" y2="514.0mm" transform="rotate(0 0 0)" />
	<line x1="231.0mm" y1="514.0mm" x2="227.0mm" y2="514.0mm" transform="rotate(0 0 0)" />
	<line x1="227.0mm" y1="514.0mm" x2="177.0mm" y2="514.0mm" transform="rotate(0 0 0)" />
	<line x1="177.0mm" y1="514.0mm" x2="177.0mm" y2="489.0mm" transform="rotate(0 0 0)" />
	<line x1="177.0mm" y1="489.0mm" x2="171.0mm" y2="489.0mm" transform="rotate(0 0 0)" />
	<line x1="171.0mm" y1="489.0mm" x2="171.0mm" y2="514.0mm" transform="rotate(0 0 0)" />
	<line x1="171.0mm" y1="514.0mm" x2="121.0mm" y2="514.0mm" transform="rotate(0 0 0)" />
	<line x1="121.0mm" y1="514.0mm" x2="121.0mm" y2="497.333333333mm" transform="rotate(0 0 0)" />
	<line x1="121.0mm" y1="497.333333333mm" x2="115.0mm" y2="497.333333333mm" transform="rotate(0 0 0)" />
	<line x1="115.0mm" y1="497.333333333mm" x2="115.0mm" y2="514.0mm" transform="rotate(0 0 0)" />
	<line x1="115.0mm" y1="514.0mm" x2="65.0mm" y2="514.0mm" transform="rotate(0 0 0)" />
	<line x1="65.0mm" y1="514.0mm" x2="65.0mm" y2="489.0mm" transform="rotate(0 0 0)" />
	<line x1="65.0mm" y1="489.0mm" x2="59.0mm" y2="489.0mm" transform="rotate(0 0 0)" />
	<line x1="59.0mm" y1="489.0mm" x2="59.0mm" y2="514.0mm" transform="rotate(0 0 0)" />
	<line x1="59.0mm" y1="514.0mm" x2="9.0mm" y2="514.0mm" transform="rotate(0 0 0)" />
	<line x1="9.0mm" y1="514.0mm" x2="5.0mm" y2="514.0mm" transform="rotate(0 0 0)" />
	<line x1="5.0mm" y1="514.0mm" x2="5.0mm" y2="505.654166667mm" transform="rotate(0 0 0)" />
	<line x1="5.0mm" y1="505.654166667mm" x2="9.0mm" y2="505.654166667mm" transform="rotate(0 0 0)" />
	<line x1="9.0mm" y1="505.654166667mm" x2="9.0mm" y2="497.333333333mm" transform="rotate(0 0 0)" />
	<line x1="9.0mm" y1="497.333333333mm" x2="5.0mm" y2="497.333333333mm" transform="rotate(0 0 0)" />
	<line x1="5.0mm" y1="497.333333333mm" x2="5.0mm" y2="488.9875mm" transform="rotate(0 0 0)" />
	<line x1="5.0mm" y1="488.9875mm" x2="9.0mm" y2="488.9875mm" transform="rotate(0 0 0)" />
	<line x1="9.0mm" y1="488.9875mm" x2="9.0mm" y2="480.666666667mm" transform="rotate(0 0 0)" />
	<line x1="9.0mm" y1="480.666666667mm" x2="5.0mm" y2="480.666666667mm" transform="rotate(0 0 0)" />
	<line x1="5.0mm" y1="480.666666667mm" x2="5.0mm" y2="472.320833333mm" transform="rotate(0 0 0)" />
	<line x1="5.0mm" y1="472.320833333mm" x2="9.0mm" y2="472.320833333mm" transform="rotate(0 0 0)" />
	<line x1="9.0mm" y1="472.320833333mm" x2="9.0mm" y2="464.0mm" transform="rotate(0 0 0)" />
	<line x1="232.0mm" y1="464.0mm" x2="296.0mm" y2="464.0mm" transform="rotate(0 0 0)" />
	<line x1="296.0mm" y1="464.0mm" x2="296.0mm" y2="472.320833333mm" transform="rotate(0 0 0)" />
	<line x1="296.0mm" y1="472.320833333mm" x2="292.0mm" y2="472.320833333mm" transform="rotate(0 0 0)" />
	<line x1="292.0mm" y1="472.320833333mm" x2="292.0mm" y2="480.666666667mm" transform="rotate(0 0 0)" />
	<line x1="292.0mm" y1="480.666666667mm" x2="296.0mm" y2="480.666666667mm" transform="rotate(0 0 0)" />
	<line x1="296.0mm" y1="480.666666667mm" x2="296.0mm" y2="488.9875mm" transform="rotate(0 0 0)" />
	<line x1="296.0mm" y1="488.9875mm" x2="292.0mm" y2="488.9875mm" transform="rotate(0 0 0)" />
	<line x1="292.0mm" y1="488.9875mm" x2="292.0mm" y2="497.333333333mm" transform="rotate(0 0 0)" />
	<line x1="292.0mm" y1="497.333333333mm" x2="296.0mm" y2="497.333333333mm" transform="rotate(0 0 0)" />
	<line x1="296.0mm" y1="497.333333333mm" x2="296.0mm" y2="505.654166667mm" transform="rotate(0 0 0)" />
	<line x1="296.0mm" y1="505.654166667mm" x2="292.0mm" y2="505.654166667mm" transform="rotate(0 0 0)" />
	<line x1="292.0mm" y1="505.654166667mm" x2="292.0mm" y2="514.0mm" transform="rotate(0 0 0)" />
	<line x1="292.0mm" y1="514.0mm" x2="236.0mm" y2="514.0mm" transform="rotate(0 0 0)" />
	<line x1="236.0mm" y1="514.0mm" x2="236.0mm" y2="505.654166667mm" transform="rotate(0 0 0)" />
	<line x1="236.0mm" y1="505.654166667mm" x2="232.0mm" y2="505.654166667mm" transform="rotate(0 0 0)" />
	<line x1="232.0mm" y1="505.654166667mm" x2="232.0mm" y2="497.333333333mm" transform="rotate(0 0 0)" />
	<line x1="232.0mm" y1="497.333333333mm" x2="236.0mm" y2="497.333333333mm" transform="rotate(0 0 0)" />
	<line x1="236.0mm" y1="497.333333333mm" x2="236.0mm" y2="488.9875mm" transform="rotate(0 0 0)" />
	<line x1="236.0mm" y1="488.9875mm" x2="232.0mm" y2="488.9875mm" transform="rotate(0 0 0)" />
	<line x1="232.0mm" y1="488.9875mm" x2="232.0mm" y2="480.666666667mm" transform="rotate(0 0 0)" />
	<line x1="232.0mm" y1="480.666666667mm" x2="236.0mm" y2="480.666666667mm" transform="rotate(0 0 0)" />
	<line x1="236.0mm" y1="480.666666667mm" x2="236.0mm" y2="472.320833333mm" transform="rotate(0 0 0)" />
	<line x1="236.0mm" y1="472.320833333mm" x2="232.0mm" y2="472.320833333mm" transform="rotate(0 0 0)" />
	<line x1="232.0mm" y1="472.320833333mm" x2="232.0mm" y2="464.0mm" transform="rotate(0 0 0)" />
	<line x1="9.0mm" y1="515.0mm" x2="59.0mm" y2="515.0mm" transform="rotate(0 0 0)" />
	<line x1="59.0mm" y1="515.0mm" x2="59.0mm" y2="540.0mm" transform="rotate(0 0 0)" />
	<line x1="59.0mm" y1="540.0mm" x2="65.0mm" y2="540.0mm" transform="rotate(0 0 0)" />
	<line x1="65.0mm" y1="540.0mm" x2="65.0mm" y2="515.0mm" transform="rotate(0 0 0)" />
	<line x1="65.0mm" y1="515.0mm" x2="115.0mm" y2="515.0mm" transform="rotate(0 0 0)" />
	<line x1="115.0mm" y1="515.0mm" x2="115.0mm" y2="548.333333333mm" transform="rotate(0 0 0)" />
	<line x1="115.0mm" y1="548.333333333mm" x2="121.0mm" y2="548.333333333mm" transform="rotate(0 0 0)" />
	<line x1="121.0mm" y1="548.333333333mm" x2="121.0mm" y2="540.0mm" transform="rotate(0 0 0)" />
	<line x1="121.0mm" y1="540.0mm" x2="177.0mm" y2="540.0mm" transform="rotate(0 0 0)" />
	<line x1="177.0mm" y1="540.0mm" x2="177.0mm" y2="515.0mm" transform="rotate(0 0 0)" />
	<line x1="177.0mm" y1="515.0mm" x2="227.0mm" y2="515.0mm" transform="rotate(0 0 0)" />
	<line x1="227.0mm" y1="515.0mm" x2="227.0mm" y2="523.320833333mm" transform="rotate(0 0 0)" />
	<line x1="227.0mm" y1="523.320833333mm" x2="231.0mm" y2="523.320833333mm" transform="rotate(0 0 0)" />
	<line x1="231.0mm" y1="523.320833333mm" x2="231.0mm" y2="531.666666667mm" transform="rotate(0 0 0)" />
	<line x1="231.0mm" y1="531.666666667mm" x2="227.0mm" y2="531.666666667mm" transform="rotate(0 0 0)" />
	<line x1="227.0mm" y1="531.666666667mm" x2="227.0mm" y2="539.9875mm" transform="rotate(0 0 0)" />
	<line x1="227.0mm" y1="539.9875mm" x2="231.0mm" y2="539.9875mm" transform="rotate(0 0 0)" />
	<line x1="231.0mm" y1="539.9875mm" x2="231.0mm" y2="548.333333333mm" transform="rotate(0 0 0)" />
	<line x1="231.0mm" y1="548.333333333mm" x2="227.0mm" y2="548.333333333mm" transform="rotate(0 0 0)" />
	<line x1="227.0mm" y1="548.333333333mm" x2="227.0mm" y2="556.654166667mm" transform="rotate(0 0 0)" />
	<line x1="227.0mm" y1="556.654166667mm" x2="231.0mm" y2="556.654166667mm" transform="rotate(0 0 0)" />
	<line x1="231.0mm" y1="556.654166667mm" x2="231.0mm" y2="565.0mm" transform="rotate(0 0 0)" />
	<line x1="231.0mm" y1="565.0mm" x2="227.0mm" y2="565.0mm" transform="rotate(0 0 0)" />
	<line x1="227.0mm" y1="565.0mm" x2="9.0mm" y2="565.0mm" transform="rotate(0 0 0)" />
	<line x1="9.0mm" y1="565.0mm" x2="5.0mm" y2="565.0mm" transform="rotate(0 0 0)" />
	<line x1="5.0mm" y1="565.0mm" x2="5.0mm" y2="556.654166667mm" transform="rotate(0 0 0)" />
	<line x1="5.0mm" y1="556.654166667mm" x2="9.0mm" y2="556.654166667mm" transform="rotate(0 0 0)" />
	<line x1="9.0mm" y1="556.654166667mm" x2="9.0mm" y2="548.333333333mm" transform="rotate(0 0 0)" />
	<line x1="9.0mm" y1="548.333333333mm" x2="5.0mm" y2="548.333333333mm" transform="rotate(0 0 0)" />
	<line x1="5.0mm" y1="548.333333333mm" x2="5.0mm" y2="539.9875mm" transform="rotate(0 0 0)" />
	<line x1="5.0mm" y1="539.9875mm" x2="9.0mm" y2="539.9875mm" transform="rotate(0 0 0)" />
	<line x1="9.0mm" y1="539.9875mm" x2="9.0mm" y2="531.666666667mm" transform="rotate(0 0 0)" />
	<line x1="9.0mm" y1="531.666666667mm" x2="5.0mm" y2="531.666666667mm" transform="rotate(0 0 0)" />
	<line x1="5.0mm" y1="531.666666667mm" x2="5.0mm" y2="523.320833333mm" transform="rotate(0 0 0)" />
	<line x1="5.0mm" y1="523.320833333mm" x2="9.0mm" y2="523.320833333mm" transform="rotate(0 0 0)" />
	<line x1="9.0mm" y1="523.320833333mm" x2="9.0mm" y2="515.0mm" transform="rotate(0 0 0)" />
	<line x1="297.0mm" y1="5.0mm" x2="347.0mm" y2="5.0mm" transform="rotate(0 0 0)" />
	<line x1="347.0mm" y1="5.0mm" x2="347.0mm" y2="38.3333333333mm" transform="rotate(0 0 0)" />
	<line x1="347.0mm" y1="38.3333333333mm" x2="353.0mm" y2="38.3333333333mm" transform="rotate(0 0 0)" />
	<line x1="353.0mm" y1="38.3333333333mm" x2="353.0mm" y2="30.0mm" transform="rotate(0 0 0)" />
	<line x1="353.0mm" y1="30.0mm" x2="403.0mm" y2="30.0mm" transform="rotate(0 0 0)" />
	<line x1="403.0mm" y1="30.0mm" x2="403.0mm" y2="38.3333333333mm" transform="rotate(0 0 0)" />
	<line x1="403.0mm" y1="38.3333333333mm" x2="409.0mm" y2="38.3333333333mm" transform="rotate(0 0 0)" />
	<line x1="409.0mm" y1="38.3333333333mm" x2="409.0mm" y2="5.0mm" transform="rotate(0 0 0)" />
	<line x1="409.0mm" y1="5.0mm" x2="459.0mm" y2="5.0mm" transform="rotate(0 0 0)" />
	<line x1="459.0mm" y1="5.0mm" x2="459.0mm" y2="38.3333333333mm" transform="rotate(0 0 0)" />
	<line x1="459.0mm" y1="38.3333333333mm" x2="465.0mm" y2="38.3333333333mm" transform="rotate(0 0 0)" />
	<line x1="465.0mm" y1="38.3333333333mm" x2="465.0mm" y2="5.0mm" transform="rotate(0 0 0)" />
	<line x1="465.0mm" y1="5.0mm" x2="515.0mm" y2="5.0mm" transform="rotate(0 0 0)" />
	<line x1="515.0mm" y1="5.0mm" x2="515.0mm" y2="38.3333333333mm" transform="rotate(0 0 0)" />
	<line x1="515.0mm" y1="38.3333333333mm" x2="521.0mm" y2="38.3333333333mm" transform="rotate(0 0 0)" />
	<line x1="521.0mm" y1="38.3333333333mm" x2="521.0mm" y2="30.0mm" transform="rotate(0 0 0)" />
	<line x1="521.0mm" y1="30.0mm" x2="571.0mm" y2="30.0mm" transform="rotate(0 0 0)" />
	<line x1="571.0mm" y1="30.0mm" x2="571.0mm" y2="55.0mm" transform="rotate(0 0 0)" />
	<line x1="571.0mm" y1="55.0mm" x2="297.0mm" y2="55.0mm" transform="rotate(0 0 0)" />
	<line x1="297.0mm" y1="55.0mm" x2="297.0mm" y2="5.0mm" transform="rotate(0 0 0)" />
	<line x1="297.0mm" y1="56.0mm" x2="347.0mm" y2="56.0mm" transform="rotate(0 0 0)" />
	<line x1="347.0mm" y1="56.0mm" x2="347.0mm" y2="89.3333333333mm" transform="rotate(0 0 0)" />
	<line x1="347.0mm" y1="89.3333333333mm" x2="353.0mm" y2="89.3333333333mm" transform="rotate(0 0 0)" />
	<line x1="353.0mm" y1="89.3333333333mm" x2="353.0mm" y2="56.0mm" transform="rotate(0 0 0)" />
	<line x1="353.0mm" y1="56.0mm" x2="403.0mm" y2="56.0mm" transform="rotate(0 0 0)" />
	<line x1="403.0mm" y1="56.0mm" x2="403.0mm" y2="89.3333333333mm" transform="rotate(0 0 0)" />
	<line x1="403.0mm" y1="89.3333333333mm" x2="409.0mm" y2="89.3333333333mm" transform="rotate(0 0 0)" />
	<line x1="409.0mm" y1="89.3333333333mm" x2="409.0mm" y2="81.0mm" transform="rotate(0 0 0)" />
	<line x1="409.0mm" y1="81.0mm" x2="459.0mm" y2="81.0mm" transform="rotate(0 0 0)" />
	<line x1="459.0mm" y1="81.0mm" x2="459.0mm" y2="89.3333333333mm" transform="rotate(0 0 0)" />
	<line x1="459.0mm" y1="89.3333333333mm" x2="465.0mm" y2="89.3333333333mm" transform="rotate(0 0 0)" />
	<line x1="465.0mm" y1="89.3333333333mm" x2="465.0mm" y2="56.0mm" transform="rotate(0 0 0)" />
	<line x1="465.0mm" y1="56.0mm" x2="515.0mm" y2="56.0mm" transform="rotate(0 0 0)" />
	<line x1="515.0mm" y1="56.0mm" x2="515.0mm" y2="106.0mm" transform="rotate(0 0 0)" />
	<line x1="515.0mm" y1="106.0mm" x2="297.0mm" y2="106.0mm" transform="rotate(0 0 0)" />
	<line x1="297.0mm" y1="106.0mm" x2="297.0mm" y2="56.0mm" transform="rotate(0 0 0)" />
	<line x1="297.0mm" y1="107.0mm" x2="347.0mm" y2="107.0mm" transform="rotate(0 0 0)" />
	<line x1="347.0mm" y1="107.0mm" x2="347.0mm" y2="140.333333333mm" transform="rotate(0 0 0)" />
	<line x1="347.0mm" y1="140.333333333mm" x2="353.0mm" y2="140.333333333mm" transform="rotate(0 0 0)" />
	<line x1="353.0mm" y1="140.333333333mm" x2="353.0mm" y2="132.0mm" transform="rotate(0 0 0)" />
	<line x1="353.0mm" y1="132.0mm" x2="403.0mm" y2="132.0mm" transform="rotate(0 0 0)" />
	<line x1="403.0mm" y1="132.0mm" x2="403.0mm" y2="140.333333333mm" transform="rotate(0 0 0)" />
	<line x1="403.0mm" y1="140.333333333mm" x2="409.0mm" y2="140.333333333mm" transform="rotate(0 0 0)" />
	<line x1="409.0mm" y1="140.333333333mm" x2="409.0mm" y2="107.0mm" transform="rotate(0 0 0)" />
	<line x1="409.0mm" y1="107.0mm" x2="459.0mm" y2="107.0mm" transform="rotate(0 0 0)" />
	<line x1="459.0mm" y1="107.0mm" x2="459.0mm" y2="140.333333333mm" transform="rotate(0 0 0)" />
	<line x1="459.0mm" y1="140.333333333mm" x2="465.0mm" y2="140.333333333mm" transform="rotate(0 0 0)" />
	<line x1="465.0mm" y1="140.333333333mm" x2="465.0mm" y2="107.0mm" transform="rotate(0 0 0)" />
	<line x1="465.0mm" y1="107.0mm" x2="515.0mm" y2="107.0mm" transform="rotate(0 0 0)" />
	<line x1="515.0mm" y1="107.0mm" x2="515.0mm" y2="140.333333333mm" transform="rotate(0 0 0)" />
	<line x1="515.0mm" y1="140.333333333mm" x2="521.0mm" y2="140.333333333mm" transform="rotate(0 0 0)" />
	<line x1="521.0mm" y1="140.333333333mm" x2="521.0mm" y2="132.0mm" transform="rotate(0 0 0)" />
	<line x1="521.0mm" y1="132.0mm" x2="571.0mm" y2="132.0mm" transform="rotate(0 0 0)" />
	<line x1="571.0mm" y1="132.0mm" x2="571.0mm" y2="157.0mm" transform="rotate(0 0 0)" />
	<line x1="571.0mm" y1="157.0mm" x2="297.0mm" y2="157.0mm" transform="rotate(0 0 0)" />
	<line x1="297.0mm" y1="157.0mm" x2="297.0mm" y2="107.0mm" transform="rotate(0 0 0)" />
	<line x1="297.0mm" y1="158.0mm" x2="347.0mm" y2="158.0mm" transform="rotate(0 0 0)" />
	<line x1="347.0mm" y1="158.0mm" x2="347.0mm" y2="183.0mm" transform="rotate(0 0 0)" />
	<line x1="347.0mm" y1="183.0mm" x2="353.0mm" y2="183.0mm" transform="rotate(0 0 0)" />
	<line x1="353.0mm" y1="183.0mm" x2="353.0mm" y2="158.0mm" transform="rotate(0 0 0)" />
	<line x1="353.0mm" y1="158.0mm" x2="403.0mm" y2="158.0mm" transform="rotate(0 0 0)" />
	<line x1="403.0mm" y1="158.0mm" x2="403.0mm" y2="191.333333333mm" transform="rotate(0 0 0)" />
	<line x1="403.0mm" y1="191.333333333mm" x2="409.0mm" y2="191.333333333mm" transform="rotate(0 0 0)" />
	<line x1="409.0mm" y1="191.333333333mm" x2="409.0mm" y2="183.0mm" transform="rotate(0 0 0)" />
	<line x1="409.0mm" y1="183.0mm" x2="465.0mm" y2="183.0mm" transform="rotate(0 0 0)" />
	<line x1="465.0mm" y1="183.0mm" x2="465.0mm" y2="158.0mm" transform="rotate(0 0 0)" />
	<line x1="465.0mm" y1="158.0mm" x2="515.0mm" y2="158.0mm" transform="rotate(0 0 0)" />
	<line x1="515.0mm" y1="158.0mm" x2="515.0mm" y2="166.320833333mm" transform="rotate(0 0 0)" />
	<line x1="515.0mm" y1="166.320833333mm" x2="519.0mm" y2="166.320833333mm" transform="rotate(0 0 0)" />
	<line x1="519.0mm" y1="166.320833333mm" x2="519.0mm" y2="174.666666667mm" transform="rotate(0 0 0)" />
	<line x1="519.0mm" y1="174.666666667mm" x2="515.0mm" y2="174.666666667mm" transform="rotate(0 0 0)" />
	<line x1="515.0mm" y1="174.666666667mm" x2="515.0mm" y2="182.9875mm" transform="rotate(0 0 0)" />
	<line x1="515.0mm" y1="182.9875mm" x2="519.0mm" y2="182.9875mm" transform="rotate(0 0 0)" />
	<line x1="519.0mm" y1="182.9875mm" x2="519.0mm" y2="191.333333333mm" transform="rotate(0 0 0)" />
	<line x1="519.0mm" y1="191.333333333mm" x2="515.0mm" y2="191.333333333mm" transform="rotate(0 0 0)" />
	<line x1="515.0mm" y1="191.333333333mm" x2="515.0mm" y2="199.654166667mm" transform="rotate(0 0 0)" />
	<line x1="515.0mm" y1="199.654166667mm" x2="519.0mm" y2="199.654166667mm" transform="rotate(0 0 0)" />
	<line x1="519.0mm" y1="199.654166667mm" x2="519.0mm" y2="208.0mm" transform="rotate(0 0 0)" />
	<line x1="519.0mm" y1="208.0mm" x2="515.0mm" y2="208.0mm" transform="rotate(0 0 0)" />
	<line x1="515.0mm" y1="208.0mm" x2="297.0mm" y2="208.0mm" transform="rotate(0 0 0)" />
	<line x1="297.0mm" y1="208.0mm" x2="293.0mm" y2="208.0mm" transform="rotate(0 0 0)" />
	<line x1="293.0mm" y1="208.0mm" x2="293.0mm" y2="199.654166667mm" transform="rotate(0 0 0)" />
	<line x1="293.0mm" y1="199.654166667mm" x2="297.0mm" y2="199.654166667mm" transform="rotate(0 0 0)" />
	<line x1="297.0mm" y1="199.654166667mm" x2="297.0mm" y2="191.333333333mm" transform="rotate(0 0 0)" />
	<line x1="297.0mm" y1="191.333333333mm" x2="293.0mm" y2="191.333333333mm" transform="rotate(0 0 0)" />
	<line x1="293.0mm" y1="191.333333333mm" x2="293.0mm" y2="182.9875mm" transform="rotate(0 0 0)" />
	<line x1="293.0mm" y1="182.9875mm" x2="297.0mm" y2="182.9875mm" transform="rotate(0 0 0)" />
	<line x1="297.0mm" y1="182.9875mm" x2="297.0mm" y2="174.666666667mm" transform="rotate(0 0 0)" />
	<line x1="297.0mm" y1="174.666666667mm" x2="293.0mm" y2="174.666666667mm" transform="rotate(0 0 0)" />
	<line x1="293.0mm" y1="174.666666667mm" x2="293.0mm" y2="166.320833333mm" transform="rotate(0 0 0)" />
	<line x1="293.0mm" y1="166.320833333mm" x2="297.0mm" y2="166.320833333mm" transform="rotate(0 0 0)" />
	<line x1="297.0mm" y1="166.320833333mm" x2="297.0mm" y2="158.0mm" transform="rotate(0 0 0)" />
</g>
</svg>
